<svg width="58" height="65" viewBox="0 0 58 65" xmlns="http://www.w3.org/2000/svg"><path d="M47.942 62.899H11.396v2.029H5.304v-2.386a6.09 6.09 0 0 1-4.03-5.73V40.499c0-12.574 9.73-22.998 22.264-23.872l1.434-6.665C14.61 9.104 5.812 5.299 1 0h56.862C53.046 5.302 44.24 9.11 33.869 9.964l1.354 6.64.518.035c12.57.82 22.34 11.263 22.323 23.86l-.021 16.32a6.09 6.09 0 0 1-4.01 5.716v2.393h-6.091v-2.03zM29.68 58.84C42.007 58.84 52 50.21 52 39.565 52 28.92 42.007 20.29 29.68 20.29c-12.326 0-22.318 8.63-22.318 19.275 0 10.646 9.992 19.276 22.319 19.276zm-.76-17.98l-13.443 5.51 10.495-9.645a4.06 4.06 0 0 1 4.9-3.74A4.06 4.06 0 0 1 34 37.802a4.06 4.06 0 0 1-5.08 3.06z" fill="#FFF" fill-rule="nonzero"/></svg>