<?xml version="1.0" encoding="UTF-8"?>
<svg width="90px" height="26px" viewBox="0 0 90 26" version="1.1" xmlns="http://www.w3.org/2000/svg" xmlns:xlink="http://www.w3.org/1999/xlink">
    <!-- Generator: Sketch 55.2 (78181) - https://sketchapp.com -->
    <title>tension</title>
    <desc>Created with Sketch.</desc>
    <g id="tension" stroke="none" stroke-width="1" fill="none" fill-rule="evenodd">
        <g transform="translate(-1.000000, 3.000000)" fill="#FFFFFF" fill-rule="nonzero">
            <path d="M82.363,19.636 C82.126,19.636 81.58,19.577 80.034,19.407 C74.784,18.827 60.836,17.285 45.995,17.285 C31.159,17.285 17.216,18.827 11.966,19.407 C10.421,19.578 9.874,19.636 9.636,19.636 C4.323,19.636 0,15.313 0,10 C0,4.687 4.323,0.364 9.636,0.364 C9.874,0.364 10.421,0.423 11.966,0.593 C17.216,1.174 31.159,2.715 45.995,2.715 C60.836,2.715 74.784,1.173 80.034,0.593 C81.579,0.422 82.126,0.364 82.363,0.364 C87.677,0.364 92,4.687 92,10 C92,15.313 87.677,19.636 82.363,19.636 Z M9.633,2.364 C5.426,2.364 2,5.79 2,10 C2,14.21 5.426,17.636 9.636,17.636 C9.804,17.633 10.704,17.533 11.746,17.418 C17.025,16.834 31.048,15.284 45.995,15.284 C60.945,15.284 74.974,16.835 80.254,17.418 C81.294,17.533 82.192,17.632 82.366,17.636 C86.575,17.635 90,14.21 90,10 C90,5.79 86.574,2.364 82.363,2.364 C82.197,2.367 81.297,2.467 80.254,2.582 C74.975,3.165 60.945,4.716 45.995,4.716 C31.049,4.716 17.026,3.166 11.746,2.582 C10.704,2.466 9.804,2.367 9.633,2.364 Z" id="Shape"></path>
            <polygon id="Path" points="23.5 9 7.877 9 10.27 6.609 7.391 6.609 4 10 7.391 13.391 10.27 13.391 7.877 11 23.5 11"></polygon>
            <polygon id="Path" points="84.609 6.609 81.73 6.609 84.123 9 68.5 9 68.5 11 84.123 11 81.73 13.391 84.609 13.391 88 10"></polygon>
        </g>
    </g>
</svg>