<svg width="96" height="96" viewBox="0 0 96 96" xmlns="http://www.w3.org/2000/svg"><g fill="#FFF" fill-rule="nonzero"><path d="M52.56 60l-.56.63a8.93 8.93 0 0 1 .265 2.163c0 .51-.045 1.011-.125 1.502l7.301 8.212c.293.329.676.493 1.06.493s.767-.164 1.06-.493c.585-.657.585-1.726 0-2.383L52.559 60zM58.474 46L56 48.474l14.012 14.014c.342.342.79.512 1.238.512a1.75 1.75 0 0 0 1.238-2.987L58.473 46zM33.701 45.854c.495-.08 1-.127 1.511-.127.725 0 1.448.091 2.161.273l.627-.56-10.123-9.001c-.659-.585-1.725-.585-2.383 0-.659.584-.659 1.533 0 2.119l8.207 7.296zM47.525 40L50 37.525 35.987 23.513a1.75 1.75 0 1 0-2.474 2.474L47.525 40z"/><path d="M89.626 3.57l2.8 2.8-6.682 12.05-4.077-.289-1.452-.103-1.028 1.029-29.404 29.402-1.944 1.943 1.637 2.208c.194.261.425.686.425 1.226 0 .554-.216 1.074-.607 1.466l-2.008 2.008-1.643 1.643 1.062 2.066c.189.37.285.744.285 1.116 0 .673-.25 1.278-.724 1.752L18.074 92.09a2.44 2.44 0 0 1-1.763.723c-.673 0-1.279-.25-1.752-.722L3.901 81.42a2.393 2.393 0 0 1-.713-1.741c0-.673.25-1.279.725-1.753l28.18-28.19a2.473 2.473 0 0 1 1.774-.735c.351 0 .732.103 1.13.304l2.067 1.048L38.7 48.71l1.991-2.002a2.03 2.03 0 0 1 1.465-.606c.44 0 .845.138 1.208.41l2.213 1.667 1.959-1.96 29.403-29.412 1.026-1.025-.1-1.448-.28-4.073 12.042-6.69zM89.908 0c-.264 0-.53.065-.773.197L75.151 7.964c-.542.298-.861.882-.819 1.498l.351 5.09L45.28 43.965a5.15 5.15 0 0 0-3.125-1.052c-1.402 0-2.72.542-3.719 1.54l-1.998 2.009c-.797-.404-1.668-.648-2.571-.648-1.52 0-2.944.595-4.017 1.657L1.658 75.673A5.626 5.626 0 0 0 0 79.679a5.59 5.59 0 0 0 1.658 4.006l10.648 10.657A5.627 5.627 0 0 0 16.312 96c1.52 0 2.943-.584 4.017-1.658l28.192-28.2a5.608 5.608 0 0 0 1.02-6.578l2.008-2.009a5.242 5.242 0 0 0 1.541-3.719c0-1.137-.382-2.22-1.052-3.124L81.442 21.31l5.09.362h.117c.573 0 1.105-.309 1.392-.819L95.798 6.86a1.578 1.578 0 0 0-.266-1.891L91.037.473A1.576 1.576 0 0 0 89.907 0zM20.999 38a19.02 19.02 0 0 0 7.167-1.404 1.603 1.603 0 1 0-1.207-2.972A15.774 15.774 0 0 1 9.84 30.16a15.69 15.69 0 0 1-4.458-13.385l5.32 5.32a6.825 6.825 0 0 0 4.854 2.012h.004a6.812 6.812 0 0 0 4.847-2.008l3.693-3.691a6.81 6.81 0 0 0 2.007-4.851 6.821 6.821 0 0 0-2.014-4.852l-5.322-5.322a15.689 15.689 0 0 1 13.39 4.46 15.755 15.755 0 0 1 3.463 17.103 1.603 1.603 0 1 0 2.972 1.208 18.957 18.957 0 0 0-4.167-20.58C29.34.485 21.932-1.286 15.098.955c-.025.008-.046.02-.07.03-.025.01-.047.022-.072.032-.178.08-.337.184-.47.313-.008.006-.016.008-.024.015-.01.01-.012.02-.02.03a1.592 1.592 0 0 0-.313.471l-.027.07c-.063.169-.1.346-.103.529a1.635 1.635 0 0 0 .073.534c.008.024.021.046.03.07.01.024.022.046.033.07.078.178.183.337.311.47.007.007.009.016.016.023l7.362 7.362a3.635 3.635 0 0 1 1.074 2.585 3.62 3.62 0 0 1-1.068 2.58l-3.694 3.691a3.623 3.623 0 0 1-2.577 1.068h-.002a3.638 3.638 0 0 1-2.586-1.072L5.61 12.465c-.008-.008-.017-.01-.025-.016a1.591 1.591 0 0 0-.467-.31c-.025-.011-.048-.023-.074-.033-.025-.01-.046-.023-.07-.03a1.614 1.614 0 0 0-.457-.072c-.026-.001-.05-.002-.077-.001-.182.004-.359.04-.526.102l-.074.03a1.61 1.61 0 0 0-.467.308c-.01.01-.023.012-.033.023-.006.007-.008.018-.016.025-.128.133-.232.29-.31.467-.01.025-.023.049-.032.075-.01.024-.024.046-.031.07C.716 19.94 2.488 27.346 7.572 32.43A18.97 18.97 0 0 0 20.999 38zM69.846 59.402a1.604 1.604 0 1 0 1.208 2.973 15.763 15.763 0 0 1 17.105 3.464 15.684 15.684 0 0 1 4.46 13.389l-5.322-5.322c-2.676-2.676-7.03-2.68-9.704-.006L73.9 77.593c-2.674 2.674-2.672 7.027.005 9.704l5.32 5.32a15.697 15.697 0 0 1-13.386-4.458 15.77 15.77 0 0 1-3.464-17.116 1.604 1.604 0 1 0-2.973-1.208 18.971 18.971 0 0 0 4.168 20.593C67.201 94.058 72.016 96 76.963 96c1.98 0 3.982-.311 5.937-.95.026-.008.047-.022.072-.03.024-.01.047-.022.071-.033.178-.078.336-.182.469-.311.007-.007.017-.009.023-.016.01-.01.012-.023.022-.031.131-.138.236-.296.31-.47.011-.023.02-.047.029-.07a1.6 1.6 0 0 0 .102-.529v-.075a1.583 1.583 0 0 0-.072-.457c-.009-.026-.023-.047-.031-.072-.01-.025-.022-.048-.033-.073a1.58 1.58 0 0 0-.312-.47c-.006-.006-.008-.015-.015-.022l-7.361-7.362a3.659 3.659 0 0 1-.006-5.167l3.692-3.692a3.658 3.658 0 0 1 5.167.005l7.362 7.362c.006.007.016.009.023.015.134.13.292.235.47.313l.071.032c.025.01.045.022.07.03a1.6 1.6 0 0 0 .5.08c.192 0 .377-.042.552-.107.053-.02.098-.05.148-.075a1.59 1.59 0 0 0 .35-.232c.025-.023.058-.031.083-.056.023-.022.03-.052.05-.076.092-.102.166-.218.23-.345.028-.055.062-.103.083-.16.007-.019.021-.034.027-.053 2.24-6.835.469-14.241-4.621-19.331a18.952 18.952 0 0 0-20.579-4.17z"/></g></svg>