<svg width="373" height="309" viewBox="0 0 373 309" xmlns="http://www.w3.org/2000/svg"><g fill="none" fill-rule="evenodd"><text stroke="#FFF" stroke-width="4" fill="#D8D8D8" font-family="Arual" font-size="45" font-weight="300" letter-spacing="2.202" transform="translate(-11 .8)"><tspan x="99.143" y="209.2">TURKISH </tspan> <tspan x="68.815" y="257.6">SLACKLINE </tspan> <tspan x="30.051" y="306">ASSOCIATION</tspan></text><path d="M237.707 1.424c-.315.34-.753.702-.995.8-.219.072-2.453 2.058-4.979 4.407a2434.41 2434.41 0 0 1-7.965 7.361 1944.934 1944.934 0 0 0-11.657 10.776 3605.8 3605.8 0 0 1-14.693 13.537c-7.625 6.999-7.771 7.144-7.771 7.798 0 .557 1.238 1.913 1.748 1.913s5.173-4.165 14.911-13.295a163.72 163.72 0 0 1 3.158-2.93c.655-.605 2.865-2.664 4.905-4.577 2.04-1.913 3.764-3.414 3.837-3.342.097.073-.558 1.211-1.408 2.519-.85 1.308-1.87 2.857-2.235 3.463-1.675 2.688-6.97 10.946-9.665 15.086-.631.97-1.991 3.221-3.06 5.013-6.946 11.72-9.01 20.269-7.14 29.665.753 3.778 2.283 13.125 2.599 15.74.073.654.243 1.913.364 2.785.898 6.248 1.093 9.469 1.093 19.01 0 8.136-.073 10.146-.437 12.592-.826 5.449-1.822 9.735-2.963 12.883-1.044 2.882-3.789 8.79-4.08 8.79-.121 0-.146-.508-.073-1.162.291-2.18.85-10.921 1.141-17.75.486-11.164-.388-24.773-2.112-33.152-.486-2.373-1.749-7.023-2.04-7.555-.146-.243-.243-.557-.243-.703 0-.145-.316-.968-.729-1.84-.388-.848-.728-1.598-.728-1.647 0-.436-2.866-4.94-3.522-5.521-.485-.46-.485-.436-.655.969-.097.774-.292 4.286-.437 7.821-.122 3.536-.292 6.636-.365 6.902-.048.29-.218 1.526-.364 2.785-.437 3.899-1.166 6.998-2.769 11.866-1.602 4.915-5.294 11.357-9.52 16.636-3.302 4.117-9.64 10.316-13.429 13.15-2.21 1.67-4.663 3.704-4.857 4.092-.121.218-.316.315-.413.218-.194-.218.292-.993 3.449-5.57 7.77-11.309 13.624-23.538 16.83-35.186.29-1.065.63-2.276.752-2.664.437-1.55 1.651-7.87 2.04-10.534 1.311-9.468 1.311-19.106-.024-28.938-.316-2.47-.923-5.739-2.283-12.35-.146-.678-.753-2.906-1.36-4.964a575.297 575.297 0 0 1-1.409-4.843c-.17-.606-.68-2.01-1.092-3.149a99.53 99.53 0 0 1-.972-2.784c-.534-1.962-5.95-14.7-7.407-17.412-.34-.654-.558-1.235-.486-1.307.292-.315 5.44 5.303 8.355 9.153 1.408 1.84 4.88 6.95 4.88 7.168 0 .073.365.678.802 1.38 3.279 5.11 7.067 13.416 9.302 20.39 1.117 3.463 1.505 4.214 2.258 4.408.777.194 1.773-.363 2.064-1.187.243-.726-.461-3.196-2.404-8.427-.486-1.308-2.598-6.369-2.817-6.78-.121-.194-.801-1.599-1.554-3.1-6.169-12.568-14.668-23.223-24.407-30.585-2.55-1.937-6.873-4.843-6.994-4.722-.073.097.437 1.09 2.38 4.625 3.157 5.764 6.096 11.648 7.99 15.983.291.654.631 1.404.777 1.67.146.243.656 1.454 1.117 2.664.461 1.211.923 2.3 1.044 2.446.097.121.243.46.316.727.073.266.486 1.404.899 2.542 1.141 3.027 3.35 9.735 3.74 11.334.194.75.63 2.421.97 3.68.754 2.713 1.555 6.37 1.822 8.234.122.726.389 2.421.607 3.753 2.162 13.513 1.7 25.597-1.481 39.23-.801 3.487-1.19 4.844-2.404 8.476a107.203 107.203 0 0 1-4.032 10.364c-1.044 2.3-4.152 8.38-4.88 9.542a60.156 60.156 0 0 0-1.385 2.373c-2.404 4.359-9.229 13.924-14.061 19.687l-2.502 2.979-1.845-.097c-1.02-.073-3.57-.29-5.634-.508-2.065-.218-5.076-.485-6.679-.63-1.603-.121-3.303-.34-3.764-.484-.462-.122-1.676-.243-2.671-.243-.996 0-2.429-.17-3.158-.363-.728-.194-2.088-.363-2.987-.363-.922 0-1.87-.121-2.112-.242-.268-.146-1.336-.363-2.356-.485-1.992-.242-5.391-.726-9.423-1.331-1.335-.218-3.133-.485-4.007-.582-.874-.12-1.967-.339-2.428-.484a6.902 6.902 0 0 0-1.7-.266c-.462 0-1.287-.17-1.822-.364-.534-.193-1.433-.339-1.991-.363-.559 0-1.311-.12-1.7-.266-.364-.145-1.384-.363-2.259-.484-.874-.097-2.282-.388-3.157-.582-.874-.218-2.185-.484-2.914-.58-.728-.098-1.651-.316-2.016-.461-.388-.17-1.02-.29-1.432-.29-.413 0-1.312-.146-1.992-.34a63.654 63.654 0 0 0-3.06-.75c-.995-.218-2.21-.485-2.671-.606-.461-.12-1.384-.314-2.064-.484a170.058 170.058 0 0 1-5.222-1.235c-.461-.097-1.505-.363-2.307-.557-.801-.17-1.773-.46-2.137-.605-.388-.146-.947-.267-1.287-.267-.316 0-.777-.097-1.02-.242-.413-.218-4.347-1.283-6.363-1.72-.582-.12-1.19-.338-1.311-.46-.146-.145-.559-.242-.947-.242-.364 0-.923-.12-1.214-.29-.51-.267-1.215-.46-3.327-.969-.608-.145-1.19-.339-1.336-.436-.122-.097-.656-.266-1.19-.339-.51-.097-1.117-.266-1.336-.387-.218-.097-1.53-.533-2.938-.969-1.409-.411-2.915-.92-3.352-1.114-.437-.193-1.044-.339-1.335-.339-.316 0-.656-.097-.802-.218-.121-.097-.825-.387-1.554-.63-.729-.217-1.7-.58-2.137-.75-.437-.194-.996-.339-1.214-.339-.243 0-.656-.17-.923-.363-.243-.194-.656-.364-.874-.364-.365 0-1.53-.435-2.623-.968a5.753 5.753 0 0 0-1.166-.34c-.413-.096-.826-.29-.899-.41-.097-.122-.315-.219-.534-.219-.194 0-.704-.145-1.117-.339-.437-.17-1.263-.508-1.87-.75a72.022 72.022 0 0 1-3.206-1.357c-2.647-1.307-5.027-1.404-6.362-.314-.777.653-.85.799-.85 2.082-.025.775.073 1.405.17 1.405.121 0 .34.242.461.557.389.823 3.157 2.058 11.973 5.424 2.914 1.09 3.278 1.235 5.464 1.962 1.214.411 2.963 1.017 3.886 1.331 2.137.751 8.014 2.616 9.957 3.173.8.242 2.33.702 3.4 1.017 1.068.339 2.428.75 3.035.92.607.194 2.793.8 4.857 1.332 2.064.557 4.323 1.162 4.979 1.356 1.335.387 4.055 1.066 10.078 2.518 3.667.872 5.756 1.332 10.564 2.374.947.193 2.404.508 3.279.702 4.25.944 15.81 3.124 18.578 3.511.923.121 1.87.267 2.088.34.51.169 11.171 1.767 16.126 2.42 6.24.848 14.595 1.793 17.85 2.06 1.53.145 3.06.29 3.4.362.34.073 2.04.218 3.763.364 1.749.12 6.217.436 9.957.702 3.74.266 8.743.557 11.123.63 2.356.096 4.298.266 4.298.387s9.302.218 22.1.218c12.677 0 22.1-.097 22.1-.218s1.894-.29 4.2-.363a563.73 563.73 0 0 0 9.763-.509c5.295-.339 7.164-.484 14.086-1.114 1.603-.145 4.007-.363 5.343-.46 2.622-.242 13.308-1.453 17.85-2.058 5.439-.702 16.149-2.276 16.562-2.422.17-.048 1.141-.218 2.137-.339.995-.145 3.691-.58 5.95-.993a676.84 676.84 0 0 1 5.682-.992c.85-.122 1.627-.267 1.725-.34.097-.072.874-.217 1.724-.339 1.603-.242 9.981-1.937 15.154-3.075 1.603-.339 3.57-.775 4.371-.944.802-.17 1.894-.412 2.429-.557.534-.146 2.234-.533 3.764-.896 1.53-.34 3.351-.775 4.007-.969.68-.194 3.4-.872 6.071-1.55 2.672-.654 5.683-1.404 6.679-1.695.995-.266 3.035-.823 4.492-1.21 1.482-.388 4.42-1.236 6.557-1.841 2.137-.63 4.323-1.26 4.857-1.405.535-.12 1.36-.363 1.822-.557.461-.17 1.845-.605 3.035-.944 3.838-1.138 8.355-2.567 15.422-4.892 3.57-1.186 4.104-1.428 4.93-2.276.752-.823.898-1.138.898-2.034 0-1.163-.583-1.986-1.797-2.64-.704-.363-3.449-.266-3.886.121-.145.121-.461.218-.728.218-.292 0-.802.146-1.166.34-.364.193-.996.411-1.433.508-.461.097-.971.266-1.19.387-.194.097-1.505.533-2.914.969a53.99 53.99 0 0 0-3.327 1.09c-.413.193-.899.339-1.093.339-.17 0-.923.218-1.651.508-.729.267-1.725.606-2.186.702-.461.097-1.166.315-1.579.46-.388.122-1.87.582-3.278.993-1.409.412-2.793.848-3.109.993a3.649 3.649 0 0 1-1.092.218c-.292 0-.85.17-1.239.363-.364.194-.826.364-1.02.364-.17 0-.85.17-1.481.363-1.555.484-4.347 1.283-7.723 2.18-2.89.774-3.424.92-4.493 1.21-1.554.46-3.133.848-4.25 1.066-.534.12-1.627.387-2.428.63-2.089.58-4.177 1.09-5.586 1.307-.655.121-1.481.315-1.821.46-.34.121-1.482.412-2.55.654-1.069.218-2.477.557-3.133.75-.631.194-1.53.34-1.943.34-.437 0-.874.097-1.02.242-.121.12-.898.339-1.675.46-.802.145-1.943.339-2.55.484-.607.121-1.749.34-2.55.509-.802.145-1.967.436-2.574.63-.632.193-1.603.338-2.186.338-.583.025-1.336.17-1.676.364-.34.193-1.141.339-1.773.363-.655 0-1.384.121-1.627.242-.461.242-2.137.557-5.1.969-.874.097-1.894.315-2.258.46-.389.145-1.19.266-1.822.266-.63.024-1.578.17-2.112.363-.535.194-1.36.364-1.822.364-.461 0-1.238.12-1.7.266-.461.121-1.603.34-2.55.46-2.865.34-5.512.727-6.8.993-.655.121-2.137.34-3.278.484-5.1.582-6.168.727-6.581.945-.243.145-1.239.242-2.21.242-.972 0-2.38.17-3.109.363-.728.194-2.161.363-3.157.363-.995 0-2.598.17-3.521.364-.947.193-2.404.363-3.254.363-.85 0-2.235.121-3.036.242-1.87.315-6.363.678-11.73.944-2.283.122-4.371.34-4.614.485-.34.194-.194.242.801.266 1.409 0 13.503-.92 14.426-1.09.34-.072 1.481-.193 2.55-.242a129.52 129.52 0 0 0 4.007-.363c1.141-.145 3.06-.363 4.25-.484 1.214-.121 3.497-.412 5.1-.606 1.602-.218 3.4-.436 4.007-.508.607-.073 1.87-.218 2.793-.363.947-.122 2.55-.34 3.618-.46 1.967-.218 3.934-.51 11.803-1.793.34-.048 1.165-.169 1.821-.266.68-.073 2.04-.29 3.036-.484.995-.194 3.132-.557 4.735-.848 5.052-.872 8.209-1.453 9.957-1.84 2.89-.606 10.127-2.059 11.511-2.3.729-.146 1.385-.291 1.482-.34.145-.097 2.283-.58 7.407-1.695.801-.17 1.894-.436 2.428-.581.535-.145 2.186-.533 3.643-.872 1.481-.339 3.23-.775 3.934-.993.705-.218 1.506-.339 1.822-.29.655.12.485.17-5.635 1.622-2.33.557-4.857 1.163-5.585 1.356-1.433.364-4.129.993-5.707 1.332-3.036.654-4.784 1.041-6.071 1.356-.802.194-3.158.654-5.222 1.066-3.57.678-6.022 1.162-8.5 1.695-.607.121-2.355.46-3.885.702-1.53.267-3.449.606-4.25.75-9.131 1.623-18.675 3.028-31.328 4.602-3.084.387-6.266.726-10.321 1.114-6.776.63-8.791.799-13.964 1.186-2.793.194-5.489.412-5.95.485-1.749.266-24.115 1.09-24.795.92-1.093-.29 0-.557 2.283-.557 3.52 0 19.403-.726 21.42-.969 1.19-.145-.074-.193-4.13-.12-3.205.048-6.314.217-6.92.338-.608.146-3.643.242-6.752.267-5.003 0-5.658-.049-5.804-.388-.073-.218-.049-.533.073-.702.777-1.017 2.185-3.27 2.963-4.77 4.104-7.847 6.07-16.225 6.605-28.115.122-3.124.194-5.982.122-6.37-.049-.387-.17-2.784-.243-5.303-.073-2.542-.243-5.52-.365-6.659-.121-1.138-.412-3.584-.607-5.449-.218-1.864-.485-3.947-.631-4.6a65.504 65.504 0 0 1-.462-3.028c-.218-1.913-.971-6.514-1.578-9.807-1.069-5.86-1.166-6.756-.996-8.936.559-8.137 3.643-15.28 12.167-28.236a762.846 762.846 0 0 0 5.634-8.718c4.177-6.61 9.617-14.747 14.984-22.472 5.853-8.452 7.771-11.236 8.014-11.624.292-.484.025-.339-.607.34zM185.98 96.206c2.307 10.292 2.963 17.847 2.793 31.965-.122 10.51-.875 23.998-1.506 27.074-.194.896-.194.896-1.676 1.09-1.943.241-28.875-.219-30.793-.533-.802-.122-3.255-.243-5.465-.243-4.614-.024-5.1-.12-5.1-.847 0-.363.438-.775 1.53-1.429 6.363-3.85 16.466-11.938 21.42-17.145 5.464-5.763 9.617-11.624 12.41-17.532 1.991-4.262 2.477-5.594 3.885-11.019.705-2.736 1.555-8.645 1.555-10.8 0-2.64.412-2.906.947-.581zM4.01 125.628c.438.315.39.34-.485.364-.801 0-.898-.049-.631-.364.364-.46.51-.46 1.117 0zm365.833-.12c.486.29.316.387-1.093.556l-1.214.146.85-.46c.996-.533.996-.533 1.457-.243zm-2.671.968c-.195.121-.583.218-.85.218h-.486l.486-.218c.267-.121.655-.218.85-.218.315-.024.315 0 0 .218zm-2.186.726a1.932 1.932 0 0 1-.85.243c-.413 0-.413-.049-.122-.243.195-.12.583-.242.85-.242.413 0 .413.049.122.242zm-1.967.582c-.219.218-5.416 1.816-5.537 1.695-.073-.073.097-.17.34-.242a72.122 72.122 0 0 0 2.55-.824c1.918-.63 2.89-.872 2.647-.63zm-6.29 2.058c-.194.121-.68.266-1.093.339l-.728.145.728-.339c.826-.387 1.749-.508 1.093-.145zm-1.967.605c-.122.121-11.05 3.463-12.361 3.778-.462.121-.875.17-.923.145-.097-.097.947-.484 2.744-.968 1.821-.509 4.639-1.356 7.65-2.3 2.186-.679 3.133-.897 2.89-.655zm-336.326.872c.437.29.049.29-.607 0-.316-.145-.364-.218-.121-.218.194 0 .534.097.728.218zm2.186.727c.316.218.316.242 0 .242-.194 0-.534-.121-.729-.242-.315-.218-.315-.243 0-.243.195 0 .535.122.729.243zm2.186.726c.315.218.315.242 0 .242-.195 0-.535-.12-.729-.242-.316-.218-.316-.242 0-.242.194 0 .534.121.729.242zm1.335.484c.316.146.365.218.122.218-.195 0-.535-.097-.729-.218-.437-.29-.048-.29.607 0zm2.307.751c.656.363-.267.242-1.092-.145l-.729-.34.729.146c.412.073.898.218 1.092.34zm3.279.969c.874.29 1.554.58 1.481.63-.097.12-3.545-.897-3.545-1.042 0-.194.51-.097 2.064.412zm311.385-.363c-.073.096-.559.242-1.069.339-.51.096-3.06.799-5.658 1.525-6.897 1.962-9.326 2.591-9.715 2.591-.51-.024.753-.702 1.288-.726.364 0 1.918-.388 6.362-1.574 2.38-.654 3.91-1.09 5.707-1.647 1.749-.557 3.4-.823 3.085-.508zM32.886 136.04l.728.34-.728-.146c-.389-.073-.899-.218-1.093-.339-.656-.363.267-.242 1.093.145zm2.55.751c.607.363.607.363-.243.194-1.166-.218-1.773-.557-.971-.557a2.6 2.6 0 0 1 1.214.363zm2.696.678c.582.194 1.87.581 2.84.872.997.29 1.75.581 1.677.63-.122.145-6.217-1.502-6.436-1.72-.243-.242.85-.121 1.919.218zm6.29 1.84c.46.122 2.55.678 4.614 1.211 3.715 1.017 4.37 1.163 8.62 2.155 1.215.291 2.794.679 3.522.848 1.603.412 4.784 1.114 8.257 1.84 1.409.291 3.109.678 3.789.872.68.194 1.481.34 1.772.34.292 0 1.215.169 2.04.362.826.194 3.036.63 4.906.97l5.343.968c1.068.193 3.643.63 5.707.968 2.064.34 4.76.775 5.95.993 1.214.194 3.06.46 4.128.581 1.069.146 2.599.34 3.4.46.801.146 2.04.315 2.769.388.728.073 2.477.29 3.885.484 1.409.194 3.06.412 3.667.485.607.072 2.453.29 4.129.484 1.675.194 3.958.436 5.1.484 1.141.073 3.497.29 5.22.485 2.575.266 5.684.508 7.845.605.17 0 .243.121.146.266-.243.388-4.42.121-13.94-.847-5.221-.557-9.957-1.09-10.928-1.235-.462-.049-2.162-.29-3.764-.485-6.703-.871-16.733-2.421-21.979-3.39a200.4 200.4 0 0 0-3.885-.702c-1.142-.218-3.206-.605-4.614-.896-1.409-.266-3.303-.654-4.25-.823-2.866-.557-8.646-1.792-10.686-2.3a308.42 308.42 0 0 0-4.614-1.09c-1.457-.34-3.764-.897-5.1-1.26a128.99 128.99 0 0 0-3.278-.799c-.462-.097-2.113-.533-3.643-.969-1.53-.411-3.254-.871-3.837-.992-1.166-.243-2.137-.679-1.506-.679.194 0 .753.097 1.214.218zm111.833 17.073c4.274.193 13.04.436 19.5.532 6.46.073 11.585.243 11.415.34-.413.266-16.976.242-24.237-.025-18.238-.678-19.574-.775-19.282-1.259.097-.17.947-.194 2.501-.097 1.287.097 5.828.315 10.103.509z" fill="#FFF" fill-rule="nonzero"/><path d="M183.091 32.557c-.073-.122-.318-.244-.513-.244-.611 0-2.737-1.703-3.592-2.871-1.222-1.728-1.76-2.896-2.395-5.305-1.49-5.743-.098-12.094 3.47-15.672 1.882-1.898 3.25-2.53 5.767-2.628 1.857-.097 2.102-.048 3.617.706 2.786 1.363 4.96 4.307 6.133 8.347.563 1.946.563 6.935 0 9.15-.928 3.723-3.299 7.032-5.816 8.225-.977.438-1.588.535-3.836.535-1.54 0-2.737-.097-2.835-.243zm4.448-.317c.44-.243.22-.292-1.54-.292-1.857 0-2.004.025-1.393.292.88.39 2.248.39 2.933 0zm.586-2.628c1.857-.925 3.52-3.577 4.228-6.716 1.295-5.768-.953-12.022-5.083-14.114l-1.198-.609-1.27.633c-2.444 1.192-4.375 4.064-5.108 7.544-.513 2.433-.488 4.161.074 6.594.88 3.918 2.932 6.595 5.498 7.18.904.218 1.686.072 2.86-.512zm-.88-21.877c-.268-.121-.806-.219-1.221-.219-.391 0-.954.098-1.222.22-.342.145.049.218 1.222.218s1.564-.073 1.221-.219z" fill="#C30707" fill-rule="nonzero"/></g></svg>