<svg width="310" height="99" viewBox="0 0 310 99" xmlns="http://www.w3.org/2000/svg"><g fill="none" fill-rule="evenodd"><path d="M141.863 79.198c1.438 1.15 4.77 1.724 9.996 1.724 1.052 0 2.484 2.647 3.641 2.6.667-.027.737-2.448 1.616-2.6.593-.102 1.96 2.8 2.138 2.6 1.597-1.801 5.65-3.243 12.158-4.324" stroke="#13A89E" stroke-linecap="square"/><path d="M149.415 65.74c.16.027.273.043.327.044.876.016-.54-.027-.034-.003.388.018 2.92.736 3.734.815.447.043.878-.387 1.091-.393.064-.001.265.01.623 0-.49-.37-1.216-.992-1.29-1.069-.284-.224-.584-.437-.88-.649-.22-.164-.458-.32-.68-.49a1.442 1.442 0 0 1-.442-.569 1.378 1.378 0 0 1 .051-1.13c.133-.335.293-.664.393-1.01.308-1.073.58-2.158.907-3.229.213-.7.477-1.388.748-2.07.107-.273.32-.507.163-.827-.03-.07.008-.152.02-.229.04-.703.069-1.41.117-2.113.03-.427.084-.851.137-1.364.91 1.447 2.133 2.586 3.09 3.835-.202.296.024.724-.13.994-.11.192-.26 2.161-.19 2.674-.149 1.197-.469 3.227-.566 3.395-.214.372-.377.607-.404 1.028-.011.556.24.521.776.734.125.029 1.77.827 1.883.885.231.154.721.306 1.19.413.343-.14.8-.36 1.371-.658.352-.108.463-.16.334-.153.011-.37-.205-.33-.458-.477-.607-.352-1.227-.685-1.837-1.034-.267-.155-.523-.326-.791-.494.01-.117.01-.207.026-.294.239-1.266.411-2.544.679-3.808.263-.947.427-1.917.49-2.895a4.19 4.19 0 0 0-.267-1.593c-.488-1.223-.96-2.45-1.46-3.666-.282-.688-.617-1.348-.91-2.038-.176-.404-.324-.82-.484-1.232a1.23 1.23 0 0 1 .113-1.077c.41-.78.82-1.58 1.186-2.364.366-.784.694-1.586 1.055-2.42.643.255 1.277.491 1.899.757a8.46 8.46 0 0 0 2.074.731c.53.06 1.064.086 1.597.083.671.015 1.341-.003 2.012.009.218.004.433.066.653.085a6.199 6.199 0 0 0 2.244-.031c.161-.016.325.002.48.053.43.08.854.199 1.289.247.413.047.83-.033 1.187-.23.122-.055.25-.099.382-.132.166-.06.332-.142.366-.329.057-.316.173-.277-.182-.544a1.608 1.608 0 0 0-.931-.35 7.842 7.842 0 0 1-.929-.16 1.465 1.465 0 0 0-.802.068c-.324.109-.674.136-1.015.077-.899-.074-1.792-.199-2.677-.37a18.318 18.318 0 0 0-2.603-.328c-.33 0-.656.033-.977.1a.672.672 0 0 1-.618-.205c-.348-.33-.715-.64-1.1-.927a1.622 1.622 0 0 0-.383-.23 2.158 2.158 0 0 1-.863-.626 5.435 5.435 0 0 0-1.881-1.36c-.17-.08-.327-.186-.495-.285l-.024-.708c.537-.26.894-.757.95-1.322.098-.48.177-.958.22-1.452a2.236 2.236 0 0 0-.277-1.5.585.585 0 0 1-.049-.152l-.09.049-.137.441a.384.384 0 0 1-.044-.389c.063-.204-.03-.307-.221-.395-.563-.294-1.266-.167-1.665.302-.218.215-.371.48-.444.77-.07.314-.174.62-.239.936-.062.41-.005.83.166 1.215.065.162.12.333.183.514l-.362.348a5.577 5.577 0 0 1-.538-1.06 4.81 4.81 0 0 1-.056-1.153c-.007-.54-.007-1.08.002-1.62a1.222 1.222 0 0 1 .08-.521c.176-.333.375-.655.597-.962.503-.69 1.01-1.37 1.508-2.059.183-.255.328-.533.51-.786.157-.22.343-.425.519-.636.016-.019.045-.044.066-.043.365.032.569-.233.779-.43a3.5 3.5 0 0 0 .845-.885c-.12-.234-.312-.066-.502-.135.142-.292.287-.574.429-.857a1.51 1.51 0 0 0 .154-.344c.073-.342-.156-.56-.518-.462a2.1 2.1 0 0 0-1.144.711c-.308.407-.57.842-.785 1.3a2.762 2.762 0 0 1-.769 1.058c-.97.772-1.907 1.576-2.86 2.36a3.97 3.97 0 0 0-1.02 1.33 1.702 1.702 0 0 0-.173.815c.013.682-.021 1.366-.003 2.048.02.823.08 1.647.102 2.47.016.488.012.971-.014 1.467a4.46 4.46 0 0 1-.14.72c-.233 1.042-.456 2.09-.705 3.131-.232.964-.488 1.921-.737 2.882-.23.885-.486 1.763-.692 2.654a6.056 6.056 0 0 0-.143 1.305c-.006.593.02 1.185.079 1.775.067.704.184 1.403.274 2.107.109.401.109.82-.001 1.22-.192.466-.383.932-.6 1.391-.606 1.308-1.192 2.623-1.837 3.914-.316.569-.663 1.121-1.039 1.656-.04.066-.092.127-.135.193a26.37 26.37 0 0 1-1.897 2.458 9.744 9.744 0 0 1-2.154 1.744c-.057-.099.34-.07.962.026a14.837 14.837 0 0 0 2.447-2.48 26.35 26.35 0 0 0 2.397-3.387c.661-1.082 1.245-2.206 1.848-3.319.218-.404.396-.826.615-1.286.035.294.049.53.091.765a2.32 2.32 0 0 1-.247 1.517 9.493 9.493 0 0 0-.57 1.47 5.282 5.282 0 0 0-.153 1.958c.055.934.079 1.873.117 2.817.05.319.033.642-.051.952a5.171 5.171 0 0 0-.61 2.027l-.703-.045z" fill="#FFF" fill-rule="nonzero"/><path d="M179.5 60.848v-5h1v5h4l-4.5 9-4.5-9h4zm1-31.598v2.598h-1V29.25h-4l4.5-9 4.5 9h-4zm0 22.598h-1v-6h1v6zm0-10h-1v-6h1v6zM9.254 20.25h8v1h-8v4l-9-4.5 9-4.5v4zm291.746 1h-4.746v-1H301v-4l9 4.5-9 4.5v-4zm-274.746 0v-1h9v1h-9zm18 0v-1h9v1h-9zm18 0v-1h9v1h-9zm18 0v-1h9v1h-9zm18 0v-1h9v1h-9zm18 0v-1h9v1h-9zm18 0v-1h9v1h-9zm18 0v-1h9v1h-9zm18 0v-1h9v1h-9zm18 0v-1h9v1h-9zm18 0v-1h9v1h-9zm18 0v-1h9v1h-9zm18 0v-1h9v1h-9zm18 0v-1h9v1h-9zm18 0v-1h9v1h-9z" fill="#13A89E" fill-rule="nonzero"/><g stroke="#FFF" stroke-linecap="square"><path d="M1 22c9.958 14.077 17.676 21.922 23.155 23.534 5.479 1.612 15.76-.959 30.845-7.713M55 38c10.68 14.075 18.802 21.92 24.368 23.532 5.567 1.614 15.777-.948 30.632-7.683M199.537 53.779c15.786 5.389 26.437 7.482 31.955 6.28 5.518-1.203 12.878-8.526 22.08-21.971M253.996 38.779c15.907 5.183 26.62 7.174 32.138 5.971 5.517-1.203 12.955-8.774 22.312-22.715M110 54c9.344 11.336 16.225 17.824 20.641 19.465 4.417 1.641 12.536-.494 24.359-6.404M154.295 67.51c12.331 5.037 20.77 7.054 25.315 6.053 4.545-1.001 11.122-7.53 19.733-19.584"/><path d="M1 21.582L154.497 67l153.616-45.418"/></g><text font-family="Metropolis-Medium, Metropolis" font-size="11" font-weight="400" fill="#13A89E" transform="translate(0 -2)"><tspan x="142" y="11">Length</tspan></text><text font-family="Metropolis-Medium, Metropolis" font-size="11" font-weight="400" fill="#13A89E" transform="translate(0 -2)"><tspan x="185" y="51">Sag</tspan></text><text font-family="Metropolis-Medium, Metropolis" font-size="11" font-weight="400" fill="#13A89E" transform="translate(0 -2)"><tspan x="138" y="99">Weight</tspan></text></g></svg>