<svg width="202" height="168" viewBox="0 0 202 168" xmlns="http://www.w3.org/2000/svg" xmlns:xlink="http://www.w3.org/1999/xlink"><defs><filter x="-7.3%" y="-6.5%" width="114.7%" height="117.5%" filterUnits="objectBoundingBox" id="a"><feMorphology radius=".5" operator="dilate" in="SourceAlpha" result="shadowSpreadOuter1"/><feOffset dy="2" in="shadowSpreadOuter1" result="shadowOffsetOuter1"/><feMorphology radius="1" in="SourceAlpha" result="shadowInner"/><feOffset dy="2" in="shadowInner" result="shadowInner"/><feComposite in="shadowOffsetOuter1" in2="shadowInner" operator="out" result="shadowOffsetOuter1"/><feGaussianBlur stdDeviation="2" in="shadowOffsetOuter1" result="shadowBlurOuter1"/><feColorMatrix values="0 0 0 0 0 0 0 0 0 0 0 0 0 0 0 0 0 0 0.5 0" in="shadowBlurOuter1"/></filter><path d="M144.5 117.5l-105-88" id="b"/></defs><g transform="translate(0 -2)" fill="none" fill-rule="evenodd"><circle fill="#FFF" cx="29.5" cy="22.5" r="6.5"/><g transform="translate(0 121)" fill="#FFF"><circle cx="29.5" cy="6.5" r="6.5"/><text font-family="Metropolis-Bold, Metropolis" font-size="9" font-weight="bold"><tspan x="0" y="24">Close Anchor</tspan></text></g><path d="M74.525 135l4.052 9.21-3.97-.194c-.005 7.475 1.104 12.536 3.278 15.165 2.953 3.57 7.18 5.846 12.702 6.827l.493.087-.175.985-.492-.088c-5.746-1.02-10.186-3.41-13.298-7.173-2.417-2.923-3.569-8.374-3.506-16.374l-.003.521-4.018-.197L74.525 135z" fill="#FFF" fill-rule="nonzero"/><text font-family="Metropolis-Bold, Metropolis" font-size="9" font-weight="bold" fill="#FFF"><tspan x="5" y="9">Far Anchor</tspan></text><text transform="rotate(-90 39.5 82)" font-family="Metropolis-Bold, Metropolis" font-size="8" font-weight="bold" fill="#FFF"><tspan x="31" y="85">Line</tspan></text><path stroke="#FFF" stroke-linecap="square" d="M29.5 29.5v95"/><text font-family="Metropolis-Bold, Metropolis" font-size="9" font-weight="bold" fill="#FFF"><tspan x="99" y="169">Known Distance</tspan></text><text font-family="Metropolis-Bold, Metropolis" font-size="6" font-weight="bold" fill="#FFF"><tspan x="108.291" y="82">Measuring the length</tspan></text><text font-family="LucidaGrande-Bold, Lucida Grande" font-size="6" font-weight="bold" fill="#FFF" transform="translate(131 117)"><tspan x="2" y="7">α</tspan></text><path d="M139.037 117.012c-3.003-.13-5.17.796-6.5 2.778-1.909 2.843-1.5 6.222-1.5 6.222" stroke="#FFF" stroke-linecap="square"/><text font-family="LucidaGrande-Bold, Lucida Grande" font-size="6" font-weight="bold" fill="#FFF" transform="rotate(-156 23.9 17.6)"><tspan x="2" y="7">α</tspan></text><path d="M31.24 40.118c2.69 1.34 5.047 1.376 7.068.106 2.9-1.82 3.901-5.074 3.901-5.074" stroke="#FFF" stroke-linecap="square"/><g opacity=".753" stroke-linecap="square" stroke-dasharray="1,2"><use fill="#000" filter="url(#a)" xlink:href="#b"/><use stroke="#979797" xlink:href="#b"/></g><g transform="translate(102 122)" fill="#FFF"><circle cx="49.5" cy="6.5" r="6.5"/><text font-family="Metropolis-Bold, Metropolis" font-size="9" font-weight="bold"><tspan x="19" y="22">Camera (You)</tspan></text><text opacity=".858" font-family="Metropolis-Bold, Metropolis" font-size="6" font-weight="bold"><tspan x=".161" y="30">(Standing on the measured point)</tspan></text></g><path stroke="#13A89E" opacity=".481" stroke-linecap="square" stroke-dasharray="2" d="M39.16 128.051l100.34.45"/><g transform="translate(131 7)"><text font-family="Metropolis-Bold, Metropolis" font-size="8" font-weight="bold" fill="#13A89E"><tspan x="1.668" y="19">STEP 3</tspan></text><circle stroke="#13A89E" cx="15.5" cy="15.5" r="15.5"/></g><path d="M90.617 58.679l9.787 2.337-2.572 3.064 10.673 8.956-.643.766-10.673-8.956-2.57 3.065-4.002-9.232z" fill="#FFF" fill-rule="nonzero"/><path d="M90.114 59.182l9.808 2.248-2.543 3.087 10.825 8.915-.636.772-10.825-8.915-2.542 3.088-4.087-9.195z" fill="#FFF" fill-rule="nonzero"/></g></svg>