<svg width="218" height="205" viewBox="0 0 218 205" xmlns="http://www.w3.org/2000/svg" xmlns:xlink="http://www.w3.org/1999/xlink"><defs><filter x="-10.2%" y="-3.8%" width="120.5%" height="110.3%" filterUnits="objectBoundingBox" id="a"><feMorphology radius=".5" operator="dilate" in="SourceAlpha" result="shadowSpreadOuter1"/><feOffset dy="2" in="shadowSpreadOuter1" result="shadowOffsetOuter1"/><feMorphology radius="1" in="SourceAlpha" result="shadowInner"/><feOffset dy="2" in="shadowInner" result="shadowInner"/><feComposite in="shadowOffsetOuter1" in2="shadowInner" operator="out" result="shadowOffsetOuter1"/><feGaussianBlur stdDeviation="2" in="shadowOffsetOuter1" result="shadowBlurOuter1"/><feColorMatrix values="0 0 0 0 0 0 0 0 0 0 0 0 0 0 0 0 0 0 0.5 0" in="shadowBlurOuter1"/></filter><path d="M159.5 178.5l-75-149" id="b"/></defs><g transform="translate(0 -2)" fill="none" fill-rule="evenodd"><g opacity=".753" stroke-linecap="square" stroke-dasharray="1,2"><use fill="#000" filter="url(#a)" xlink:href="#b"/><use stroke="#979797" xlink:href="#b"/></g><circle fill="#FFF" cx="77.5" cy="22.5" r="6.5"/><circle fill="#FFF" cx="77.5" cy="187.5" r="6.5"/><circle fill="#FFF" cx="165.5" cy="188.5" r="6.5"/><path d="M131.479 158.618c3.925-3.306 7.955-4.52 12.052-3.606l.488.109-.217.976-.488-.109c-3.773-.84-7.491.28-11.191 3.394-2.7 2.274-4.382 6.984-4.992 14.133l3.969.102-4.727 8.883-4.27-9.111 4.026.101.002-.023c.614-7.239 2.312-12.13 5.144-14.672zM69.901 157.305c4.779-2.195 9.642-2.995 14.582-2.394l.496.06-.12.993-.497-.06c-4.753-.578-9.43.19-14.043 2.31-2.624 1.206-4.437 3.395-5.448 6.602l3.865.373-5.343 8.526-3.615-9.39 4.077.393c1.078-3.574 3.097-6.057 6.046-7.413z" fill="#FFF" fill-rule="nonzero"/><text font-family="Metropolis-Bold, Metropolis" font-size="9" font-weight="bold" fill="#FFF"><tspan x="53" y="9">Far Anchor</tspan></text><text font-family="Metropolis-Bold, Metropolis" font-size="9" font-weight="bold" fill="#FFF"><tspan x="48" y="205">Close Anchor</tspan></text><text transform="rotate(-90 64.5 103)" font-family="Metropolis-Bold, Metropolis" font-size="12" font-weight="bold" fill="#FFF"><tspan x="52" y="108">Line</tspan></text><path d="M77.5 29.5v155" stroke="#FFF" stroke-linecap="square"/><text font-family="Metropolis-Bold, Metropolis" font-size="9" font-weight="bold" fill="#FFF"><tspan x="142" y="205">Camera (You)</tspan></text><text font-family="Metropolis-Bold, Metropolis" font-size="9" font-weight="bold" fill="#FFF"><tspan x="147" y="159">Known Distance</tspan></text><text font-family="Metropolis-Bold, Metropolis" font-size="6" font-weight="bold" fill="#FFF"><tspan x="131" y="83">Then, looking towards</tspan> <tspan x="131" y="90">the far anchor </tspan></text><text font-family="LucidaGrande-Bold, Lucida Grande" font-size="6" font-weight="bold" fill="#FFF"><tspan x="153" y="185">ฮฑ</tspan></text><text font-family="Metropolis-Bold, Metropolis" font-size="9" font-weight="bold" fill="#FFF"><tspan x="0" y="156">90</tspan> <tspan x="12.141" y="156" font-family="LucidaGrande-Bold, Lucida Grande">ยบ</tspan> <tspan x="16.478" y="156"> degrees</tspan></text><path d="M87.16 188.051h69.296" stroke="#13A89E" opacity=".481" stroke-linecap="square" stroke-dasharray="2"/><path d="M117.295 75.044l7.797 6.36-3.648 1.641 5.717 12.706-.912.41-5.717-12.705-3.648 1.642.41-10.054z" fill="#FFF" fill-rule="nonzero"/><path d="M80.15 178.278l9.347.014M90.823 180.611v6.348" stroke="#13A89E" opacity=".481" stroke-linecap="square" stroke-dasharray="2"/><path d="M158.037 178.012c-3.003-.13-5.17.796-6.5 2.778-1.909 2.843-1.5 6.222-1.5 6.222" stroke="#FFF" stroke-linecap="square"/></g></svg>