<svg width="202" height="168" viewBox="0 0 202 168" xmlns="http://www.w3.org/2000/svg"><g transform="translate(0 -2)" fill="none" fill-rule="evenodd"><circle fill="#FFF" cx="29.5" cy="22.5" r="6.5"/><g transform="translate(0 121)" fill="#FFF"><circle cx="29.5" cy="6.5" r="6.5"/><text font-family="Metropolis-Bold, Metropolis" font-size="9" font-weight="bold"><tspan x="0" y="24">Close Anchor</tspan></text></g><path d="M77.525 134l4.052 9.21-3.97-.194c-.005 7.475 1.104 12.536 3.278 15.165 2.953 3.57 7.18 5.846 12.702 6.827l.493.087-.175.985-.492-.088c-5.746-1.02-10.186-3.41-13.298-7.173-2.417-2.923-3.569-8.374-3.506-16.374l-.003.521-4.018-.197L77.525 134z" fill="#FFF" fill-rule="nonzero"/><text font-family="Metropolis-Bold, Metropolis" font-size="9" font-weight="bold" fill="#FFF"><tspan x="5" y="9">Far Anchor</tspan></text><text transform="rotate(-90 39.5 82)" font-family="Metropolis-Bold, Metropolis" font-size="8" font-weight="bold" fill="#FFF"><tspan x="31" y="85">Line</tspan></text><path stroke="#FFF" stroke-linecap="square" d="M29.5 29.5v95"/><text font-family="Metropolis-Bold, Metropolis" font-size="9" font-weight="bold" fill="#FFF"><tspan x="99" y="169">Known Distance</tspan></text><text font-family="Metropolis-Bold, Metropolis" font-size="6" font-weight="bold" fill="#FFF"><tspan x="58.035" y="107">Looking to the close anchor</tspan></text><g transform="translate(102 122)" fill="#FFF"><circle cx="49.5" cy="6.5" r="6.5"/><text font-family="Metropolis-Bold, Metropolis" font-size="9" font-weight="bold"><tspan x="19" y="22">Camera (You)</tspan></text><text opacity=".858" font-family="Metropolis-Bold, Metropolis" font-size="6" font-weight="bold"><tspan x=".161" y="30">(Standing on the measured point)</tspan></text></g><path stroke="#13A89E" opacity=".481" stroke-linecap="square" stroke-dasharray="2" d="M39.16 128.051l100.34.45"/><g transform="translate(148 19)"><text font-family="Metropolis-Bold, Metropolis" font-size="8" font-weight="bold" fill="#13A89E"><tspan x="1.648" y="19">STEP 2</tspan></text><circle stroke="#13A89E" cx="15.5" cy="15.5" r="15.5"/></g><path d="M91 112v4h14v1H91v4l-9-4.5 9-4.5z" fill="#FFF" fill-rule="nonzero"/></g></svg>