<svg width="444" height="131" viewBox="0 0 444 131" xmlns="http://www.w3.org/2000/svg" xmlns:xlink="http://www.w3.org/1999/xlink"><defs><path d="M30.566 23.5H444" id="b"/><filter x="-1.7%" y="-500%" width="103.5%" height="1500%" filterUnits="objectBoundingBox" id="a"><feMorphology radius=".5" operator="dilate" in="SourceAlpha" result="shadowSpreadOuter1"/><feOffset dy="2" in="shadowSpreadOuter1" result="shadowOffsetOuter1"/><feMorphology radius="1" in="SourceAlpha" result="shadowInner"/><feOffset dy="2" in="shadowInner" result="shadowInner"/><feComposite in="shadowOffsetOuter1" in2="shadowInner" operator="out" result="shadowOffsetOuter1"/><feGaussianBlur stdDeviation="2" in="shadowOffsetOuter1" result="shadowBlurOuter1"/><feColorMatrix values="0 0 0 0 0 0 0 0 0 0 0 0 0 0 0 0 0 0 0.5 0" in="shadowBlurOuter1"/></filter><linearGradient x1="50%" y1="50%" y2="50%" id="c"><stop stop-color="#FFF" stop-opacity="0" offset="0%"/><stop stop-color="#FFF" offset="100%"/></linearGradient></defs><g fill="none" fill-rule="evenodd"><path d="M251.98 104.953a22.507 22.507 0 0 1 3.341 3.14c3.221 3.682 4.583 8.012 4.076 12.958l-.051.497-.995-.102.051-.497c.479-4.671-.796-8.726-3.833-12.197a21.681 21.681 0 0 0-2.99-2.847l-1.493 3.542-6.547-7.641 10.041-.653-1.6 3.8zM73.944 67.05c3.09 2.183 5.932 5.245 8.526 9.182 4.652 7.06 6.612 15.335 5.881 24.806l-.038.499-.997-.077.038-.498c.714-9.257-1.193-17.31-5.719-24.18-2.482-3.766-5.183-6.697-8.101-8.797l-1.558 3.551-6.434-7.737 10.05-.505-1.648 3.756zM29.13 48.49c.626-7.424 2.392-12.383 5.349-14.872 3.925-3.306 7.955-4.52 12.052-3.606l.488.109-.217.976-.488-.109c-3.773-.84-7.491.28-11.191 3.394-2.7 2.274-4.382 6.984-4.992 14.134l3.969.1-4.727 8.884-4.27-9.111 4.026.102zM235 129.46v-6.147h.918l3.591 4.662v-4.662h.918v6.148h-.918l-3.59-4.662v4.662H235zm9.1.108c-1.345 0-2.482-1.11-2.482-2.425 0-1.315 1.137-2.416 2.482-2.416 1.336 0 2.464 1.1 2.464 2.416 0 1.316-1.128 2.425-2.464 2.425zm0-.77c.845 0 1.564-.751 1.564-1.655 0-.895-.719-1.646-1.564-1.646-.864 0-1.582.751-1.582 1.646 0 .904.718 1.656 1.582 1.656zm5.718-.17l.327.61c-.254.205-.6.33-.936.33-.727 0-1.236-.519-1.236-1.262v-2.72h-.71v-.752h.71v-1.27h.882v1.27h1.109v.752h-1.11v2.658c0 .322.219.555.482.555.2 0 .382-.072.482-.17zm9.1-3.9c.982 0 1.691.742 1.691 1.789v2.944h-.882v-2.81c0-.68-.409-1.154-1-1.154-.672 0-1.145.438-1.145 1.073v2.89h-.882v-2.809c0-.68-.41-1.154-1-1.154-.673 0-1.145.438-1.145 1.073v2.89h-.9v-4.626h.9v.645c.236-.457.727-.752 1.327-.752.682 0 1.236.358 1.509.93.218-.572.818-.93 1.527-.93zm5.21 4.84c-1.346 0-2.483-1.11-2.483-2.425 0-1.315 1.137-2.416 2.482-2.416 1.337 0 2.464 1.1 2.464 2.416 0 1.316-1.127 2.425-2.464 2.425zm0-.77c.845 0 1.563-.751 1.563-1.655 0-.895-.718-1.646-1.564-1.646-.863 0-1.582.751-1.582 1.646 0 .904.719 1.656 1.582 1.656zm5.081.663l-2.018-4.627h.973l1.463 3.598 1.437-3.598h.972l-1.981 4.627h-.846zm4.127-5.396a.543.543 0 0 1-.545-.537.541.541 0 0 1 1.082 0 .547.547 0 0 1-.537.537zm-.454 5.396v-4.627h.9v4.627h-.9zm4.59-4.734c1.037 0 1.764.743 1.764 1.79v2.944h-.881v-2.792c0-.69-.446-1.172-1.082-1.172-.655 0-1.218.42-1.291.966v2.998h-.9v-4.627h.9v.672c.282-.457.854-.779 1.49-.779zm6.628.107h.9v4.135c0 1.19-.99 2.031-2.382 2.031-.79 0-1.518-.26-1.963-.617l.354-.663c.346.323.91.51 1.473.51 1.009 0 1.618-.474 1.618-1.28v-.67c-.373.528-.955.84-1.664.84-1.236 0-2.136-.912-2.136-2.2 0-1.29.9-2.193 2.136-2.193.71 0 1.31.331 1.664.85v-.743zm-1.436 3.517c.836 0 1.436-.59 1.436-1.432 0-.832-.6-1.422-1.436-1.422-.837 0-1.428.59-1.428 1.422 0 .842.591 1.432 1.428 1.432zM41.458 109.55v-6.232h2.943c1.038 0 1.769.644 1.769 1.551 0 .653-.325 1.061-.885 1.379.722.354 1.137.916 1.137 1.606 0 .998-.794 1.696-1.904 1.696h-3.06zm.912-3.638h1.805c.623 0 1.065-.372 1.065-.889s-.442-.898-1.065-.898H42.37v1.787zm0 2.83h1.94c.695 0 1.183-.425 1.183-1.024s-.488-1.025-1.183-1.025h-1.94v2.05zm7.374.917c-1.336 0-2.464-1.125-2.464-2.458 0-1.334 1.128-2.45 2.464-2.45 1.326 0 2.446 1.116 2.446 2.45 0 1.333-1.12 2.458-2.446 2.458zm0-.78c.839 0 1.552-.762 1.552-1.678 0-.908-.713-1.67-1.552-1.67-.858 0-1.57.762-1.57 1.67 0 .916.712 1.678 1.57 1.678zm5.677-.172l.324.617a1.497 1.497 0 0 1-.93.335c-.721 0-1.227-.526-1.227-1.279v-2.758h-.704v-.762h.704v-1.288h.876v1.288h1.101v.762h-1.101v2.695c0 .326.217.562.478.562.199 0 .38-.073.479-.172zm3.42 0l.325.617a1.497 1.497 0 0 1-.93.335c-.722 0-1.227-.526-1.227-1.279v-2.758h-.704v-.762h.704v-1.288h.875v1.288h1.102v.762h-1.102v2.695c0 .326.217.562.479.562.198 0 .379-.073.478-.172zm3.448.952c-1.336 0-2.464-1.125-2.464-2.458 0-1.334 1.128-2.45 2.464-2.45 1.327 0 2.446 1.116 2.446 2.45 0 1.333-1.12 2.458-2.446 2.458zm0-.78c.84 0 1.552-.762 1.552-1.678 0-.908-.713-1.67-1.552-1.67-.858 0-1.57.762-1.57 1.67 0 .916.712 1.678 1.57 1.678zm8.71-4.128c.974 0 1.678.753 1.678 1.815v2.984H71.8v-2.848c0-.69-.406-1.17-.992-1.17-.668 0-1.138.444-1.138 1.088v2.93h-.875v-2.848c0-.69-.406-1.17-.993-1.17-.668 0-1.137.444-1.137 1.088v2.93h-.893v-4.69h.893v.653c.235-.463.722-.762 1.318-.762.677 0 1.227.363 1.498.944.217-.581.812-.944 1.516-.944zm7.228 4.908a3.256 3.256 0 0 1-1.994-.698l.424-.644c.496.362 1.029.571 1.58.571.523 0 .884-.245.884-.608 0-.435-.478-.571-1.056-.735-1.074-.299-1.607-.608-1.607-1.37-.009-.861.704-1.424 1.697-1.424.605 0 1.219.209 1.724.544l-.397.663c-.451-.282-.92-.436-1.327-.436-.46 0-.821.2-.821.554 0 .363.289.471 1.074.716.767.227 1.588.481 1.588 1.416 0 .889-.749 1.451-1.769 1.451zm3.25-5.58a.545.545 0 0 1-.542-.544c0-.281.235-.535.542-.535.288 0 .532.254.532.535 0 .29-.244.545-.532.545zm-.452 5.471v-4.69h.894v4.69h-.894zm5.776-6.341h.885v6.341H86.8v-.816c-.36.58-.938.925-1.66.925-1.228 0-2.148-1.016-2.148-2.458 0-1.434.92-2.45 2.148-2.45.722 0 1.3.345 1.66.916v-2.458zm-1.444 5.67c.84 0 1.444-.699 1.444-1.678 0-.98-.604-1.67-1.444-1.67-.857 0-1.462.69-1.462 1.67s.605 1.678 1.462 1.678zm5.813-.018c.487 0 1.056-.218 1.335-.508l.56.58c-.415.445-1.227.726-1.886.726-1.3 0-2.401-1.025-2.401-2.467 0-1.407 1.038-2.441 2.328-2.441 1.426 0 2.248 1.089 2.248 2.767H89.68c.117.78.685 1.343 1.489 1.343zm-.027-3.312c-.722 0-1.31.49-1.453 1.252h2.797c-.099-.725-.541-1.252-1.344-1.252zm5.83 4.001v-6.341h.884v6.341h-.884zm4.395.11c-1.336 0-2.464-1.126-2.464-2.46 0-1.333 1.128-2.449 2.464-2.449 1.327 0 2.446 1.116 2.446 2.45 0 1.333-1.12 2.458-2.446 2.458zm0-.781c.84 0 1.553-.762 1.553-1.678 0-.908-.713-1.67-1.553-1.67-.857 0-1.57.762-1.57 1.67 0 .916.713 1.678 1.57 1.678zm5.704.78c-1.336 0-2.464-1.125-2.464-2.458 0-1.334 1.128-2.45 2.464-2.45 1.327 0 2.446 1.116 2.446 2.45 0 1.333-1.12 2.458-2.446 2.458zm0-.78c.84 0 1.553-.762 1.553-1.678 0-.908-.713-1.67-1.553-1.67-.857 0-1.57.762-1.57 1.67 0 .916.713 1.678 1.57 1.678zm7.735-4.02l-2.013 2.124 1.923 2.567h-1.065l-1.462-1.968-.75.762v1.206h-.884v-6.341h.884v4.046l2.284-2.395h1.083zm1.182-.78a.545.545 0 0 1-.541-.544c0-.281.234-.535.541-.535.289 0 .533.254.533.535 0 .29-.244.545-.533.545zm-.451 5.471v-4.69h.893v4.69h-.893zm4.558-4.799c1.029 0 1.75.753 1.75 1.815v2.984h-.875v-2.83c0-.699-.442-1.189-1.074-1.189-.65 0-1.21.427-1.281.98v3.04h-.894v-4.691h.894v.68c.28-.462.848-.789 1.48-.789zm6.58.109h.893v4.191c0 1.207-.984 2.06-2.365 2.06-.785 0-1.507-.263-1.95-.626l.352-.671c.343.326.903.517 1.463.517 1.001 0 1.606-.481 1.606-1.298v-.68c-.37.535-.948.853-1.652.853-1.227 0-2.12-.926-2.12-2.232 0-1.307.893-2.223 2.12-2.223.704 0 1.3.336 1.652.862v-.753zm-1.427 3.565c.83 0 1.426-.598 1.426-1.451 0-.844-.596-1.443-1.426-1.443s-1.417.599-1.417 1.443c0 .853.587 1.451 1.417 1.451zm-85.713 11.622l.325.617a1.497 1.497 0 0 1-.93.336c-.722 0-1.227-.526-1.227-1.28v-2.757H37v-.762h.704v-1.289h.875v1.289h1.102v.762h-1.102v2.694c0 .327.217.563.479.563.198 0 .379-.073.478-.173zm3.448.953c-1.336 0-2.464-1.125-2.464-2.459 0-1.333 1.128-2.45 2.464-2.45 1.326 0 2.446 1.117 2.446 2.45 0 1.334-1.12 2.459-2.446 2.459zm0-.78c.84 0 1.552-.762 1.552-1.679 0-.907-.713-1.669-1.552-1.669-.858 0-1.57.762-1.57 1.67 0 .916.712 1.678 1.57 1.678zm4.675.671l-1.57-4.69H47l1.074 3.493 1.155-3.493h.758l1.156 3.493 1.065-3.493h.911l-1.57 4.69h-.822l-1.119-3.484-1.128 3.484h-.821zm8.321-4.8c1.255 0 1.95.8 1.95 1.96v2.84h-.876v-.644c-.343.49-.984.753-1.552.753-.993 0-1.724-.58-1.724-1.497 0-.934.84-1.56 1.868-1.56.46 0 .957.1 1.408.254v-.146c0-.59-.27-1.215-1.2-1.215-.46 0-.912.181-1.318.39l-.325-.662c.668-.336 1.255-.472 1.77-.472zm-.307 4.201c.578 0 1.228-.29 1.381-.87v-.627a4.313 4.313 0 0 0-1.272-.181c-.623 0-1.147.354-1.147.862s.452.816 1.038.816zm4.486-3.193c.298-.617.93-1.007 1.733-1.007v.78c-.966 0-1.652.535-1.733 1.352v2.667h-.894v-4.69h.894v.898zm6.2-2.55h.885v6.342h-.885v-.816c-.36.58-.938.925-1.66.925-1.228 0-2.148-1.016-2.148-2.459 0-1.433.92-2.45 2.148-2.45.722 0 1.3.345 1.66.917v-2.459zm-1.444 5.67c.84 0 1.444-.698 1.444-1.678s-.604-1.669-1.444-1.669c-.857 0-1.462.69-1.462 1.67s.605 1.678 1.462 1.678zm5.361.781a3.256 3.256 0 0 1-1.994-.699l.424-.644c.496.363 1.029.572 1.58.572.523 0 .884-.245.884-.608 0-.436-.479-.572-1.056-.735-1.074-.3-1.607-.608-1.607-1.37-.009-.862.704-1.424 1.697-1.424.605 0 1.218.208 1.724.544l-.397.662c-.452-.28-.92-.435-1.327-.435-.46 0-.821.2-.821.553 0 .363.288.472 1.074.717.767.227 1.588.48 1.588 1.415 0 .89-.749 1.452-1.769 1.452zm7.572-.953l.325.617a1.497 1.497 0 0 1-.93.336c-.721 0-1.227-.526-1.227-1.28v-2.757h-.704v-.762h.704v-1.289h.876v1.289h1.1v.762h-1.1v2.694c0 .327.216.563.478.563.199 0 .38-.073.478-.173zm3.61-3.955c1.03 0 1.751.753 1.751 1.814v2.985h-.875v-2.83c0-.7-.442-1.189-1.074-1.189-.704 0-1.29.499-1.29 1.107v2.912h-.885v-6.342h.884v2.35c.28-.472.849-.807 1.49-.807zm5.172 4.11c.487 0 1.056-.218 1.336-.508l.56.58c-.416.445-1.228.726-1.887.726-1.3 0-2.4-1.025-2.4-2.468 0-1.406 1.037-2.44 2.328-2.44 1.426 0 2.247 1.088 2.247 2.767h-3.673c.117.78.686 1.343 1.489 1.343zm-.027-3.312c-.722 0-1.309.49-1.453 1.252h2.798c-.1-.726-.542-1.252-1.345-1.252zM94.12 121a3.256 3.256 0 0 1-1.995-.699l.425-.644c.496.363 1.028.572 1.579.572.523 0 .884-.245.884-.608 0-.436-.478-.572-1.056-.735-1.074-.3-1.606-.608-1.606-1.37-.009-.862.704-1.424 1.697-1.424.604 0 1.218.208 1.724.544l-.398.662c-.45-.28-.92-.435-1.326-.435-.46 0-.822.2-.822.553 0 .363.29.472 1.074.717.768.227 1.589.48 1.589 1.415 0 .89-.75 1.452-1.77 1.452zm2.807-.109v-6.342h.884v6.342h-.884zm4.142-4.8c1.255 0 1.95.8 1.95 1.96v2.84h-.876v-.644c-.343.49-.983.753-1.552.753-.993 0-1.724-.58-1.724-1.497 0-.934.84-1.56 1.868-1.56.46 0 .957.1 1.408.254v-.146c0-.59-.27-1.215-1.2-1.215-.46 0-.912.181-1.318.39l-.325-.662c.668-.336 1.255-.472 1.77-.472zm-.306 4.201c.577 0 1.227-.29 1.38-.87v-.627a4.313 4.313 0 0 0-1.272-.181c-.623 0-1.146.354-1.146.862s.45.816 1.038.816zm5.749.708c-1.327 0-2.455-1.125-2.455-2.459 0-1.333 1.128-2.45 2.464-2.45.668 0 1.272.282 1.714.727l-.604.562a1.494 1.494 0 0 0-1.12-.508c-.848 0-1.552.762-1.552 1.67 0 .916.704 1.678 1.562 1.678.433 0 .848-.2 1.137-.526l.605.553a2.42 2.42 0 0 1-1.751.753zm6.95-4.8l-2.014 2.124 1.923 2.567h-1.065l-1.462-1.969-.75.762v1.207h-.884v-6.342h.885v4.047l2.283-2.395h1.083zm.74 4.691v-6.342h.884v6.342h-.885zm2.626-5.47a.545.545 0 0 1-.542-.545c0-.281.235-.535.542-.535.288 0 .532.254.532.535 0 .29-.244.544-.532.544zm-.452 5.47v-4.69h.894v4.69h-.894zm4.558-4.8c1.029 0 1.75.754 1.75 1.815v2.985h-.875v-2.83c0-.7-.442-1.189-1.074-1.189-.65 0-1.209.426-1.281.98v3.04h-.894V116.2h.894v.68c.28-.463.848-.79 1.48-.79zm5.171 4.11c.488 0 1.056-.217 1.336-.507l.56.58c-.415.445-1.228.726-1.886.726-1.3 0-2.401-1.025-2.401-2.468 0-1.406 1.038-2.44 2.328-2.44 1.426 0 2.248 1.088 2.248 2.767h-3.674c.118.78.686 1.343 1.49 1.343zm-.027-3.31c-.722 0-1.308.489-1.453 1.251h2.798c-.1-.726-.541-1.252-1.345-1.252zm4.188.208c.298-.617.93-1.007 1.733-1.007v.78c-.966 0-1.652.535-1.733 1.352v2.667h-.893v-4.69h.893v.898zM53.977 28.01h-3.174v1.566h2.867v.736h-2.867v2.341H50v-5.379h3.977v.736zm.858 4.643V27.18h.772v5.473h-.772zm3.615-4.142c1.094 0 1.7.69 1.7 1.691v2.451h-.763v-.556c-.3.423-.859.65-1.355.65-.866 0-1.504-.5-1.504-1.292 0-.806.733-1.346 1.63-1.346.402 0 .835.086 1.229.219v-.126c0-.508-.236-1.049-1.048-1.049-.401 0-.795.157-1.15.337l-.283-.572c.583-.29 1.095-.407 1.544-.407zm-.268 3.625c.504 0 1.07-.25 1.205-.751v-.54a3.802 3.802 0 0 0-1.11-.157c-.544 0-1 .305-1 .744 0 .438.393.704.905.704zm5-.21l.284.531c-.22.18-.52.29-.811.29-.63 0-1.071-.454-1.071-1.104v-2.38h-.614v-.658h.614v-1.112h.764v1.112h.96v.658h-.96v2.325c0 .282.189.486.417.486a.61.61 0 0 0 .417-.149zm5.26.821c-1.165 0-2.149-.97-2.149-2.122 0-1.15.984-2.114 2.15-2.114 1.157 0 2.134.963 2.134 2.114 0 1.151-.977 2.122-2.134 2.122zm0-.673c.733 0 1.355-.658 1.355-1.449 0-.783-.622-1.44-1.354-1.44-.748 0-1.37.657-1.37 1.44 0 .791.622 1.449 1.37 1.449zm5.12-3.563c.897 0 1.527.65 1.527 1.566v2.576h-.764V30.21c0-.603-.385-1.025-.937-1.025-.567 0-1.055.368-1.118.845v2.623h-.78v-4.048h.78v.587c.244-.399.74-.68 1.292-.68zm6.803 3.414l.284.532c-.22.18-.52.29-.811.29-.63 0-1.071-.454-1.071-1.104v-2.38h-.614v-.658h.614v-1.112h.764v1.112h.96v.658h-.96v2.325c0 .282.189.486.417.486a.61.61 0 0 0 .417-.149zm3.15-3.414c.898 0 1.528.65 1.528 1.566v2.576h-.764V30.21c0-.603-.386-1.025-.937-1.025-.614 0-1.126.43-1.126.955v2.513h-.772V27.18h.772v2.028c.244-.407.74-.697 1.3-.697zm4.513 3.547c.425 0 .921-.188 1.165-.438l.488.5c-.362.384-1.07.627-1.646.627-1.133 0-2.094-.885-2.094-2.13 0-1.213.905-2.106 2.031-2.106 1.245 0 1.961.94 1.961 2.388h-3.205c.103.674.599 1.16 1.3 1.16zm-.024-2.858c-.63 0-1.142.423-1.268 1.08h2.441c-.086-.626-.472-1.08-1.173-1.08zm6.119 3.453l-1.37-4.048h.795l.937 3.015 1.008-3.015h.661l1.008 3.015.93-3.015h.795l-1.37 4.048H96.8l-.976-3.006-.985 3.006h-.716zm7.418-.595c.425 0 .921-.188 1.165-.438l.489.5c-.363.384-1.071.627-1.646.627-1.134 0-2.095-.885-2.095-2.13 0-1.213.906-2.106 2.032-2.106 1.244 0 1.96.94 1.96 2.388h-3.205c.103.674.599 1.16 1.3 1.16zm-.024-2.858c-.63 0-1.142.423-1.268 1.08h2.442c-.087-.626-.473-1.08-1.174-1.08zm5.095-.689c1.071 0 1.874.877 1.874 2.114 0 1.245-.803 2.122-1.874 2.122-.63 0-1.134-.297-1.449-.798v.704h-.771V27.18h.771v2.122c.315-.493.82-.79 1.45-.79zm-.189 3.563c.748 0 1.276-.603 1.276-1.449 0-.845-.528-1.44-1.276-1.44-.732 0-1.26.595-1.26 1.44 0 .846.528 1.449 1.26 1.449zm5.269-3.563c1.07 0 1.874.877 1.874 2.114 0 1.245-.804 2.122-1.874 2.122-.63 0-1.134-.297-1.45-.798v.704h-.771V27.18h.772v2.122c.315-.493.819-.79 1.449-.79zm-.19 3.563c.749 0 1.276-.603 1.276-1.449 0-.845-.527-1.44-1.275-1.44-.733 0-1.26.595-1.26 1.44 0 .846.527 1.449 1.26 1.449zm3.395-4.142a.472.472 0 0 1-.473-.47c0-.243.205-.462.473-.462.252 0 .464.22.464.462 0 .25-.212.47-.464.47zm-.394 4.721v-4.048h.78v4.048h-.78zm3.977-4.142c.897 0 1.527.65 1.527 1.566v2.576h-.764V30.21c0-.603-.385-1.025-.937-1.025-.567 0-1.055.368-1.118.845v2.623h-.78v-4.048h.78v.587c.244-.399.74-.68 1.292-.68zm5.74.094h.78v3.618c0 1.041-.858 1.777-2.063 1.777-.685 0-1.315-.227-1.701-.54l.307-.58c.3.282.787.447 1.276.447.874 0 1.401-.415 1.401-1.12v-.587a1.706 1.706 0 0 1-1.44.736c-1.072 0-1.851-.799-1.851-1.926 0-1.128.78-1.919 1.85-1.919.615 0 1.134.29 1.441.744v-.65zm-1.244 3.077c.725 0 1.244-.516 1.244-1.252 0-.729-.52-1.245-1.244-1.245s-1.236.516-1.236 1.245c0 .736.512 1.252 1.236 1.252zM34.697 55.16c.4-.436 1.862-.506 3.265-.156l22.857 5.7c1.404.349 2.661 1.096 2.81 1.67l1.074 4.162c.148.573-1.113.692-2.815.268l-27.734-6.915c-1.703-.425-2.76-1.122-2.36-1.558l2.903-3.17zm23.953 5.731l-21.473-5.353-2.376 3.054 24.11 6.011-.261-3.712zm2.73 1.897c-.764-.19-1.353-.12-1.316.158.036.277.705.662 1.494.859.789.196 1.378.125 1.316-.158-.061-.284-.73-.669-1.494-.86zM215 8.853V.429h1.207l2.882 5.506 2.88-5.506h1.208v8.424h-1.207V2.857l-2.881 5.505-2.882-5.505v5.996H215zm10.664-7.394a.729.729 0 0 1-.718-.736c0-.38.311-.723.718-.723.382 0 .705.343.705.723 0 .393-.323.736-.705.736zm-.598 7.394v-6.34h1.183v6.34h-1.183zm7.651-8.571h1.172v8.57h-1.172V7.75c-.478.785-1.243 1.251-2.2 1.251-1.626 0-2.845-1.373-2.845-3.323 0-1.937 1.22-3.31 2.845-3.31.957 0 1.722.465 2.2 1.238V.282zm-1.913 7.664c1.112 0 1.913-.945 1.913-2.269 0-1.324-.801-2.256-1.913-2.256-1.136 0-1.936.932-1.936 2.256 0 1.324.8 2.269 1.936 2.269zm9.624-7.664h1.171v8.57h-1.171V7.75c-.478.785-1.244 1.251-2.2 1.251-1.626 0-2.845-1.373-2.845-3.323 0-1.937 1.22-3.31 2.845-3.31.956 0 1.722.465 2.2 1.238V.282zm-1.913 7.664c1.112 0 1.913-.945 1.913-2.269 0-1.324-.801-2.256-1.913-2.256-1.136 0-1.937.932-1.937 2.256 0 1.324.801 2.269 1.937 2.269zm4.866.907V.282h1.171v8.57h-1.171zm5.726-.932c.646 0 1.399-.294 1.77-.687l.74.785c-.55.6-1.625.981-2.498.981-1.722 0-3.18-1.386-3.18-3.335 0-1.9 1.375-3.299 3.084-3.299 1.89 0 2.977 1.472 2.977 3.74h-4.866c.156 1.055.909 1.815 1.973 1.815zm-.036-4.475c-.956 0-1.733.662-1.925 1.692h3.706c-.131-.981-.717-1.692-1.78-1.692z" fill="#FFF" fill-rule="nonzero"/><g stroke-linecap="square" stroke-dasharray="1,2" transform="translate(-13)"><use fill="#000" filter="url(#a)" xlink:href="#b"/><use stroke="#979797" xlink:href="#b"/></g><path fill="url(#c)" d="M0 26h27v66H0z" transform="translate(-13)"/><path fill="url(#c)" transform="matrix(-1 0 0 1 902 0)" d="M444 31h27v66h-27z"/><path d="M14 57c121.701 28.667 192.903 43 213.606 43C248.31 100 316.44 85.667 432 57" stroke="#FFF" stroke-linecap="square"/><path d="M223.525 81.176a4.535 4.535 0 0 0-1.762-8.797 4.531 4.531 0 0 0-4.285 4.764 4.535 4.535 0 0 0 2.947 4.014c-.44.255-.768.594-1 .87-.553.654-.936 2.025-.74 8.436.123 4.007.254 6.623.395 7.85-.281.362-.331.744.037 1.19 1.044 1.261 5.706 1.844 7.565.876.495-.257.688-.725 1.422-1.86.544-.841 3.91-7.776 3.918-7.615.037.712-4.236 8.674-3.64 9.09.597.416 4.123-.03 5.865-.011 1.161.012 1.71-.116 1.648-.383-1.816-.481-2.975-.866-3.478-1.155-.754-.433 2.772-7.17 2.696-8.624-.076-1.455-1.056-2.526-1.546-2.817-.49-.291-.98-.185-1.081-.18-.755.04-5.236 4.766-10.686 9.446-.377.324-.819.615-1.243.893l3.06-2.91c5.6-4.992 8.508-7.524 8.724-7.599.324-.111.324-.111.865-.125.54-.015 1.194.48 1.553.98.358.498.786 1.383.742 1.999-.049.673-.181 1.217-.398 1.631.133.55.473 1.37 1.02 2.458.546 1.088 1.083 2.37 1.611 3.844-.11.961-.08 1.528.09 1.7.19.194 5.535-.29 5.748-.3.235-.013.371-.113.41-.3-1.744-.557-2.978-.968-3.703-1.234-.902-1.642-1.016-3.463-1.392-5.092-.771-3.34-1.177-6.13-1.456-6.72-.414-.875-1.403-2.48-2.552-2.037-.49.189-1.898 1.394-3.397 2.702l-.789.69c-1.76 1.537-3.45 2.996-3.748 2.912-.597-.169-.657-4.27-1.104-5.83a10.39 10.39 0 0 0-.097-.318 11.513 11.513 0 0 0 3.003-2.006c.665-.62 5.23-5.343 5.468-5.959.236-.616-.427-1.277-1.155-1.239-.729.038-3.634 3.356-3.88 3.57-.385.337-1.71 1.747-2.421 2.198-.37.234-1.153.718-2.351 1.453a4.393 4.393 0 0 0-.883-.455z" fill="#FFF"/><path d="M231 15.564l.194 96.295" stroke="#13A89E" opacity=".481" stroke-linecap="square" stroke-dasharray="2"/></g></svg>