<svg width="103" height="284" viewBox="0 0 103 284" xmlns="http://www.w3.org/2000/svg" xmlns:xlink="http://www.w3.org/1999/xlink"><defs><path d="M89.375 0H9.625C4.355 0 0 4.385 0 9.692v172.616C0 187.615 4.354 192 9.625 192h79.75c5.27 0 9.625-4.385 9.625-9.692V9.692C99 4.385 94.646 0 89.375 0zM49.5 3.23c.688 0 1.146.462 1.146 1.155 0 .692-.459 1.153-1.146 1.153-.688 0-1.146-.461-1.146-1.153 0-.462.459-1.154 1.146-1.154zm-7.104 4.847h14.208c.688 0 1.375.692 1.375 1.385 0 .692-.687 1.384-1.375 1.384H42.396c-.688 0-1.375-.692-1.375-1.384 0-.693.687-1.385 1.375-1.385zm-6.188 0c.917 0 1.375.692 1.375 1.385 0 .923-.687 1.384-1.375 1.384-.916 0-1.375-.692-1.375-1.384 0-.924.688-1.385 1.375-1.385zM49.5 187.847c-4.354 0-7.792-3.462-7.792-7.847s3.438-7.846 7.792-7.846c4.354 0 7.792 3.461 7.792 7.846s-3.438 7.846-7.792 7.846zM94.875 168H4.125V18.462h90.52V168h.23z" id="b"/><filter x="-4%" y="-1%" width="108.1%" height="104.2%" filterUnits="objectBoundingBox" id="a"><feOffset dy="2" in="SourceAlpha" result="shadowOffsetOuter1"/><feGaussianBlur stdDeviation="1" in="shadowOffsetOuter1" result="shadowBlurOuter1"/><feColorMatrix values="0 0 0 0 0.956493433 0 0 0 0 0.919713636 0 0 0 0 0.919713636 0 0 0 0.5 0" in="shadowBlurOuter1"/></filter></defs><g transform="translate(2 1)" fill="none" fill-rule="evenodd"><g transform="translate(0 45)" fill-rule="nonzero"><use fill="#000" filter="url(#a)" xlink:href="#b"/><use fill="#FFF" xlink:href="#b"/></g><path d="M69.5 133.5l3.118-3.118M69.5 133.5l3.118 3.118" stroke="#FFF" stroke-linecap="round" stroke-linejoin="round"/><path d="M62.204 146.65c10.254.372 17.35-.977 21.29-4.048 5.91-4.607-7.136-9.102-12.96-9.102" stroke="#F9F3F3" stroke-linecap="square"/><path d="M31.5 133.5l-3.118-3.118M31.5 133.5l-3.118 3.118" stroke="#FFF" stroke-linecap="round" stroke-linejoin="round"/><path d="M38.796 146.65c-10.254.372-17.35-.977-21.29-4.048-5.91-4.607 7.136-9.102 12.96-9.102" stroke="#F9F3F3" stroke-linecap="square"/><rect stroke="#FFF" fill-opacity=".1" fill="#FFF" fill-rule="nonzero" opacity=".7" x="34" width="33" height="282" rx="2"/><path d="M49.5 271v-10h1v10h4l-4.5 9-4.5-9h4zM51.297 11.511l-.332 9.506-1-.034.332-9.507-3.997-.14L51.11 2.5l4.183 9.152-3.997-.14zM38.745 257.369c-.709 0-1.295-.238-1.745-.656l.376-.447c.376.346.82.573 1.394.573.586 0 .888-.298.888-.626 0-.388-.351-.537-1.06-.692-.864-.196-1.438-.447-1.438-1.186 0-.685.617-1.204 1.468-1.204a2.29 2.29 0 0 1 1.548.578l-.357.453c-.358-.316-.784-.5-1.215-.5-.475 0-.808.292-.808.62 0 .381.363.512 1.06.673.845.19 1.431.465 1.431 1.198 0 .692-.543 1.216-1.542 1.216zm2.288-.066v-4.166h.605v4.166h-.605zm2.831-3.153c.858 0 1.332.525 1.332 1.288v1.865h-.598v-.423c-.234.322-.672.495-1.06.495-.679 0-1.179-.381-1.179-.983 0-.614.574-1.026 1.277-1.026.315 0 .654.066.962.167v-.095c0-.388-.185-.799-.82-.799-.315 0-.623.12-.9.256l-.222-.435c.456-.22.857-.31 1.208-.31zm-.21 2.76c.395 0 .84-.19.944-.572v-.411a3.058 3.058 0 0 0-.87-.12c-.425 0-.783.233-.783.567 0 .333.309.536.71.536zm3.93.465c-.907 0-1.678-.74-1.678-1.615 0-.876.77-1.61 1.683-1.61.457 0 .87.185 1.172.477l-.413.37a1.04 1.04 0 0 0-.765-.334c-.58 0-1.06.5-1.06 1.097 0 .602.48 1.102 1.066 1.102.296 0 .58-.13.778-.345l.413.363a1.686 1.686 0 0 1-1.197.495zm4.748-3.153l-1.375 1.395 1.313 1.686h-.727l-1-1.293-.511.5v.793h-.605v-4.166h.605v2.658l1.56-1.573h.74zm.506 3.081v-4.166h.604v4.166h-.604zm1.795-3.594a.365.365 0 0 1-.37-.357c0-.185.16-.352.37-.352.197 0 .363.167.363.352 0 .19-.166.357-.363.357zm-.309 3.594v-3.081h.61v3.081h-.61zm3.115-3.153c.703 0 1.196.495 1.196 1.192v1.961h-.598v-1.86c0-.458-.302-.78-.734-.78-.444 0-.826.28-.876.644v1.996h-.61v-3.081h.61v.447c.192-.304.58-.519 1.012-.519zm3.534 2.7c.333 0 .721-.143.912-.333l.383.381c-.284.292-.839.477-1.29.477-.887 0-1.64-.674-1.64-1.621 0-.924.71-1.604 1.592-1.604.974 0 1.535.716 1.535 1.818h-2.51c.08.513.469.882 1.018.882zm-.019-2.175a.989.989 0 0 0-.993.822h1.912c-.068-.476-.37-.822-.919-.822zm2.862.137c.203-.405.635-.662 1.184-.662v.513c-.66 0-1.129.352-1.184.888v1.752h-.61v-3.081h.61v.59zM43.08 28.916l-.414-.985H40.19l-.415.985H39l2.04-4.832h.775l2.04 4.832h-.774zm-2.62-1.625h1.936L41.428 25l-.969 2.292zm5.892-2.096c.789 0 1.342.584 1.342 1.407v2.314h-.67v-2.194c0-.542-.34-.922-.824-.922-.498 0-.927.33-.982.76v2.356h-.685V25.28h.685v.527c.214-.358.65-.612 1.134-.612zM50.364 29c-1.017 0-1.882-.872-1.882-1.906 0-1.034.865-1.899 1.889-1.899.511 0 .975.219 1.314.563l-.464.436a1.14 1.14 0 0 0-.857-.394c-.65 0-1.19.591-1.19 1.294 0 .71.54 1.301 1.197 1.301.332 0 .65-.154.871-.408l.463.43c-.345.358-.809.583-1.341.583zm3.894-3.805c.788 0 1.341.584 1.341 1.407v2.314h-.67v-2.194c0-.542-.34-.922-.824-.922-.539 0-.989.387-.989.858v2.258h-.677V24h.677v1.821c.215-.365.65-.626 1.142-.626zM58.276 29c-1.024 0-1.888-.872-1.888-1.906 0-1.034.864-1.899 1.888-1.899 1.017 0 1.874.865 1.874 1.9 0 1.033-.857 1.905-1.874 1.905zm0-.605c.643 0 1.19-.59 1.19-1.3 0-.704-.547-1.295-1.19-1.295-.657 0-1.203.591-1.203 1.294 0 .71.546 1.301 1.203 1.301zm3.396-2.419c.228-.478.712-.78 1.328-.78v.604c-.74 0-1.266.415-1.328 1.048v2.068h-.685V25.28h.685v.696z" fill="#FFF" fill-rule="nonzero"/><text font-family="Metropolis-Bold, Metropolis" font-size="15" font-weight="bold" fill="#FFF"><tspan x="10.07" y="115">KEEP FLAT</tspan></text><text transform="rotate(90 50.5 165)" font-family="Metropolis-LightItalic, Metropolis" font-size="8" font-style="italic" font-weight="300" fill="#FFF" fill-opacity=".5"><tspan x="33" y="168">Webbing</tspan></text></g></svg>