<svg width="64" height="64" viewBox="0 0 64 64" xmlns="http://www.w3.org/2000/svg"><g fill="#FFF" fill-rule="nonzero"><path d="M61.052 29.052h-.144C59.542 15.389 48.61 4.458 34.948 3.092v-.144A2.916 2.916 0 0032 0a2.916 2.916 0 00-2.948 2.948v.144C15.389 4.458 4.458 15.39 3.092 29.052h-.144A2.916 2.916 0 000 32a2.916 2.916 0 002.948 2.948h.144c1.366 13.663 12.297 24.594 25.96 25.96v.144A2.916 2.916 0 0032 64a2.916 2.916 0 002.948-2.948v-.144c13.663-1.366 24.594-12.297 25.96-25.96h.144A2.916 2.916 0 0064 32c-.072-1.654-1.366-2.948-2.948-2.948zM32.502 58c-.144 0-.359-.072-.502-.072-.143 0-.358 0-.501.072C17.532 57.785 6.215 46.468 6 32.501c0-.143.072-.358.072-.501 0-.143 0-.358-.072-.501C6.215 17.532 17.532 6.215 31.499 6c.143 0 .358.072.501.072.143 0 .358 0 .501-.072C46.468 6.215 57.785 17.532 58 31.499c0 .143-.072.358-.072.501 0 .143 0 .358.072.501C57.785 46.468 46.468 57.785 32.501 58z"/><path d="M34.175 11.138c-.69-.069-1.45-.138-2.14-.138-5.938 0-11.6 2.556-15.604 6.908-4.005 4.49-5.938 10.224-5.317 16.233.967 9.74 9.045 17.754 18.711 18.72.69.07 1.45.139 2.14.139 5.938 0 11.6-2.556 15.604-6.908 4.005-4.42 5.938-10.224 5.317-16.233-.898-9.672-8.976-17.754-18.711-18.72z"/></g></svg>