<svg width="54" height="64" viewBox="0 0 54 64" xmlns="http://www.w3.org/2000/svg"><g fill="#FFF" fill-rule="evenodd"><path d="M7.754 7.756c-10.34 10.342-10.338 27.153.002 37.495.116.116.238.224.356.338l-.082-.076-.008.007L26.5 64l18.446-18.45-.007-.006c.101-.099.206-.192.306-.292 10.34-10.342 10.34-27.154 0-37.496-10.34-10.341-27.15-10.341-37.49 0zM9.89 9.89C19.075.703 33.924.703 43.11 9.89c9.187 9.186 9.187 24.035 0 33.221-9.186 9.186-24.034 9.185-33.22-.001S.703 19.076 9.89 9.89z"/><ellipse cx="26.5" cy="26" rx="17.5" ry="17"/></g></svg>