<?xml version="1.0" encoding="UTF-8"?>
<svg width="102px" height="368px" viewBox="0 0 102 368" version="1.1" xmlns="http://www.w3.org/2000/svg" xmlns:xlink="http://www.w3.org/1999/xlink">
    <!-- Generator: Sketch 56.3 (81716) - https://sketch.com -->
    <title>Cellphone Line</title>
    <desc>Created with Sketch.</desc>
    <g id="Cellphone-Line" stroke="none" stroke-width="1" fill="none" fill-rule="evenodd">
        <g id="Cellphone" transform="translate(1.000000, 131.000000)" fill="#FFFFFF" fill-rule="nonzero">
            <path d="M89.375,0 L9.625,0 C4.35416667,0 0,4.38461538 0,9.69230769 L0,182.307692 C0,187.615385 4.35416667,192 9.625,192 L89.375,192 C94.6458333,192 99,187.615385 99,182.307692 L99,9.69230769 C99,4.38461538 94.6458333,0 89.375,0 Z M49.5,3.23076923 C50.1875,3.23076923 50.6458333,3.69230769 50.6458333,4.38461538 C50.6458333,5.07692308 50.1875,5.53846154 49.5,5.53846154 C48.8125,5.53846154 48.3541667,5.07692308 48.3541667,4.38461538 C48.3541667,3.92307692 48.8125,3.23076923 49.5,3.23076923 Z M42.3958333,8.07692308 L56.6041667,8.07692308 C57.2916667,8.07692308 57.9791667,8.76923077 57.9791667,9.46153846 C57.9791667,10.1538462 57.2916667,10.8461538 56.6041667,10.8461538 L42.3958333,10.8461538 C41.7083333,10.8461538 41.0208333,10.1538462 41.0208333,9.46153846 C41.0208333,8.76923077 41.7083333,8.07692308 42.3958333,8.07692308 Z M36.2083333,8.07692308 C37.125,8.07692308 37.5833333,8.76923077 37.5833333,9.46153846 C37.5833333,10.3846154 36.8958333,10.8461538 36.2083333,10.8461538 C35.2916667,10.8461538 34.8333333,10.1538462 34.8333333,9.46153846 C34.8333333,8.53846154 35.5208333,8.07692308 36.2083333,8.07692308 Z M49.5,187.846154 C45.1458333,187.846154 41.7083333,184.384615 41.7083333,180 C41.7083333,175.615385 45.1458333,172.153846 49.5,172.153846 C53.8541667,172.153846 57.2916667,175.615385 57.2916667,180 C57.2916667,184.384615 53.8541667,187.846154 49.5,187.846154 Z M94.875,168 L4.125,168 L4.125,18.4615385 L94.6458333,18.4615385 L94.6458333,168 L94.875,168 Z" id="Shape"></path>
        </g>
        <g id="Rotate" transform="translate(63.000000, 66.000000)">
            <path d="M7.5,3.5 L10.6180196,0.381980438" id="Line-3" stroke="#FFFFFF" stroke-linecap="round" stroke-linejoin="round"></path>
            <path d="M7.5,6.5 L10.6180196,3.38198044" id="Line-3" stroke="#FFFFFF" stroke-linecap="round" stroke-linejoin="round" transform="translate(9.000000, 5.000000) scale(1, -1) translate(-9.000000, -5.000000) "></path>
            <path d="M0.204320773,16.6497614 C10.4576837,17.0221788 17.5543813,15.6729047 21.4944136,12.6019393 C27.4044621,7.99549124 14.3579923,3.5 8.5342836,3.5" id="Line-2" stroke="#F9F3F3" stroke-linecap="square"></path>
        </g>
        <g id="Rotate" transform="translate(28.500000, 74.500000) scale(-1, 1) translate(-28.500000, -74.500000) translate(17.000000, 66.000000)">
            <path d="M7.5,3.5 L10.6180196,0.381980438" id="Line-3" stroke="#FFFFFF" stroke-linecap="round" stroke-linejoin="round"></path>
            <path d="M7.5,6.5 L10.6180196,3.38198044" id="Line-3" stroke="#FFFFFF" stroke-linecap="round" stroke-linejoin="round" transform="translate(9.000000, 5.000000) scale(1, -1) translate(-9.000000, -5.000000) "></path>
            <path d="M0.204320773,16.6497614 C10.4576837,17.0221788 17.5543813,15.6729047 21.4944136,12.6019393 C27.4044621,7.99549124 14.3579923,3.5 8.5342836,3.5" id="Line-2" stroke="#F9F3F3" stroke-linecap="square"></path>
        </g>
        <rect id="Webbing" fill="#FFFFFF" fill-rule="nonzero" opacity="0.5" x="35" y="0" width="33" height="368" rx="1"></rect>
        <path id="Line" d="M50.5,357 L50.5,347 L51.5,347 L51.5,357 L55.5,357 L51,366 L46.5,357 L50.5,357 Z" fill="#FFFFFF" fill-rule="nonzero"></path>
        <path id="Line" d="M50.5,13 L50.5,3 L51.5,3 L51.5,13 L55.5,13 L51,22 L46.5,13 L50.5,13 Z" fill="#FFFFFF" fill-rule="nonzero"></path>
        <path d="M37.6365,342.077 C36.8315,342.077 36.1665,341.797 35.6555,341.307 L36.0825,340.782 C36.5095,341.188 37.0135,341.454 37.6645,341.454 C38.3295,341.454 38.6725,341.104 38.6725,340.719 C38.6725,340.264 38.2735,340.089 37.4685,339.907 C36.4885,339.676 35.8375,339.382 35.8375,338.514 C35.8375,337.709 36.5375,337.1 37.5035,337.1 C38.2455,337.1 38.7985,337.373 39.2605,337.779 L38.8545,338.311 C38.4485,337.94 37.9655,337.723 37.4755,337.723 C36.9365,337.723 36.5585,338.066 36.5585,338.451 C36.5585,338.899 36.9715,339.053 37.7625,339.242 C38.7215,339.466 39.3865,339.788 39.3865,340.649 C39.3865,341.461 38.7705,342.077 37.6365,342.077 Z M40.2335,342 L40.2335,337.107 L40.9195,337.107 L40.9195,342 L40.2335,342 Z M43.4465,338.297 C44.4195,338.297 44.9585,338.913 44.9585,339.809 L44.9585,342 L44.2795,342 L44.2795,341.503 C44.0135,341.881 43.5165,342.084 43.0755,342.084 C42.3055,342.084 41.7385,341.636 41.7385,340.929 C41.7385,340.208 42.3895,339.725 43.1875,339.725 C43.5445,339.725 43.9295,339.802 44.2795,339.921 L44.2795,339.809 C44.2795,339.354 44.0695,338.871 43.3485,338.871 C42.9915,338.871 42.6415,339.011 42.3265,339.172 L42.0745,338.661 C42.5925,338.402 43.0475,338.297 43.4465,338.297 Z M43.2085,341.538 C43.6565,341.538 44.1605,341.314 44.2795,340.866 L44.2795,340.383 C43.9855,340.292 43.6495,340.243 43.2925,340.243 C42.8095,340.243 42.4035,340.516 42.4035,340.908 C42.4035,341.3 42.7535,341.538 43.2085,341.538 Z M47.6675,342.084 C46.6385,342.084 45.7635,341.216 45.7635,340.187 C45.7635,339.158 46.6385,338.297 47.6745,338.297 C48.1925,338.297 48.6615,338.514 49.0045,338.857 L48.5355,339.291 C48.3185,339.046 48.0035,338.899 47.6675,338.899 C47.0095,338.899 46.4635,339.487 46.4635,340.187 C46.4635,340.894 47.0095,341.482 47.6745,341.482 C48.0105,341.482 48.3325,341.328 48.5565,341.076 L49.0255,341.503 C48.6755,341.86 48.2065,342.084 47.6675,342.084 Z M53.0575,338.381 L51.4965,340.019 L52.9875,342 L52.1615,342 L51.0275,340.481 L50.4465,341.069 L50.4465,342 L49.7605,342 L49.7605,337.107 L50.4465,337.107 L50.4465,340.229 L52.2175,338.381 L53.0575,338.381 Z M53.6315,342 L53.6315,337.107 L54.3175,337.107 L54.3175,342 L53.6315,342 Z M55.6685,337.779 C55.4305,337.779 55.2485,337.583 55.2485,337.359 C55.2485,337.142 55.4305,336.946 55.6685,336.946 C55.8925,336.946 56.0815,337.142 56.0815,337.359 C56.0815,337.583 55.8925,337.779 55.6685,337.779 Z M55.3185,342 L55.3185,338.381 L56.0115,338.381 L56.0115,342 L55.3185,342 Z M58.8535,338.297 C59.6515,338.297 60.2115,338.878 60.2115,339.697 L60.2115,342 L59.5325,342 L59.5325,339.816 C59.5325,339.277 59.1895,338.899 58.6995,338.899 C58.1955,338.899 57.7615,339.228 57.7055,339.655 L57.7055,342 L57.0125,342 L57.0125,338.381 L57.7055,338.381 L57.7055,338.906 C57.9225,338.549 58.3635,338.297 58.8535,338.297 Z M62.8645,341.468 C63.2425,341.468 63.6835,341.3 63.9005,341.076 L64.3345,341.524 C64.0125,341.867 63.3825,342.084 62.8715,342.084 C61.8635,342.084 61.0095,341.293 61.0095,340.18 C61.0095,339.095 61.8145,338.297 62.8155,338.297 C63.9215,338.297 64.5585,339.137 64.5585,340.432 L61.7095,340.432 C61.8005,341.034 62.2415,341.468 62.8645,341.468 Z M62.8435,338.913 C62.2835,338.913 61.8285,339.291 61.7165,339.879 L63.8865,339.879 C63.8095,339.319 63.4665,338.913 62.8435,338.913 Z M66.0915,339.074 C66.3225,338.598 66.8125,338.297 67.4355,338.297 L67.4355,338.899 C66.6865,338.899 66.1545,339.312 66.0915,339.942 L66.0915,342 L65.3985,342 L65.3985,338.381 L66.0915,338.381 L66.0915,339.074 Z" id="Slackliner" fill="#FFFFFF" fill-rule="nonzero"></path>
        <path d="M43.4885,32 L43.0685,31.02 L40.5625,31.02 L40.1425,32 L39.3585,32 L41.4235,27.191 L42.2075,27.191 L44.2725,32 L43.4885,32 Z M40.8355,30.383 L42.7955,30.383 L41.8155,28.101 L40.8355,30.383 Z M46.7995,28.297 C47.5975,28.297 48.1575,28.878 48.1575,29.697 L48.1575,32 L47.4785,32 L47.4785,29.816 C47.4785,29.277 47.1355,28.899 46.6455,28.899 C46.1415,28.899 45.7075,29.228 45.6515,29.655 L45.6515,32 L44.9585,32 L44.9585,28.381 L45.6515,28.381 L45.6515,28.906 C45.8685,28.549 46.3095,28.297 46.7995,28.297 Z M50.8595,32.084 C49.8305,32.084 48.9555,31.216 48.9555,30.187 C48.9555,29.158 49.8305,28.297 50.8665,28.297 C51.3845,28.297 51.8535,28.514 52.1965,28.857 L51.7275,29.291 C51.5105,29.046 51.1955,28.899 50.8595,28.899 C50.2015,28.899 49.6555,29.487 49.6555,30.187 C49.6555,30.894 50.2015,31.482 50.8665,31.482 C51.2025,31.482 51.5245,31.328 51.7485,31.076 L52.2175,31.503 C51.8675,31.86 51.3985,32.084 50.8595,32.084 Z M54.8005,28.297 C55.5985,28.297 56.1585,28.878 56.1585,29.697 L56.1585,32 L55.4795,32 L55.4795,29.816 C55.4795,29.277 55.1365,28.899 54.6465,28.899 C54.1005,28.899 53.6455,29.284 53.6455,29.753 L53.6455,32 L52.9595,32 L52.9595,27.107 L53.6455,27.107 L53.6455,28.92 C53.8625,28.556 54.3035,28.297 54.8005,28.297 Z M58.8675,32.084 C57.8315,32.084 56.9565,31.216 56.9565,30.187 C56.9565,29.158 57.8315,28.297 58.8675,28.297 C59.8965,28.297 60.7645,29.158 60.7645,30.187 C60.7645,31.216 59.8965,32.084 58.8675,32.084 Z M58.8675,31.482 C59.5185,31.482 60.0715,30.894 60.0715,30.187 C60.0715,29.487 59.5185,28.899 58.8675,28.899 C58.2025,28.899 57.6495,29.487 57.6495,30.187 C57.6495,30.894 58.2025,31.482 58.8675,31.482 Z M62.3045,29.074 C62.5355,28.598 63.0255,28.297 63.6485,28.297 L63.6485,28.899 C62.8995,28.899 62.3675,29.312 62.3045,29.942 L62.3045,32 L61.6115,32 L61.6115,28.381 L62.3045,28.381 L62.3045,29.074 Z" id="Anchor" fill="#FFFFFF" fill-rule="nonzero"></path>
    </g>
</svg>