<svg width="88" height="88" viewBox="0 0 88 88" xmlns="http://www.w3.org/2000/svg"><path d="M44 0C19.723 0 0 19.723 0 44s19.723 44 44 44 44-19.723 44-44S68.277 0 44 0zm0 4c22.115 0 40 17.885 40 40S66.115 84 44 84 4 66.115 4 44 21.885 4 44 4zm0 16c-7.708 0-14 6.292-14 14a2 2 0 104 0 9.97 9.97 0 0110-10 9.97 9.97 0 0110 10c0 3.406-1.4 5.814-3.563 8.094-2.163 2.279-5.087 4.263-7.687 6.343A2 2 0 0042 50v6a2 2 0 104 0v-5.031c2.28-1.763 4.973-3.66 7.313-6.125C55.898 42.118 58 38.575 58 34c0-7.708-6.292-14-14-14zm0 42a3 3 0 100 6 3 3 0 000-6z" fill="#FFF" fill-rule="nonzero"/></svg>