<svg width="239" height="290" viewBox="0 0 239 290" xmlns="http://www.w3.org/2000/svg"><g fill="none" fill-rule="evenodd"><path d="M.021 294.803h238.11V87.874H.021z"/><path d="M110.269 149.211c-.226-.201-.113-.521-.258-.741-.329-.48-1.05-.129-1.227-.854-.145-.569-.078-1.198-.207-1.768-.119-.479-.289-1.508-.68-1.855-.378-.328-1.223-.036-1.542.273-.462.447.046.992.203 1.461.378 1.072.515 2.283 1.351 3.155 1.128 1.176 1.378 2.332 2.003 2.723l1.171.453s.305-.572.269-.951c-.036-.432-.209-1.116-.441-1.481-.187-.283-.433-.224-.642-.415" fill="#1A1919"/><path d="M119.078 175.748c-31.473 0-61.128-8.934-83.504-25.156C12.648 133.97.022 111.697.022 87.874s12.626-46.096 35.552-62.718C57.95 8.934 87.605 0 119.078 0c31.471 0 61.128 8.934 83.503 25.156 22.925 16.622 35.551 38.895 35.551 62.718s-12.626 46.096-35.55 62.718c-22.376 16.222-52.033 25.156-83.504 25.156zM98.415 146.99c.09-.602.505-1.755.683-2.349.213-.731.213-1.524.403-2.264.2-.77.253-1.564.4-2.344.332-1.795 1.111-3.468 1.704-5.192.335-.971.87-1.861 1.437-2.716.263-.397.547-.783.75-1.218.231-.496.29-1.051.532-1.544.27-.563.646-1.064.867-1.649.186-.476.246-1.007.425-1.499.401-1.108.851-2.201 1.228-3.318.304-.897.834-1.767 1.026-2.694.162-.764.135-1.625.01-2.397-.123-.74-.447-1.411-.499-2.162-.12-1.711-.804-3.026-1.238-4.635-.423-1.585-1.057-3.116-1.491-4.703-.823-2.995-3.115-5.586-3.205-8.789-.017-.863-.085-1.348-.505-2.09-.421-.739-.392-1.562-.433-2.378-.035-.808-.18-1.754.248-2.485.605-1.018.889-2.197.656-3.363-.201-1.026-.708-1.968-.647-3.04.106-1.809-.711-4.691-2.115-5.942-.314-.281-.584-.366-.793-.756-.184-.353-.305-.72-.517-1.065-.481-.789-1.002-1.458-1.158-2.395-.167-.982-.077-2.012-.429-2.96-.383-1.032-1.24-.552-1.964-.131-1.282.739-2.515 1.563-3.78 2.335-1.19.72-2.453 1.308-3.639 2.024-.893.538-1.899.775-2.837 1.22-.887.412-1.871.71-2.641 1.333-.78.634-1.327 1.474-2.206 1.99-.878.51-1.882.787-2.675 1.438-1.054.868-1.931 1.455-3.211 1.935-.692.258-1.401.546-2.086.819-.226.089-.574.303-.809.313-.527.042-.798-.874-1.357-1.004-.529-.124-1.176.057-1.629.318-.568.314-.539.81-.665 1.376-.053.26-.186.99-.451 1.108-.41.188-.46-.391-.482-.655-.018-.171-.18-1.097-.168-1.135-.223.446-.262.751-.215 1.243.021.271.021.398-.11.609-.207.314-.45.67-.831.46-.273-.146-.477-.69-.477-.978 0-.662.139-1.421.226-2.087.237-1.958 1.92-3.091 3.741-3.583.374-.101.724-.117 1.095-.262.251-.102.545-.053.778-.149.342-.148.752-.762.858-1.092.172-.488.172-.864.568-1.26.377-.373.808-.636 1.241-.926.585-.38 1.195-.68 1.64-1.214.472-.563 1.078-1.062 1.47-1.679.502-.792 1.363-1.166 1.97-1.885.539-.633 1.014-1.346 1.608-1.932.526-.524 1.015-1.073 1.529-1.6.536-.541 1.241-.918 1.845-1.344.782-.543 1.782-.627 2.613-1.074.291-.158.647-.314.917-.506.374-.281.569-.747.927-1.04.46-.375.913-.675 1.29-1.14.523-.656.956-1.308 1.533-1.923a24.183 24.183 0 0 1 1.605-1.597c1.091-.964 1.795-2.146 2.698-3.257.422-.527 1.11-.753 1.462-1.335.163-.279.319-.564.579-.764.232-.18.536-.218.7-.465.323-.497-.061-1.214.026-1.753.033-.202.1-.489.197-.704.082-.144.176-.28.272-.408.654-.862.783-.973 1.825-1.441 1.005-.447 1.25-1.109 2-1.73.846-.697 1.62-.617 1.26-1.958-.237-.866-.992-1.283-1.372-2.074-.498-1.076-.695-1.941-1.118-3.133-.065-.547-.21-1.465-.206-1.694a6.327 6.327 0 0 1 .822-2.92c1.189-2.155 4.204-3.469 6.57-3.471 1.391 0 2.904.42 3.984 1.33.493.418.885.93 1.175 1.497.256.513.325 1.003.646 1.558.428.729.296 1.158.057 1.496-.163.232.031.577-.061.816-.125.322.023.571.05.905.042.422-.068.853-.012 1.282.054.414.214.813.262 1.228.073.696-.544 1.8.119 2.35.554.452 1.388-.071 2.02.094.258.065.67.21.924.134.643-.187 1.3-.906 1.902-1.236a15.584 15.584 0 0 1 2.28-.971c1.519-.534 3.093-.913 4.625-1.418 1.225-.409 2.422-.669 3.498-1.423.987-.693 2.15-1.214 3.079-1.961.992-.792 1.576-1.956 2.594-2.752 1.101-.86 1.997-1.773 2.982-2.757.913-.908 2.114-1.455 2.942-2.457.871-1.039 1.571-2.059 2.638-2.926.959-.776 1.694-1.683 2.109-2.865.546-1.563-.511-3.56.49-4.973.359-.525.625-1.042.998-1.556.391-.552.509-1.073 1.125-1.412.411-.23.721-.683 1.178-.834.41-.127 1.073-.106 1.505-.064.306.03.508.175.754.192.489.033 1.274-.222 1.626.288.389.566-.54.769-.935.964-.371.181-.989.486-1.184.852.47.04.813.007 1.261-.034.256-.028 1.124-.184 1.308 0 .364.376-.362.772-.618.884-.383.163-.639.345-.969.615-.879.712-.793 2.6-.989 3.632-.117.633-.164 1.303-.391 1.92-.206.533-.671.906-.837 1.448-.167.508-.064 1.072.008 1.588.2 1.373-.662 1.627-1.455 2.541-.505.593-.542 1.289-1.118 1.852-.609.593-.826 1.307-1.259 2.018-1.407 2.302-3.258 4.264-5.064 6.257-.482.519-.828 1.14-1.301 1.679a16.16 16.16 0 0 1-1.304 1.344c-2.765 2.555-5.58 4.989-8.471 7.405-.817.685-1.707 1.387-2.207 2.358-.831 1.616-.902 3.85-1.091 5.631-.217 2.053-.284 4.144-.002 6.194.14.979.297 1.965.302 2.957.013 2.249-.493 4.835.349 6.99.349.898 1.128 1.375.706 2.489-.136.346-.48.505-.651.825-.207.409-.074.857-.038 1.296.105 1.493.736 3.141.32 4.617-.626 2.228.331 4.46.316 6.702-.01.748-.3 1.445-.427 2.171-.126.752-.119 1.517-.066 2.272.066 1.006-.124 1.95-.267 2.946-.122.861-.159 1.739-.314 2.598-.153.852-.383 1.691-.421 2.557-.027.842.147 1.679.065 2.521-.075.807-.328 1.612-.594 2.379-.533 1.52-1.254 2.969-1.811 4.475-.435 1.151-.658 2.368-1.049 3.529-.164.482-.342.996-.616 1.435-.232.37-.567.652-.682 1.087-.19.714-.114 1.476-.155 2.2-.064 1.168-.212 2.346-.722 3.408-.437.929-1.086 1.744-1.528 2.674-.769 1.609-.428 3.385-.297 5.091.139 1.887-.376 3.759-.167 5.636.103.976-.005 1.939.116 2.908.113.939.259 1.867.282 2.815.018.883.242 1.9.148 2.772-.048.47-.222.681-.591.946-.155.117-.481.163-.586.339-.159.284.167.527.073.809-.086.272-.473.291-.553.562-.084.292.218.555.38.759.478.609.708 1.162 1.039 1.841.354.724 1.039 1.129 1.656 1.597.146.113.479.347.834.636 10.839-2.423 45.432-10.51 96.039-24.053 10.04-12.267 15.811-26.587 15.811-41.886 0 .75-.015 1.496-.044 2.241.025-.764.041-1.53.043-2.3-.044-45.373-50.791-82.146-113.384-82.146-62.621 0-113.386 36.805-113.386 82.205 0 6.329.988 12.491 2.856 18.409 34.179 16.35 70.192 32.276 89.867 40.74l.001-.033zm23.011 8.824c-.892.455-2.057.028-2.725.148-.496.09-1.212.184-1.664.37-.489.205-1.042.087-1.562 0l-.117-.017-.057.011s-.028-.012-.069-.034c-.496-.065-.917-.107-1.372-.379-.502-.298-.878-.268-1.324-.646-.106-.085-.204-.159-.299-.243-1.094-.459-2.469-1.04-4.103-1.73 0 0-.655.071-1.379-.392-.466-.299-1.416.116-2.498-1.243-16.516-6.954-53.667-22.4-92.976-38.239 14.82 32.892 57.476 56.659 107.796 56.659 37.695 0 71.088-13.339 91.704-33.86-44.568 9.734-76.808 16.362-89.076 18.828.124.305.08.578-.279.767z" fill="#FFF"/><path d="M232.461 87.811v.004l.001.059-.001-.063M232.462 87.874l-.001-.059c-.002.77-.018 1.536-.043 2.3.029-.745.044-1.491.044-2.241" fill="#1A1919"/><path d="M111.083 152.058l-1.171-.453c-.625-.391-.875-1.547-2.003-2.723-.836-.872-.973-2.083-1.351-3.155-.157-.469-.665-1.014-.203-1.461.319-.309 1.164-.601 1.542-.273.391.347.561 1.376.68 1.855.129.57.062 1.199.207 1.768.177.725.898.374 1.227.854.145.22.032.54.258.741.209.191.455.132.642.415.232.365.405 1.049.441 1.481.036.379-.269.951-.269.951zm105.568-22.298c-50.607 13.543-85.2 21.63-96.039 24.053-.355-.289-.688-.523-.834-.636-.617-.468-1.302-.873-1.656-1.597-.331-.679-.561-1.232-1.039-1.841-.162-.204-.464-.467-.38-.759.08-.271.467-.29.553-.562.094-.282-.232-.525-.073-.809.105-.176.431-.222.586-.339.369-.265.543-.476.591-.946.094-.872-.13-1.889-.148-2.772-.023-.948-.169-1.876-.282-2.815-.121-.969-.013-1.932-.116-2.908-.209-1.877.306-3.749.167-5.636-.131-1.706-.472-3.482.297-5.091.442-.93 1.091-1.745 1.528-2.674.51-1.062.658-2.24.722-3.408.041-.724-.035-1.486.155-2.2.115-.435.45-.717.682-1.087.274-.439.452-.953.616-1.435.391-1.161.614-2.378 1.049-3.529.557-1.506 1.278-2.955 1.811-4.475.266-.767.519-1.572.594-2.379.082-.842-.092-1.679-.065-2.521.038-.866.268-1.705.421-2.557.155-.859.192-1.737.314-2.598.143-.996.333-1.94.267-2.946-.053-.755-.06-1.52.066-2.272.127-.726.417-1.423.427-2.171.015-2.242-.942-4.474-.316-6.702.416-1.476-.215-3.124-.32-4.617-.036-.439-.169-.887.038-1.296.171-.32.515-.479.651-.825.422-1.114-.357-1.591-.706-2.489-.842-2.155-.336-4.741-.349-6.99-.005-.992-.162-1.978-.302-2.957-.282-2.05-.215-4.141.002-6.194.189-1.781.26-4.015 1.091-5.631.5-.971 1.39-1.673 2.207-2.358 2.891-2.416 5.706-4.85 8.471-7.405.465-.426.903-.88 1.304-1.344.473-.539.819-1.16 1.301-1.679 1.806-1.993 3.657-3.955 5.064-6.257.433-.711.65-1.425 1.259-2.018.576-.563.613-1.259 1.118-1.852.793-.914 1.655-1.168 1.455-2.541-.072-.516-.175-1.08-.008-1.588.166-.542.631-.915.837-1.448.227-.617.274-1.287.391-1.92.196-1.032.11-2.92.989-3.632.33-.27.586-.452.969-.615.256-.112.982-.508.618-.884-.184-.184-1.052-.028-1.308 0-.448.041-.791.074-1.261.034.195-.366.813-.671 1.184-.852.395-.195 1.324-.398.935-.964-.352-.51-1.137-.255-1.626-.288-.246-.017-.448-.162-.754-.192-.432-.042-1.095-.063-1.505.064-.457.151-.767.604-1.178.834-.616.339-.734.86-1.125 1.412-.373.514-.639 1.031-.998 1.556-1.001 1.413.056 3.41-.49 4.973-.415 1.182-1.15 2.089-2.109 2.865-1.067.867-1.767 1.887-2.638 2.926-.828 1.002-2.029 1.549-2.942 2.457-.985.984-1.881 1.897-2.982 2.757-1.018.796-1.602 1.96-2.594 2.752-.929.747-2.092 1.268-3.079 1.961-1.076.754-2.273 1.014-3.498 1.423-1.532.505-3.106.884-4.625 1.418-.783.269-1.551.582-2.28.971-.602.33-1.259 1.049-1.902 1.236-.254.076-.666-.069-.924-.134-.632-.165-1.466.358-2.02-.094-.663-.55-.046-1.654-.119-2.35-.048-.415-.208-.814-.262-1.228-.056-.429.054-.86.012-1.282-.027-.334-.175-.583-.05-.905.092-.239-.102-.584.061-.816.239-.338.371-.767-.057-1.496-.321-.555-.39-1.045-.646-1.558a4.844 4.844 0 0 0-1.175-1.497c-1.08-.91-2.593-1.33-3.984-1.33-2.366.002-5.381 1.316-6.57 3.471a6.327 6.327 0 0 0-.822 2.92c-.004.229.141 1.147.206 1.694.423 1.192.62 2.057 1.118 3.133.38.791 1.135 1.208 1.372 2.074.36 1.341-.414 1.261-1.26 1.958-.75.621-.995 1.283-2 1.73-1.042.468-1.171.579-1.825 1.441-.096.128-.19.264-.272.408a3.073 3.073 0 0 0-.197.704c-.087.539.297 1.256-.026 1.753-.164.247-.468.285-.7.465-.26.2-.416.485-.579.764-.352.582-1.04.808-1.462 1.335-.903 1.111-1.607 2.293-2.698 3.257a24.183 24.183 0 0 0-1.605 1.597c-.577.615-1.01 1.267-1.533 1.923-.377.465-.83.765-1.29 1.14-.358.293-.553.759-.927 1.04-.27.192-.626.348-.917.506-.831.447-1.831.531-2.613 1.074-.604.426-1.309.803-1.845 1.344-.514.527-1.003 1.076-1.529 1.6-.594.586-1.069 1.299-1.608 1.932-.607.719-1.468 1.093-1.97 1.885-.392.617-.998 1.116-1.47 1.679-.445.534-1.055.834-1.64 1.214-.433.29-.864.553-1.241.926-.396.396-.396.772-.568 1.26-.106.33-.516.944-.858 1.092-.233.096-.527.047-.778.149-.371.145-.721.161-1.095.262-1.821.492-3.504 1.625-3.741 3.583-.087.666-.226 1.425-.226 2.087 0 .288.204.832.477.978.381.21.624-.146.831-.46.131-.211.131-.338.11-.609-.047-.492-.008-.797.215-1.243-.012.038.15.964.168 1.135.022.264.072.843.482.655.265-.118.398-.848.451-1.108.126-.566.097-1.062.665-1.376.453-.261 1.1-.442 1.629-.318.559.13.83 1.046 1.357 1.004.235-.01.583-.224.809-.313.685-.273 1.394-.561 2.086-.819 1.28-.48 2.157-1.067 3.211-1.935.793-.651 1.797-.928 2.675-1.438.879-.516 1.426-1.356 2.206-1.99.77-.623 1.754-.921 2.641-1.333.938-.445 1.944-.682 2.837-1.22 1.186-.716 2.449-1.304 3.639-2.024 1.265-.772 2.498-1.596 3.78-2.335.724-.421 1.581-.901 1.964.131.352.948.262 1.978.429 2.96.156.937.677 1.606 1.158 2.395.212.345.333.712.517 1.065.209.39.479.475.793.756 1.404 1.251 2.221 4.133 2.115 5.942-.061 1.072.446 2.014.647 3.04.233 1.166-.051 2.345-.656 3.363-.428.731-.283 1.677-.248 2.485.041.816.012 1.639.433 2.378.42.742.488 1.227.505 2.09.09 3.203 2.382 5.794 3.205 8.789.434 1.587 1.068 3.118 1.491 4.703.434 1.609 1.118 2.924 1.238 4.635.052.751.376 1.422.499 2.162.125.772.152 1.633-.01 2.397-.192.927-.722 1.797-1.026 2.694-.377 1.117-.827 2.21-1.228 3.318-.179.492-.239 1.023-.425 1.499-.221.585-.597 1.086-.867 1.649-.242.493-.301 1.048-.532 1.544-.203.435-.487.821-.75 1.218-.567.855-1.102 1.745-1.437 2.716-.593 1.724-1.372 3.397-1.704 5.192-.147.78-.2 1.574-.4 2.344-.19.74-.19 1.533-.403 2.264-.178.594-.593 1.747-.683 2.349l-.001.033c-19.675-8.464-55.688-24.39-89.867-40.74a65.021 65.021 0 0 0 2.734 7.137c39.309 15.839 76.46 31.285 92.976 38.239 1.082 1.359 2.032.944 2.498 1.243.724.463 1.379.392 1.379.392 1.634.69 3.009 1.271 4.103 1.73.095.084.193.158.299.243.446.378.822.348 1.324.646.455.272.876.314 1.372.379a.972.972 0 0 0 .069.034l.057-.011.117.017c.52.087 1.073.205 1.562 0 .452-.186 1.168-.28 1.664-.37.668-.12 1.833.307 2.725-.148.359-.189.403-.462.279-.767 12.268-2.466 44.508-9.094 89.076-18.828a85.605 85.605 0 0 0 5.87-6.459z" fill="#FFFFFE"/><path d="M16.836 289.133c-9.692 0-11.506-5.703-11.09-12.184h7.825c0 3.579.156 6.584 4.457 6.584 2.643 0 3.94-1.71 3.94-4.25 0-6.74-15.758-7.154-15.758-18.3 0-5.86 2.8-10.524 12.336-10.524 7.619 0 11.403 3.42 10.884 11.248h-7.618c0-2.799-.467-5.65-3.629-5.65-2.539 0-4.042 1.4-4.042 3.992 0 7.104 15.756 6.481 15.756 18.248 0 9.695-7.101 10.836-13.061 10.836M33.468 288.51v-37.43h7.827v31.209h11.713v6.221h-19.54M69.694 258.287h-.105l-3.575 16.174h7.463l-3.783-16.174zM54.612 288.51l10.365-37.43h10.314l10.159 37.43h-8.242l-2.073-8.295H64.458l-2.125 8.295h-7.721zM86.688 269.795c0-9.902 0-19.336 12.905-19.336 7.984 0 11.197 4.407 10.886 12.442h-7.672c0-4.977-.881-6.844-3.214-6.844-4.405 0-4.975 4.148-4.975 13.738 0 9.592.57 13.738 4.975 13.738 3.628 0 3.473-4.666 3.577-7.621h7.723c0 10.006-3.991 13.221-11.3 13.221-12.905 0-12.905-9.539-12.905-19.338M131.724 251.08h8.604l-10.47 16.797 10.47 20.633h-8.812l-8.967-19.18h-.103v19.18h-7.826v-37.43h7.826v16.02h.103l9.175-16.02M143.951 288.51v-37.43h7.827v31.209h11.711v6.221h-19.538M166.905 288.51h7.826v-37.43h-7.826zM179.188 288.51v-37.43h10.572l9.952 25.922h.104V251.08h7.309v37.43h-10.316L186.6 261.137h-.103v27.373h-7.309M211.626 288.51v-37.43h20.836v5.754h-13.008v9.229h11.608v5.754h-11.608v10.939h13.008v5.754h-20.836M22.448 212.731c-.105-4.539-1.244-7.295-6.321-7.295-4.044 0-6.582 1.377-6.582 5.715 0 5.457 2.798 5.609 7.048 8.619 4.611 3.265 9.326 4.234 9.326 11.375 0 6.582-3.421 9.795-9.948 9.795-7.306 0-10.571-3.877-10.26-11.071h3.42c0 4.082.311 8.315 6.996 8.315 4.352 0 6.475-2.293 6.475-6.529 0-4.998-3.368-6.426-8.757-9.692-7.254-4.387-7.563-6.58-7.616-10.252-.052-6.377 4.042-9.029 10.156-9.029 7.773 0 9.43 4.744 9.43 10.049h-3.367M47.055 203.395h4.457l7.513 32.291h.104l7.978-32.291h3.265l-9.275 36.83h-4.352l-7.514-32.748h-.104l-7.719 32.748h-4.146l-9.015-36.83h3.523l7.564 32.545h.105l7.616-32.545M73.94 240.225h3.317v-36.83H73.94zM98.861 212.731c-.104-4.539-1.243-7.295-6.322-7.295-4.041 0-6.58 1.377-6.58 5.715 0 5.457 2.798 5.609 7.047 8.619 4.612 3.265 9.327 4.234 9.327 11.375 0 6.582-3.42 9.795-9.95 9.795-7.306 0-10.569-3.877-10.258-11.071h3.419c0 4.082.311 8.315 6.995 8.315 4.353 0 6.477-2.293 6.477-6.529 0-4.998-3.368-6.426-8.757-9.692-7.253-4.387-7.564-6.58-7.616-10.252-.052-6.377 4.041-9.029 10.155-9.029 7.773 0 9.43 4.744 9.43 10.049h-3.367M122.692 212.731c-.104-4.539-1.243-7.295-6.32-7.295-4.043 0-6.581 1.377-6.581 5.715 0 5.457 2.797 5.609 7.046 8.619 4.612 3.265 9.327 4.234 9.327 11.375 0 6.582-3.42 9.795-9.948 9.795-7.305 0-10.57-3.877-10.26-11.071h3.419c0 4.082.311 8.315 6.997 8.315 4.35 0 6.475-2.293 6.475-6.529 0-4.998-3.367-6.426-8.757-9.692-7.253-4.387-7.564-6.58-7.617-10.252-.051-6.377 4.043-9.029 10.156-9.029 7.773 0 9.431 4.744 9.431 10.049h-3.368" fill="#FFF"/><path d="M133.25 240.237h99.21v-36.852h-99.21v36.852z" stroke="#FFF" stroke-width="2"/><path fill="#FFFFFE" d="M226.793 217.559h-8.503v-8.504h-8.504v8.504h-8.504v8.504h8.504v8.504h8.504v-8.504h8.503v-8.504"/></g></svg>