<svg width="205" height="248" viewBox="0 0 205 248" xmlns="http://www.w3.org/2000/svg"><g fill="none" fill-rule="evenodd"><path d="M204.114-6H-1.113C-3.801-6-6-3.798-6-1.105v283.21C-6 284.797-3.801 287-1.113 287h205.227c2.686 0 4.886-2.203 4.886-4.895V-1.105C209-3.798 206.8-6 204.114-6"/><path d="M93.162 129.573c-.173-.172-.087-.445-.198-.632-.253-.41-.809-.11-.947-.729-.11-.485-.06-1.02-.158-1.507-.094-.408-.224-1.286-.524-1.582-.293-.28-.944-.03-1.189.233-.356.38.035.846.157 1.245.29.915.395 1.947 1.041 2.691.868 1.003 1.061 1.99 1.543 2.322l.903.386s.234-.487.208-.81c-.029-.368-.162-.952-.342-1.263-.143-.242-.333-.192-.494-.354" fill="#AB3226"/><path d="M83.82 127.829c.084-.545.46-1.588.62-2.125.193-.66.193-1.378.364-2.047.18-.697.228-1.416.362-2.12.298-1.625 1.004-3.138 1.54-4.697.302-.878.786-1.683 1.3-2.457.235-.36.493-.708.677-1.102.208-.448.26-.95.48-1.397.244-.508.585-.961.784-1.49.168-.432.223-.911.385-1.356.362-1.003.768-1.991 1.11-3.003.275-.81.754-1.598.926-2.435.148-.692.123-1.47.01-2.169-.111-.67-.403-1.276-.451-1.955-.108-1.549-.726-2.737-1.118-4.193-.383-1.434-.956-2.819-1.349-4.254-.744-2.71-2.816-5.052-2.898-7.95-.013-.78-.076-1.22-.454-1.89-.382-.669-.356-1.414-.393-2.151-.032-.731-.162-1.586.225-2.248.546-.92.803-1.987.592-3.042-.182-.928-.64-1.78-.584-2.75.094-1.636-.643-4.243-1.912-5.374-.284-.255-.53-.332-.717-.684-.168-.32-.276-.651-.468-.963-.433-.714-.905-1.32-1.046-2.167-.153-.888-.07-1.82-.387-2.677-.348-.934-1.122-.5-1.777-.118-1.158.667-2.273 1.413-3.417 2.111-1.075.651-2.218 1.183-3.29 1.83-.807.487-1.716.702-2.565 1.104-.8.372-1.69.643-2.386 1.207-.706.573-1.2 1.333-1.995 1.799-.793.463-1.7.712-2.417 1.302-.953.784-1.748 1.316-2.904 1.75-.625.232-1.266.493-1.887.74-.202.081-.516.274-.732.283-.473.037-.72-.791-1.226-.908-.476-.112-1.062.052-1.47.288-.513.284-.488.732-.603 1.245-.048.234-.168.895-.407 1.002-.371.17-.415-.354-.436-.593-.016-.154-.162-.992-.152-1.026-.2.402-.237.679-.195 1.124.02.245.02.36-.101.55-.185.285-.405.606-.75.417-.246-.132-.43-.624-.43-.885 0-.598.126-1.286.203-1.887.215-1.771 1.737-2.796 3.383-3.241.338-.092.655-.106.991-.238.226-.092.493-.048.703-.134.308-.135.679-.69.774-.988.157-.441.157-.782.515-1.14.34-.338.73-.575 1.12-.837.53-.344 1.084-.615 1.485-1.098.426-.51.973-.961 1.327-1.519.455-.716 1.233-1.055 1.783-1.705.485-.573.916-1.217 1.452-1.747.474-.475.917-.971 1.384-1.447.482-.49 1.12-.83 1.665-1.217.707-.49 1.61-.567 2.363-.97.263-.144.586-.285.828-.459.34-.253.515-.676.839-.94.416-.34.826-.611 1.167-1.032.471-.593.865-1.183 1.384-1.74.473-.501.935-.983 1.453-1.443.986-.873 1.623-1.942 2.438-2.947.382-.476 1.003-.681 1.323-1.208.147-.251.288-.509.523-.69.208-.163.485-.197.632-.421.29-.45-.054-1.097.025-1.585.03-.183.09-.443.176-.638.074-.13.16-.253.247-.368.592-.78.706-.88 1.648-1.304.909-.404 1.13-1.003 1.81-1.565.764-.63 1.464-.558 1.138-1.771-.213-.783-.894-1.16-1.24-1.875-.45-.974-.627-1.756-1.011-2.835-.058-.494-.189-1.325-.185-1.532a5.736 5.736 0 0 1 .741-2.641c1.077-1.949 3.802-3.138 5.94-3.14 1.257 0 2.625.38 3.604 1.203.444.378.798.842 1.06 1.355.232.464.296.906.585 1.409.386.66.267 1.047.052 1.353-.148.21.028.521-.056.738-.115.29.021.516.044.819.037.382-.06.771-.01 1.16.047.373.195.735.237 1.11.068.63-.494 1.629.107 2.126.502.409 1.256-.065 1.828.084.233.06.605.19.833.122.58-.17 1.177-.82 1.72-1.118a13.847 13.847 0 0 1 2.062-.878c1.374-.483 2.794-.826 4.18-1.283 1.108-.37 2.19-.605 3.163-1.287.89-.626 1.942-1.099 2.783-1.774.897-.717 1.424-1.77 2.345-2.49.996-.777 1.806-1.603 2.695-2.493.825-.821 1.912-1.316 2.66-2.223.79-.939 1.42-1.862 2.385-2.646.867-.702 1.533-1.522 1.907-2.592.494-1.413-.463-3.219.441-4.497.325-.476.565-.944.902-1.409.354-.499.461-.97 1.019-1.276.371-.209.652-.618 1.065-.754.37-.116.97-.097 1.36-.059.277.028.46.159.681.174.444.03 1.151-.201 1.47.26.352.512-.487.696-.846.873-.334.163-.894.439-1.07.77.425.036.736.006 1.142-.03.229-.026 1.014-.167 1.181 0 .328.34-.327.698-.559.8-.345.146-.576.311-.874.555-.798.644-.717 2.352-.895 3.285-.106.574-.146 1.18-.355 1.737-.186.482-.605.819-.757 1.31-.15.459-.056.97.008 1.436.18 1.242-.597 1.471-1.314 2.298-.457.537-.49 1.167-1.012 1.676-.55.536-.745 1.182-1.137 1.825-1.274 2.083-2.947 3.858-4.579 5.66-.435.47-.749 1.031-1.176 1.519-.361.42-.757.83-1.178 1.215-2.5 2.311-5.045 4.513-7.658 6.699-.738.62-1.542 1.254-1.996 2.132-.752 1.462-.813 3.483-.986 5.093-.195 1.858-.256 3.749-.002 5.603.127.886.268 1.777.273 2.675.012 2.034-.444 4.373.316 6.323.315.811 1.021 1.244.638 2.25-.121.314-.432.458-.588.747-.187.37-.068.776-.035 1.172.096 1.35.665 2.841.29 4.176-.565 2.016.3 4.035.286 6.062-.01.677-.273 1.308-.385 1.965-.115.68-.108 1.372-.06 2.055.06.91-.114 1.763-.242 2.664-.11.78-.143 1.573-.284 2.35-.139.77-.346 1.53-.38 2.313-.025.761.133 1.518.059 2.28-.068.73-.297 1.458-.538 2.153-.482 1.374-1.134 2.685-1.638 4.047-.393 1.041-.595 2.142-.948 3.192-.147.435-.31.901-.557 1.298-.208.335-.511.59-.615.983-.172.647-.105 1.336-.14 1.99-.059 1.057-.193 2.121-.654 3.083-.395.84-.981 1.578-1.382 2.419-.692 1.456-.387 3.061-.266 4.604.125 1.708-.341 3.401-.153 5.098.094.883-.005 1.754.105 2.63.104.85.235 1.69.256 2.548.016.797.219 1.718.134 2.506-.044.426-.201.616-.535.856-.14.106-.436.147-.53.306-.142.257.152.478.068.733-.08.245-.43.263-.502.507-.077.265.197.503.344.687.43.551.64 1.052.94 1.666.319.654.938 1.02 1.496 1.444.131.103.432.314.753.575 9.8-2.192 41.072-9.506 86.819-21.756C199.783 101.148 205 88.196 205 74.357c0 .678-.014 1.354-.039 2.027.02-.692.036-1.384.037-2.081C204.958 33.263 159.084 0 102.5 0 45.89 0 0 33.29 0 74.357c0 5.725.894 11.298 2.581 16.651 30.899 14.789 63.454 29.196 81.239 36.85v-.03" fill="#AB3226"/><path d="M103.931 135.907c-.808.418-1.866.027-2.472.137-.45.083-1.1.168-1.51.34-.443.188-.945.08-1.417 0l-.107-.017a.448.448 0 0 0-.05.011l-.064-.031c-.45-.06-.833-.099-1.243-.348-.458-.274-.798-.246-1.202-.593-.096-.078-.186-.146-.273-.223l-3.72-1.588s-.596.064-1.252-.36c-.424-.274-1.285.107-2.266-1.14C73.369 125.713 39.665 111.537 4 97c13.446 30.188 52.147 52 97.799 52 34.2 0 64.498-12.244 83.201-31.076-40.436 8.934-69.685 15.017-80.816 17.28.114.28.073.53-.253.703M203.499 73.466v.005l.002.063-.002-.068M203.523 75.026L203.52 75c-.002.335-.02.668-.043 1 .028-.324.044-.648.044-.974" fill="#4D4E4C"/><path d="M93.632 132.02l-1.059-.41c-.564-.355-.79-1.403-1.808-2.47-.757-.791-.88-1.89-1.221-2.862-.143-.425-.6-.92-.183-1.325.287-.28 1.05-.545 1.393-.247.352.315.505 1.248.614 1.682.116.517.057 1.087.186 1.603.162.658.813.34 1.11.775.13.2.03.49.232.673.188.172.411.119.579.376.21.331.367.951.4 1.343.032.343-.243.862-.243.862zM189 111.797c-45.716 12.283-76.968 19.617-86.761 21.815-.321-.262-.621-.474-.753-.577-.558-.425-1.176-.792-1.495-1.448-.3-.616-.509-1.118-.94-1.67-.146-.185-.42-.424-.343-.689.073-.244.421-.263.501-.509.085-.255-.21-.477-.067-.734.094-.16.39-.201.53-.307.333-.24.49-.431.534-.859.085-.79-.118-1.713-.134-2.513-.021-.86-.152-1.701-.256-2.554-.11-.878-.01-1.752-.104-2.637-.189-1.701.277-3.4.152-5.112-.12-1.547-.426-3.157.266-4.616.4-.843.987-1.584 1.382-2.426.46-.964.594-2.031.653-3.09.035-.657-.032-1.348.14-1.997.103-.393.406-.65.614-.985.248-.397.41-.865.557-1.3.353-1.054.555-2.158.947-3.202.504-1.366 1.156-2.68 1.638-4.058.24-.696.47-1.426.536-2.158.074-.764-.083-1.523-.058-2.287.033-.785.24-1.546.38-2.318.14-.78.174-1.576.283-2.357.128-.903.302-1.759.242-2.671-.047-.685-.055-1.38.06-2.061.112-.658.375-1.291.385-1.97.014-2.033-.85-4.057-.286-6.078.375-1.339-.193-2.834-.29-4.187-.032-.398-.151-.804.036-1.176.155-.29.466-.433.587-.748.383-1.01-.322-1.443-.637-2.257-.76-1.955-.304-4.3-.316-6.34-.005-.9-.146-1.793-.273-2.682-.254-1.859-.193-3.755.002-5.618.173-1.614.234-3.64.985-5.106.453-.88 1.257-1.517 1.995-2.138 2.611-2.191 5.154-4.4 7.652-6.717.422-.386.817-.798 1.178-1.218.427-.49.74-1.052 1.176-1.523 1.63-1.807 3.303-3.587 4.575-5.675.392-.645.586-1.292 1.137-1.83.522-.51.554-1.142 1.01-1.68.717-.83 1.494-1.06 1.313-2.305-.063-.467-.156-.98-.007-1.44.152-.492.57-.83.757-1.313.208-.56.248-1.167.354-1.742.178-.935.098-2.648.894-3.293.298-.245.53-.41.874-.558.232-.102.887-.46.559-.802-.167-.167-.952-.025-1.18 0-.407.037-.717.067-1.142.031.176-.332.735-.609 1.07-.772.359-.177 1.197-.362.846-.875-.32-.463-1.027-.232-1.47-.261-.221-.016-.404-.147-.681-.174-.39-.038-.99-.058-1.359.058-.413.137-.693.547-1.064.756-.558.308-.664.78-1.018 1.28-.337.467-.577.936-.902 1.412-.903 1.282.053 3.093-.441 4.51-.373 1.073-1.04 1.894-1.905 2.6-.964.785-1.595 1.71-2.384 2.652-.747.91-1.833 1.405-2.658 2.228-.888.893-1.698 1.722-2.693 2.5-.92.723-1.448 1.778-2.343 2.497-.84.677-1.891 1.15-2.782 1.779-.972.684-2.054.92-3.16 1.29-1.385.459-2.805.802-4.178 1.287-.707.243-1.402.527-2.06.88-.544.3-1.139.951-1.72 1.121-.227.069-.6-.063-.832-.122-.572-.15-1.325.325-1.826-.085-.6-.498-.04-1.5-.108-2.13-.042-.377-.19-.74-.236-1.115-.05-.389.047-.78.01-1.163-.023-.303-.16-.53-.044-.82.084-.218-.092-.53.055-.74.215-.307.335-.696-.051-1.357-.29-.504-.353-.948-.585-1.413a4.412 4.412 0 0 0-1.06-1.358c-.978-.825-2.345-1.206-3.601-1.206-2.137.002-4.86 1.194-5.936 3.147a5.766 5.766 0 0 0-.74 2.649c-.004.208.127 1.04.184 1.536.384 1.082.56 1.866 1.011 2.842.345.717 1.026 1.095 1.24 1.88.325 1.217-.375 1.144-1.14 1.776-.677.563-.9 1.165-1.807 1.569-.941.426-1.055.525-1.647 1.308a3.405 3.405 0 0 0-.246.37 2.852 2.852 0 0 0-.177.639c-.079.488.266 1.138-.025 1.589-.147.224-.423.259-.631.421-.235.183-.376.44-.523.693-.32.528-.94.733-1.322 1.211-.815 1.008-1.451 2.08-2.437 2.955-.518.461-.979.944-1.451 1.448-.519.558-.913 1.148-1.383 1.744-.341.421-.75.693-1.167 1.034-.324.265-.5.689-.838.943-.242.174-.565.316-.828.46-.752.404-1.654.48-2.36.973-.546.387-1.183.729-1.665 1.22-.467.477-.91.975-1.383 1.45-.536.532-.966 1.178-1.452 1.752-.549.652-1.326.992-1.78 1.71-.355.56-.901 1.012-1.327 1.523-.401.484-.954.756-1.484 1.1-.39.264-.78.502-1.12.84-.357.36-.357.7-.514 1.143-.095.3-.466.856-.774.99-.21.087-.476.043-.702.135-.335.133-.653.146-.99.239-1.645.446-3.166 1.473-3.381 3.25-.077.602-.203 1.291-.203 1.892 0 .262.184.755.43.887.345.19.564-.132.75-.417.12-.192.12-.307.1-.553-.042-.446-.005-.723.195-1.126-.01.033.136.874.152 1.028.021.24.065.765.436.595.238-.108.358-.77.407-1.005.114-.514.09-.964.601-1.248.409-.237.995-.402 1.47-.29.506.118.752.949 1.226.91.215-.008.529-.201.73-.282.621-.248 1.261-.51 1.886-.743 1.156-.435 1.95-.968 2.902-1.755.717-.59 1.624-.84 2.416-1.305.794-.467 1.288-1.229 1.993-1.803.696-.566 1.585-.837 2.385-1.21.848-.404 1.756-.619 2.563-1.107 1.072-.65 2.213-1.182 3.288-1.835 1.143-.7 2.258-1.448 3.415-2.117.655-.383 1.428-.818 1.776.118.317.86.234 1.794.386 2.685.141.849.613 1.456 1.046 2.172.191.313.3.645.467.966.187.353.433.43.717.685 1.268 1.135 2.005 3.748 1.911 5.39-.057.971.402 1.826.583 2.757.211 1.057-.045 2.126-.592 3.05-.386.663-.256 1.52-.224 2.253.037.74.011 1.487.392 2.157.379.673.442 1.112.454 1.895.082 2.906 2.153 5.255 2.896 7.972.393 1.439.966 2.827 1.349 4.265.391 1.46 1.009 2.652 1.116 4.204.049.681.34 1.29.452 1.96.113.7.138 1.48-.01 2.175-.172.84-.652 1.63-.925 2.442-.343 1.014-.749 2.005-1.11 3.01-.162.447-.217.927-.385 1.36-.2.53-.54.985-.783 1.494-.22.448-.272.952-.48 1.401-.184.395-.442.745-.678 1.105-.512.776-.996 1.583-1.299 2.463-.534 1.564-1.24 3.08-1.538 4.71-.133.706-.183 1.427-.361 2.125-.172.672-.172 1.391-.365 2.054-.16.538-.535 1.584-.619 2.13v.03C64.411 119.778 31.878 105.333 1 90.504a59.213 59.213 0 0 0 2.471 6.474c35.513 14.365 69.073 28.374 83.994 34.68.978 1.233 1.835.857 2.257 1.128.653.419 1.246.356 1.246.356 1.476.625 2.718 1.152 3.705 1.568.087.076.176.144.272.22.402.343.74.316 1.196.587.409.246.79.284 1.238.344.037.019.064.03.064.03l.05-.01.106.016c.47.079.97.186 1.412 0 .407-.17 1.054-.254 1.503-.336.603-.109 1.656.278 2.461-.135.325-.17.365-.419.252-.694 11.083-2.237 40.207-8.248 80.47-17.077a77.636 77.636 0 0 0 5.303-5.858z" fill="#FFFFFE"/><path d="M14.13 248c-8.81 0-10.459-4.867-10.08-10.396h7.11c0 3.053.144 5.618 4.052 5.618 2.404 0 3.583-1.46 3.583-3.626 0-5.751-14.323-6.105-14.323-15.616 0-4.999 2.544-8.98 11.213-8.98 6.924 0 10.362 2.92 9.891 9.599h-6.924c0-2.388-.423-4.822-3.298-4.822-2.308 0-3.674 1.196-3.674 3.407 0 6.06 14.32 5.53 14.32 15.57 0 8.272-6.453 9.246-11.87 9.246M28 247v-32h6.809v26.681H45V247H28M59.206 221.16h-.09l-3.13 13.83h6.533l-3.313-13.83zM46 247l9.077-32h9.03L73 247h-7.214l-1.815-7.092h-9.348L52.763 247H46zM73 231.5c0-8.45 0-16.5 11.73-16.5 7.255 0 10.175 3.76 9.892 10.617H87.65c0-4.246-.8-5.84-2.92-5.84-4.006 0-4.524 3.54-4.524 11.723s.518 11.722 4.524 11.722c3.296 0 3.154-3.981 3.25-6.503H95C95 245.257 91.373 248 84.73 248 73 248 73 239.86 73 231.5M112.639 215H120l-8.96 14.36L120 247h-7.541l-7.674-16.4h-.088V247H98v-32h6.697v13.695h.088L112.64 215M123 247v-32h6.81v26.681H140V247h-17M143 247h7v-32h-7zM153 247v-32h9.083l8.549 22.161h.088V215H177v32h-8.862l-8.77-23.403h-.09V247H153M180 247v-32h19v4.92h-11.864v7.889h10.586v4.919h-10.586v9.353H199V247h-19" fill="#FFF"/><path d="M18.082 182.668c-.087-3.915-1.044-6.292-5.312-6.292-3.397 0-5.532 1.187-5.532 4.93 0 4.707 2.353 4.839 5.925 7.434 3.875 2.818 7.837 3.653 7.837 9.81 0 5.678-2.875 8.45-8.36 8.45-6.142 0-8.884-3.344-8.623-9.55h2.874c0 3.522.26 7.174 5.88 7.174 3.655 0 5.44-1.98 5.44-5.633 0-4.31-2.83-5.542-7.358-8.358-6.096-3.784-6.357-5.676-6.402-8.844C4.41 176.287 7.85 174 12.987 174c6.532 0 7.925 4.093 7.925 8.668h-2.83M40.075 173h3.807l6.42 28.055h.088L57.21 173H60l-7.925 32h-3.72l-6.423-28.453h-.088L35.247 205h-3.543L24 173h3.012l6.464 28.277h.088L40.074 173M63 205h3v-32h-3zM84.081 182.668c-.086-3.915-1.045-6.292-5.312-6.292-3.396 0-5.528 1.187-5.528 4.93 0 4.707 2.35 4.839 5.922 7.434 3.873 2.818 7.837 3.653 7.837 9.81 0 5.678-2.874 8.45-8.36 8.45-6.141 0-8.885-3.344-8.623-9.55h2.873c0 3.522.262 7.174 5.879 7.174 3.659 0 5.444-1.98 5.444-5.633 0-4.31-2.832-5.542-7.36-8.358-6.096-3.784-6.358-5.676-6.4-8.844-.043-5.502 3.394-7.789 8.533-7.789 6.532 0 7.925 4.093 7.925 8.668h-2.83M104.082 182.668c-.087-3.915-1.045-6.292-5.312-6.292-3.399 0-5.53 1.187-5.53 4.93 0 4.707 2.35 4.839 5.922 7.434 3.875 2.818 7.838 3.653 7.838 9.81 0 5.678-2.874 8.45-8.36 8.45-6.14 0-8.885-3.344-8.623-9.55h2.875c0 3.522.26 7.174 5.878 7.174 3.659 0 5.445-1.98 5.445-5.633 0-4.31-2.832-5.542-7.36-8.358-6.097-3.784-6.359-5.676-6.403-8.844-.042-5.502 3.399-7.789 8.536-7.789 6.532 0 7.926 4.093 7.926 8.668h-2.832M194.087 192.693h-7.37v7.385h-7.372v-7.385h-7.373v-7.385h7.373v-7.385h7.372v7.385h7.37v7.385zM113 205h86v-32h-86v32z" fill="#AB3226"/><path fill="#FFFFFE" d="M195 186.333h-7.332V179h-7.333v7.333H173v7.334h7.335V201h7.333v-7.333H195v-7.334"/></g></svg>