<svg width="240" height="39" viewBox="0 0 240 39" xmlns="http://www.w3.org/2000/svg"><g fill-rule="nonzero" fill="none"><path fill="#13A89E" d="M1 9V0h1.208v9zM12.128 8.99L7.035 2.45c-.501-.64-.92-1.213-1.29-1.8.047 1.12.112 4.024.112 5.78V9H5V0h1.177l5.032 6.472c.373.467.71.96 1.033 1.465-.065-1.318-.114-3.755-.114-5.608V0H13v8.99h-.872zM20.448.593V9h-.896V.593H16V0h8v.593zM26 9V0h5v.573h-4.2v3.492h3.86v.573H26.8v3.775H31V9zM39.844 9l-3.927-4.129h-1.025V9H34V.051S35.387 0 36.543 0c2.131 0 3.698.699 3.698 2.296 0 1.658-1.552 2.443-3.319 2.547 0 0 .495.438.976.944L41 9h-1.156zm-4.952-4.7h1.448c1.946 0 2.972-.728 2.972-1.897 0-1.22-1.058-1.844-2.897-1.844-.741 0-1.517.04-1.517.04L34.892 4.3zM51.12 8.99L46.042 2.45c-.499-.64-.916-1.213-1.286-1.8.048 1.12.113 4.024.113 5.78V9H44V0h1.173l5.019 6.472c.37.467.708.96 1.03 1.465-.065-1.318-.113-3.755-.113-5.608V0H52v8.99h-.88zM62.893 9l-1.125-2.36h-5.607L55.02 9H54l4.516-9h1.002L64 9h-1.107zm-3.39-7.017c-.21-.44-.386-.825-.543-1.2h-.019c-.157.375-.332.76-.527 1.17L56.43 6.046h5.043l-1.97-4.063zM68.448.593V9h-.896V.593H64V0h8v.593zM73 9V0h1.208v9zM81.867 10C78.749 10 77 8.017 77 5.095 77 1.795 79.316 0 82.133 0 85.251 0 87 1.983 87 4.907 86.994 8.205 84.666 10 81.867 10zM82 .652c-2.244 0-4.076 1.49-4.076 4.255 0 2.605 1.369 4.443 4.076 4.443 2.244 0 4.076-1.49 4.076-4.27-.005-2.59-1.375-4.428-4.082-4.428H82zM97.14 8.99L92.048 2.45c-.5-.64-.92-1.213-1.29-1.8.048 1.12.113 4.024.113 5.78V9H90V0h1.177l5.032 6.472c.37.467.71.96 1.033 1.465-.065-1.318-.113-3.755-.113-5.608V0H98v8.99h-.86zM108.893 9l-1.125-2.36h-5.604L101.02 9H100l4.516-9h1.002L110 9h-1.107zm-3.375-7.003c-.21-.44-.385-.825-.543-1.2h-.012c-.157.375-.333.76-.527 1.17L102.45 6.06h5.043l-1.976-4.063zM112 8.993V0h.848v8.413H117V9z"/><path d="M33.653 14.564a8.594 8.594 0 0 0-2.427-.343c-1.305 0-1.896.429-1.896 1.08 0 1.82 5.67 1.183 5.67 4.976C35 22.455 33.041 24 29.513 24a16.3 16.3 0 0 1-3.264-.308l.3-2.539a10.3 10.3 0 0 0 3.144.505c1.101 0 1.917-.326 1.917-1.113 0-1.923-5.61-1.186-5.61-4.994C26 13.423 27.998 12 31.445 12a14.54 14.54 0 0 1 2.511.222l-.303 2.342zM36 24V12h3.035v9.582H43V24zM52.813 24l-.77-2.353h-4.359L46.913 24H44l4.04-12h3.87L56 24h-3.187zm-2.443-7.752a18.076 18.076 0 0 1-.489-1.848h-.036c-.121.624-.278 1.24-.47 1.848l-1.053 3.2h3.101l-1.053-3.2zM67 23.488c-1.114.336-2.288.509-3.471.512C58.383 24 57 21.04 57 18.39c0-3.813 2.459-6.39 7.067-6.39.964-.008 1.925.104 2.85.33l-.403 2.467a8.464 8.464 0 0 0-2.502-.366c-2.252 0-3.471 1.375-3.471 3.501 0 2.305 1.116 3.586 3.617 3.586a6.9 6.9 0 0 0 2.398-.435L67 23.488zM75.262 23.995l-3.38-5.642v5.642H69V12h2.882v5.307l3.415-5.294h3.456l-4.1 5.75L79 24zM82 24V12h3.04v9.582H89V24zM91 24V12h3v12zM103.242 24l-3.467-6.081a14.53 14.53 0 0 1-1.026-2.311c.057.889.137 3.467.137 5.033V24H96V12h3.969l3.256 5.707A17.45 17.45 0 0 1 104.271 20c-.097-1.046-.137-3.592-.137-5.014V12H107v12h-3.758zM109 24V12h8v2.33h-4.86v2.381h4.445v2.256h-4.444v2.649H117V24zM8.81 39l-.771-2.366H3.682L2.912 39H0l4.039-12h3.867L12 39H8.81zm-2.443-7.752a18.082 18.082 0 0 1-.489-1.848h-.035c-.122.624-.278 1.24-.47 1.848l-1.053 3.2h3.1l-1.053-3.2zM20.658 29.564a8.6 8.6 0 0 0-2.423-.346c-1.303 0-1.896.432-1.896 1.083 0 1.82 5.661 1.183 5.661 4.976C22 37.455 20.047 39 16.522 39a16.246 16.246 0 0 1-3.255-.308l.284-2.539c1 .328 2.063.499 3.136.505 1.099 0 1.914-.326 1.914-1.116 0-1.92-5.601-1.183-5.601-4.991C13 28.423 14.998 27 18.439 27c.841.001 1.68.076 2.504.222l-.285 2.342zM30.655 29.564a8.568 8.568 0 0 0-2.423-.346c-1.303 0-1.893.432-1.893 1.083 0 1.82 5.661 1.183 5.661 4.976C32 37.455 30.044 39 26.522 39a16.246 16.246 0 0 1-3.258-.308l.284-2.539c1 .328 2.063.499 3.136.505 1.099 0 1.914-.326 1.914-1.116 0-1.92-5.598-1.183-5.598-4.991C23 28.423 24.995 27 28.436 27c.841.001 1.68.076 2.504.222l-.285 2.342zM39.805 39C35.983 39 34 36.945 34 33.247 34 29.218 36.866 27 40.213 27 44.017 27 46 29.055 46 32.75c-.005 4.042-2.872 6.25-6.195 6.25zm.2-9.568c-1.761 0-2.936 1.234-2.936 3.545 0 2.266.972 3.593 2.936 3.593 1.764 0 2.94-1.23 2.94-3.542 0-2.261-.973-3.598-2.94-3.598v.002zM57 38.488a12.151 12.151 0 0 1-3.47.512C48.386 39 47 36.042 47 33.398 47 29.585 49.461 27 54.068 27c.964-.008 1.924.104 2.85.33l-.413 2.488a8.462 8.462 0 0 0-2.498-.366c-2.255 0-3.473 1.374-3.473 3.498 0 2.303 1.115 3.583 3.616 3.583a6.9 6.9 0 0 0 2.397-.435l.453 2.39zM59 39V27h3v12zM72.805 39l-.768-2.366h-4.358L66.91 39H64l4.038-12h3.866L76 39h-3.195zm-2.44-7.752a17.396 17.396 0 0 1-.488-1.848h-.039c-.12.624-.277 1.24-.47 1.848l-1.051 3.2h3.098l-1.05-3.2zM81.613 29.355V39h-3.236v-9.645H75V27h10v2.355zM86 39V27h3v12zM96.803 39C92.983 39 91 36.945 91 33.247 91 29.218 93.864 27 97.213 27c3.801 0 5.787 2.055 5.787 5.75-.005 4.042-2.872 6.25-6.197 6.25zm.202-9.568c-1.764 0-2.939 1.234-2.939 3.545 0 2.266.975 3.593 2.94 3.593 1.763 0 2.939-1.23 2.939-3.542 0-2.261-.973-3.598-2.94-3.598v.002zM113.24 38.995l-3.465-6.073a14.275 14.275 0 0 1-1.025-2.31c.057.888.137 3.465.137 5.027V39H106V27.005h3.968l3.254 5.705a18.22 18.22 0 0 1 1.045 2.292c-.097-1.032-.137-3.59-.137-5.012V27H117v11.995h-3.76zM123 2v36h22V8.546z" fill="#EF4E34"/><path d="M145 0v7l-22-7h22zM213 0l-13.057 20h-12.018L148 7.652c1.16-4.49 5.459-7.653 10.4-7.652H213z" fill="#13A89E"/><path d="M186.53 20.641l-6.114-1.8L147.02 9v.278c0 5.287 4.808 9.573 10.74 9.575H147V38h33.259c4.662 0 8.792-2.68 10.223-6.636 1.43-3.956-.167-8.282-3.952-10.708v-.015z" fill="#EF4E34"/><path d="M214.127 0h.005L230 23.689 214.182 27 199 22.583 214.127 0z" fill="#13A89E"/><path fill="#EF4E34" d="M231.548 25.174L214.45 28.81 198.224 24 189 38h51z"/></g></svg>