<svg width="178" height="29" viewBox="0 0 178 29" xmlns="http://www.w3.org/2000/svg"><g fill-rule="nonzero" fill="#FFF"><path d="M.742 6.692V0h.896v6.692zM8.995 6.685L5.217 1.821A16.301 16.301 0 0 1 4.26.483c.036.832.084 2.992.084 4.298v1.911h-.636V0h.873l3.732 4.812c.277.348.527.715.766 1.09-.048-.98-.084-2.792-.084-4.17V0h.647v6.685h-.647zM15.166.441v6.251H14.5V.442h-2.634V0H17.8v.441zM19.283 6.692V0h3.709v.426h-3.116v2.597h2.864v.426h-2.864v2.807h3.116v.436zM29.551 6.692l-2.912-3.07h-.76v3.07h-.662V.038S26.246 0 27.103 0c1.58 0 2.743.52 2.743 1.707 0 1.233-1.152 1.817-2.462 1.895 0 0 .367.325.724.7l2.3 2.39h-.857zm-3.673-3.494h1.074c1.444 0 2.204-.542 2.204-1.411 0-.907-.784-1.371-2.148-1.371-.55 0-1.125.029-1.125.029l-.005 2.753zM37.914 6.685l-3.766-4.864a16.3 16.3 0 0 1-.954-1.338c.036.832.084 2.992.084 4.298v1.911h-.645V0h.87l3.723 4.812c.274.348.525.715.763 1.09-.048-.98-.083-2.792-.083-4.17V0h.66v6.685h-.652zM46.646 6.692l-.835-1.755h-4.158l-.846 1.755h-.757L43.4 0h.742l3.325 6.692h-.821zM44.13 1.475a20.68 20.68 0 0 1-.402-.892h-.014c-.117.278-.247.565-.391.87l-1.472 3.043h3.74L44.13 1.475zM50.766.441v6.251H50.1V.442h-2.634V0H53.4v.441zM54.142 6.692V0h.896v6.692zM60.718 7.436c-2.313 0-3.61-1.474-3.61-3.647C57.108 1.335 58.826 0 60.915 0c2.313 0 3.61 1.474 3.61 3.649-.004 2.452-1.73 3.787-3.807 3.787zm.099-6.95c-1.664 0-3.024 1.107-3.024 3.163 0 1.937 1.016 3.304 3.024 3.304 1.664 0 3.023-1.108 3.023-3.176-.004-1.925-1.02-3.292-3.028-3.292h.005zM72.046 6.685l-3.777-4.864a16.301 16.301 0 0 1-.957-1.338c.036.832.084 2.992.084 4.298v1.911h-.646V0h.873l3.732 4.812c.275.348.527.715.766 1.09-.048-.98-.084-2.792-.084-4.17V0h.646v6.685h-.637zM80.763 6.692l-.835-1.755h-4.156l-.849 1.755h-.756L77.517 0h.742l3.324 6.692h-.82zm-2.504-5.207a20.68 20.68 0 0 1-.402-.892h-.01c-.116.278-.246.565-.39.87l-1.473 3.043h3.74l-1.465-3.02zM83.067 6.687V0h.629v6.256h3.079v.436zM24.96 10.83a6.359 6.359 0 0 0-1.8-.256c-.969 0-1.407.32-1.407.804 0 1.353 4.205.88 4.205 3.7 0 1.62-1.453 2.768-4.07 2.768a12.058 12.058 0 0 1-2.42-.229l.223-1.888a7.621 7.621 0 0 0 2.331.375c.817 0 1.422-.242 1.422-.827 0-1.43-4.16-.882-4.16-3.714 0-1.582 1.481-2.64 4.038-2.64.626.001 1.25.056 1.862.165l-.225 1.742zM26.7 17.846V8.923h2.251v7.125h2.94v1.798zM39.17 17.846l-.572-1.75h-3.232l-.572 1.75h-2.16l2.996-8.923h2.87l3.033 8.923H39.17zm-1.812-5.764c-.145-.452-.266-.91-.363-1.374h-.026a12.5 12.5 0 0 1-.349 1.374l-.78 2.38h2.299l-.781-2.38zM49.692 17.465a8.989 8.989 0 0 1-2.575.381c-3.816 0-4.842-2.201-4.842-4.17 0-2.837 1.824-4.753 5.241-4.753a8.569 8.569 0 0 1 2.115.246l-.3 1.834a6.263 6.263 0 0 0-1.855-.272c-1.67 0-2.575 1.023-2.575 2.603 0 1.714.828 2.667 2.683 2.667a5.105 5.105 0 0 0 1.779-.324l.329 1.788zM55.82 17.842l-2.507-4.195v4.195h-2.138V8.923h2.138v3.947l2.532-3.937h2.563l-3.04 4.275 3.224 4.638zM60.817 17.846V8.923h2.255v7.125h2.936v1.798z"/><path d="M66.008 17.846V8.923h2.225v8.923zM76.571 17.846L74 13.324a10.819 10.819 0 0 1-.76-1.718c.041.66.1 2.578.1 3.742v2.498H71.2V8.923h2.943l2.416 4.244c.3.551.559 1.12.775 1.705-.072-.778-.101-2.671-.101-3.729v-2.22h2.125v8.923h-2.787zM80.842 17.846V8.923h5.933v1.732h-3.604v1.771h3.296v1.678h-3.296v1.97h3.604v1.772zM6.534 29l-.572-1.76h-3.23L2.158 29H0l2.995-8.923h2.869L8.9 29H6.534zm-1.812-5.764c-.145-.452-.266-.91-.362-1.374h-.027c-.09.463-.206.922-.348 1.374l-.78 2.38h2.298l-.78-2.38zM15.322 21.983a6.363 6.363 0 0 0-1.798-.257c-.966 0-1.406.321-1.406.805 0 1.353 4.199.88 4.199 3.7 0 1.62-1.449 2.769-4.063 2.769a12.019 12.019 0 0 1-2.415-.23l.211-1.887c.742.244 1.53.371 2.326.375.815 0 1.42-.242 1.42-.83 0-1.427-4.154-.88-4.154-3.71 0-1.583 1.481-2.641 4.034-2.641.624 0 1.246.056 1.857.165l-.211 1.741zM22.736 21.983a6.34 6.34 0 0 0-1.797-.257c-.966 0-1.404.321-1.404.805 0 1.353 4.198.88 4.198 3.7 0 1.62-1.45 2.769-4.062 2.769a12.019 12.019 0 0 1-2.417-.23l.21-1.887c.743.244 1.53.371 2.327.375.815 0 1.419-.242 1.419-.83 0-1.427-4.152-.88-4.152-3.71 0-1.583 1.48-2.641 4.032-2.641.624 0 1.246.056 1.857.165l-.211 1.741zM29.522 29c-2.835 0-4.305-1.528-4.305-4.278 0-2.996 2.125-4.645 4.608-4.645 2.821 0 4.292 1.528 4.292 4.276-.004 3.005-2.13 4.647-4.595 4.647zm.149-7.114c-1.307 0-2.178.917-2.178 2.636 0 1.685.721 2.671 2.178 2.671 1.308 0 2.18-.915 2.18-2.634 0-1.681-.722-2.675-2.18-2.675v.002zM42.275 28.62a8.99 8.99 0 0 1-2.574.38c-3.815 0-4.843-2.2-4.843-4.165 0-2.836 1.826-4.758 5.242-4.758a8.57 8.57 0 0 1 2.114.246l-.306 1.85a6.261 6.261 0 0 0-1.853-.273c-1.672 0-2.576 1.022-2.576 2.602 0 1.712.827 2.664 2.682 2.664a5.106 5.106 0 0 0 1.778-.324l.336 1.777zM43.758 29v-8.923h2.225V29zM53.997 29l-.57-1.76h-3.232l-.57 1.76h-2.158l2.994-8.923h2.868L56.367 29h-2.37zm-1.809-5.764c-.146-.452-.267-.91-.362-1.374h-.03c-.089.463-.205.922-.347 1.374l-.78 2.38h2.297l-.778-2.38zM60.53 21.828V29h-2.4v-7.172h-2.505v-1.751h7.417v1.751zM63.783 29v-8.923h2.225V29zM71.795 29c-2.833 0-4.303-1.528-4.303-4.278 0-2.996 2.123-4.645 4.608-4.645 2.819 0 4.292 1.528 4.292 4.276-.004 3.005-2.13 4.647-4.597 4.647zm.15-7.114c-1.308 0-2.18.917-2.18 2.636 0 1.685.724 2.671 2.18 2.671 1.309 0 2.18-.915 2.18-2.634 0-1.681-.72-2.675-2.18-2.675v.002zM83.986 28.996l-2.57-4.516a10.628 10.628 0 0 1-.76-1.718c.042.661.102 2.577.102 3.74V29h-2.141v-8.92h2.943l2.413 4.243c.299.552.557 1.121.775 1.704-.072-.768-.101-2.67-.101-3.727v-2.223h2.128v8.92h-2.79zM91.225 1.487v26.77h16.317V6.354zM106.937.583v3.816L94.965.583h11.972zm.605-.583H91.225l16.317 5.205V0zM156.887.573L147.953 14.3h-8.478l-28.958-8.98c.97-2.834 3.787-4.754 6.963-4.746h39.407zM157.975 0H117.48c-3.665 0-6.853 2.351-7.713 5.69l29.61 9.182h8.914L157.975 0zM138.343 15.349l-4.534-1.34-24.77-7.317V6.9c0 3.931 3.566 7.119 7.965 7.12h-7.979v14.237h24.667c3.458 0 6.521-1.993 7.582-4.934 1.06-2.941-.124-6.158-2.931-7.962v-.011zM158.815 1.073l10.811 16.185-10.747 2.255-10.36-3.026 10.292-15.414h.004zM158.81 0l-11.22 16.793 11.26 3.284 11.732-2.462L158.815 0h-.004z"/><path d="M171.732 18.72l-12.682 2.703-12.034-3.577-6.841 10.41H178z"/></g></svg>