<svg width="65" height="80" viewBox="0 0 65 80" xmlns="http://www.w3.org/2000/svg"><g fill="#FFF" fill-rule="nonzero"><path d="M64.413 69.053a2.677 2.677 0 0 0-3.636-.96c-.05.026-4.994 2.544-9.632 4.062-5.766 1.887-10.685 1.617-13.038-1.968-1.141-1.738-2.028-5.949 1.473-12.503 2.323-4.347 6.285-7.604 6.321-7.633a2.613 2.613 0 0 0 .416-3.7 2.683 2.683 0 0 0-3.741-.412c-.19.151-4.807 3.708-7.685 8.935-2.377 4.315-3.453 10.018-3.453 10.018s-.728.062-1.695-.11c-1.018-.182-1.597-.576-1.597-.576l3.456-13.89c.005-.017.136-.6.055-1.164l-.004-.02-.001-.015-2.467-16.323c-.249-1.642-1.794-2.778-3.458-2.53-1.662.245-2.808 1.776-2.559 3.42l2.348 15.535-3.142 7.53-1.561-9.518c-.003-.021-.15-1.37-1.5-2.133L5.244 37.2c-1.463-.821-3.319-.314-4.147 1.131a2.99 2.99 0 0 0 1.144 4.102l12.528 7.033v9.153s.19 9.689 6.084 14.792c7.23 6.26 15.752 6.65 23.765 5.422 0 0 10.015-1.26 18.633-6.295 1.044-.611 1.898-2.227 1.162-3.485z"/><path d="M48.785 66.85c0 2.664-2.187 4.826-4.88 4.826-2.695 0-4.88-2.162-4.88-4.826 0-2.664 2.185-4.826 4.88-4.826 2.693 0 4.88 2.16 4.88 4.826z"/><g><path d="M16.668 36.587a1.623 1.623 0 0 1-1.619-1.615 1.619 1.619 0 0 1 3.237 0 1.62 1.62 0 0 1-1.618 1.615zm0-5.482a1.623 1.623 0 0 1-1.619-1.615 1.619 1.619 0 0 1 3.237 0 1.62 1.62 0 0 1-1.618 1.615zm0-5.483a1.623 1.623 0 0 1-1.619-1.615 1.619 1.619 0 0 1 3.237 0 1.62 1.62 0 0 1-1.618 1.615zm0-5.481a1.623 1.623 0 0 1-1.619-1.615 1.619 1.619 0 0 1 3.237 0 1.62 1.62 0 0 1-1.618 1.615zM39.748 41.34a1.618 1.618 0 0 1-1.618-1.614c0-.887.73-1.615 1.618-1.615a1.614 1.614 0 1 1 0 3.23zm0-5.482a1.618 1.618 0 0 1-1.618-1.615c0-.886.73-1.615 1.618-1.615a1.614 1.614 0 1 1 0 3.23zm0-5.482a1.618 1.618 0 0 1-1.618-1.615c0-.886.73-1.614 1.618-1.614a1.614 1.614 0 1 1 0 3.23zm0-5.481a1.619 1.619 0 0 1-1.618-1.615c0-.886.73-1.615 1.618-1.615a1.615 1.615 0 0 1 0 3.23zM26.202 25.698a1.623 1.623 0 0 1-1.619-1.615 1.618 1.618 0 0 1 3.236 0c.001.886-.721 1.615-1.617 1.615zm0-5.483a1.623 1.623 0 0 1-1.619-1.615 1.619 1.619 0 0 1 3.236 0c.001.887-.721 1.615-1.617 1.615zm0-5.48a1.624 1.624 0 0 1-1.619-1.617 1.619 1.619 0 0 1 3.236 0c.001.887-.721 1.616-1.617 1.616zm0-5.483c-.889 0-1.619-.73-1.619-1.616a1.619 1.619 0 0 1 3.236 0c.001.887-.721 1.616-1.617 1.616zm0-5.484a1.623 1.623 0 0 1-1.619-1.614 1.619 1.619 0 0 1 3.236 0c.001.886-.721 1.614-1.617 1.614z"/></g></g></svg>