<svg width="76" height="84" viewBox="0 0 76 84" xmlns="http://www.w3.org/2000/svg"><path d="M28.594 0l35.61 43.676c-5.91 12.367-14.07 20.844-28.563 25.672L.692 29.118c7.886-2.817 13.705-5.547 18.15-9.934C23.22 14.864 26.156 8.877 28.595 0zm9.626 4.284l35.955 41.255C63.426 58.044 51.323 71.167 36.238 75.215v-3.942c15.217-5.058 24.013-14.262 30.105-27.286.151-.33.1-.74-.126-1.025L36.27 6.208l1.95-1.924zM0 31.32l34.225 39.424v11.796L0 42.186V31.321zM71.344 51.81L76 56.404c-11.652 9.486-25.521 18.81-39.762 22.753v-1.893c14.026-3.555 25.248-14.358 35.106-25.455zm2.14 9.158v10.74C67.547 74.563 54.288 79.255 36.237 84v-2.763c13.34-3.568 26.169-11.663 37.245-20.27z" fill="#FFF" fill-rule="nonzero"/></svg>