<svg width="125" height="210" viewBox="0 0 125 210" xmlns="http://www.w3.org/2000/svg"><g fill="#FFF" fill-rule="nonzero"><path d="M53.014 150.272H19.483c-.945 0-1.502.009-2.43.149-10.535 1.59-9.643 11.802 2.24 8.792 1.403-.356 3.345-.586 3.802-2.22.205-.733 1.32-.42 1.114.314-.162.578-.392 1.007-.697 1.349.255-.008.52-.012.797-.012 3.315 0 5.782.161 7.918.41.923-.006 2.117-.106 2.62-1.007.369-.665 1.379-.103 1.01.563-.195.348-.44.63-.734.855a169 169 0 0 1 2.434.423c1.29.231 2.64.473 4.19.702 1.147.17 2.277.413 3.36-.195a3.233 3.233 0 0 0 1.42-1.661c.451-1.189 2.255-.5 1.803.688a5.23 5.23 0 0 1-1.444 2.07c1.338.57 2.69 1.608 4.008 2.922.079-.616.245-1.17.455-1.588.571-1.134 2.292-.264 1.721.87-.19.377-.318.968-.3 1.631.034 1.286.339 1.55 1.016 2.437 2.416 3.161 4.567 6.833 6.101 9.613 3.566 6.462 5.672 9.393 11.699 13.475 3.078 2.085 5.235 3.723 9.1 3.156 1.257-.184 1.536 1.73.28 1.913-.659.097-1.298.14-1.917.131.412.346.825.71 1.232 1.09 1.195 1.116 2.33 2.366 3.186 3.696.62-.357 1.352-.776 2.185-1.245 7.6-4.279 17.686-11.262 24.368-16.89.719-.607 1.352-1.13 1.884-1.567-6.779-8.64-10.705-21.183-14.387-32.95-5.27-16.842-9.126-30.63-27.281-37.014v24.024c1.63-1 2.455-2.139 3.302-3.848.561-1.14 2.29-.285 1.729.854-1.251 2.526-2.517 3.911-5.031 5.2v2.42c1.528.28 4.502.57 5.795-.468.987-.795 2.194.71 1.208 1.505-1.462 1.174-3.762 1.258-5.565 1.103 2.576 2.383 5.08 4.326 7.376 5.101 1.202.403.59 2.233-.611 1.83-4.166-1.405-8.582-5.88-12.97-10.323-3.15-3.193-6.286-6.37-9.166-8.25-4.6-3.002-6.736-2.808-12.145-2.963-2.57-.074-5.12-.69-7.629-.794-5.972-.246-8.159 4.874-3.286 8.902 2.618 2.164 6.58 3.816 9.895 4.836.736.227 1.775.762 2.483.243.811-.596 1.871.305 1.437 1.202 1.004.446 1.992.958 2.909 1.547 2.213 1.423 4.018 3.296 4.711 5.787 3.371 12.11 11.43 28.8 24.93 31.765 1.241.268.834 2.16-.407 1.89-14.118-3.1-22.515-19.76-26.187-32.463zM47 163.662V209a1 1 0 0 1-1 1H34a1 1 0 0 1-1-1v-47.91c-2.317-.313-4.957-.525-8.714-.525-1.543 0-3.05.128-4.549.508-11.968 3.031-15.918-6.758-7.62-11.124a6.438 6.438 0 0 1-4.45-6.11v-4.727c-10.456-.668-9.987-12.09 0-12.52v-2.474c-10.456-.667-9.987-12.089 0-12.52V29.417c0-3.532 2.88-6.417 6.405-6.417H33V1a1 1 0 0 1 1-1h12a1 1 0 0 1 1 1v22h16.816c3.524 0 6.404 2.885 6.404 6.417v79.697c19.263 6.36 23.593 20.799 29.127 38.482 3.39 10.832 6.99 22.334 12.787 30.613.793-.347 1.35-.478 1.76-.486 1.126-.024 1.26.49 1.747 1.164l9.163 12.672c.745 1.03-.818 2.164-1.563 1.134l-8.598-11.89c-1.055 1.376-2.002 2.186-3.395 3.36-6.801 5.729-16.93 12.748-24.666 17.103-1.855 1.044-3.43 1.772-4.628 2.132l3.595 5.072c.734 1.033-.837 2.153-1.57 1.12l-3.995-5.636c-.606-.856-1.04-1.354-.369-2.484.192-.324.509-.723.99-1.221a22.057 22.057 0 0 0-1.652-1.706c-2.68-2.501-5.459-4.07-8.43-6.078-6.174-4.17-8.58-7.293-12.244-14.003-2.161-3.957-4.556-7.998-7.443-11.361-1.272-1.483-2.573-2.706-3.836-3.44zM44.405 27.938c-.51 0-.51-.78 0-.78h.79c.51 0 .51.78 0 .78h-.79zm-1.865 114.21a45.343 45.343 0 0 1-1.716-.566H13.51a2.208 2.208 0 0 1-2.198-2.203V32.143c0-1.213.988-2.204 2.198-2.204h50.845c1.21 0 2.199.991 2.199 2.204V136.95c.571.579 1.143 1.158 1.716 1.735V29.43c0-2.463-2.014-4.48-4.47-4.48H14.066c-2.457 0-4.47 2.017-4.47 4.48v114.428c0 2.462 2.013 4.48 4.47 4.48h38.216c-1.763-3.305-6.359-5.148-9.742-6.19zm8.33-8.32c-.31.4-.913-.079-.602-.48.297-.382.531-.788.737-1.227.214-.46.907-.13.692.33a7.223 7.223 0 0 1-.826 1.377zm-2.484-.095c-.366.357-.913-.195-.547-.552.801-.777 1.185-1.577 1.585-2.596.185-.474.913-.195.728.28-.44 1.122-.884 2.012-1.766 2.868zm-14.285-.418c-.683-.337-.17-1.377.512-1.04 1.525.758 4.856 1.622 5.786-.256.71-1.435.597-1.771 1.793-2.947.647-.638 1.435.216.843.795-1.082 1.059-.984 1.426-1.598 2.665-1.294 2.615-5.194 1.847-7.336.783zm4.72 7.486c-2.464-1.01-4.927-2.304-6.798-3.85-6.328-5.232-3.207-12.641 4.583-12.32 2.506.103 5.053.72 7.604.794 5.79.166 8.193.045 13.137 3.273 2.749 1.795 5.593 4.572 8.46 7.465V32.16c0-.785-.643-1.429-1.426-1.429H13.55c-.783 0-1.425.644-1.425 1.429v107.211c0 .786.641 1.429 1.425 1.429H38.82zM7.714 122.153v-8.642c-7.473.376-7.91 8.068 0 8.642zm0 15.01v-8.643c-7.473.377-7.91 8.068 0 8.642zm9.79-6.014c-.374-.341.143-.916.518-.575l5.057 4.61c.376.34-.142.916-.517.574l-5.057-4.609zm-.389 2.985c-.373-.34.14-.91.514-.571l2.21 2.014c.372.34-.141.911-.514.572l-2.21-2.015zM35.587 27.938c-.51 0-.51-.78 0-.78h6.691c.51 0 .51.78 0 .78h-6.69z"/><path d="M18.952 69v-6.648h-2.568v-1.596h6.912v1.596h-2.568V69h-1.776zm8.412-1.404c.492 0 1.092-.228 1.428-.552l1.116 1.14c-.552.576-1.62.96-2.532.96-1.848 0-3.288-1.356-3.288-3.264 0-1.872 1.38-3.228 3.192-3.228 1.944 0 3.084 1.476 3.084 3.816h-4.476c.204.672.744 1.128 1.476 1.128zm-.012-3.396a1.5 1.5 0 0 0-1.44 1.008h2.772c-.168-.612-.624-1.008-1.332-1.008zm7.788-1.548c1.344 0 2.304.996 2.304 2.4V69h-1.692v-3.576c0-.768-.48-1.296-1.176-1.296-.732 0-1.296.528-1.296 1.2l-.012-.036V69h-1.752v-6.204h1.752v.78c.372-.564 1.068-.924 1.872-.924zm6.108 6.492c-.996 0-2.052-.336-2.796-.936l.756-1.212c.552.396 1.248.696 2.076.696.468 0 .804-.192.804-.468 0-.384-.456-.504-1.092-.672-1.272-.312-2.256-.66-2.268-1.884-.012-1.176.96-2.016 2.424-2.016.888 0 1.764.312 2.448.768l-.708 1.248c-.564-.348-1.212-.552-1.74-.552-.432 0-.732.156-.732.372 0 .336.252.432 1.092.66 1.068.276 2.256.636 2.256 1.992 0 1.224-.996 2.004-2.52 2.004zm4.572-7.2a.955.955 0 0 1-.96-.96c0-.492.42-.936.96-.936.516 0 .936.444.936.936a.95.95 0 0 1-.936.96zM44.932 69v-6.204h1.752V69h-1.752zm6.324.144c-1.848 0-3.396-1.488-3.396-3.252 0-1.764 1.548-3.24 3.396-3.24 1.836 0 3.372 1.476 3.372 3.24 0 1.764-1.536 3.252-3.372 3.252zm0-1.476c.924 0 1.704-.816 1.704-1.776 0-.96-.78-1.764-1.704-1.764-.936 0-1.716.804-1.716 1.764s.78 1.776 1.716 1.776zm8.148-5.016c1.344 0 2.304.996 2.304 2.4V69h-1.692v-3.576c0-.768-.48-1.296-1.176-1.296-.732 0-1.296.528-1.296 1.2l-.012-.036V69H55.78v-6.204h1.752v.78c.372-.564 1.068-.924 1.872-.924zM19.528 93v-1.44l3.036-2.352c.984-.78 1.296-1.32 1.296-1.896 0-.684-.576-1.092-1.248-1.092-.804 0-1.416.408-2.016 1.092l-1.128-1.092c.816-1.032 1.86-1.608 3.192-1.608 1.752 0 3.024 1.08 3.024 2.628 0 1.104-.48 1.956-1.92 3l-1.5 1.164h3.492V93h-6.228zm8.568.144a1.114 1.114 0 0 1-1.116-1.116c0-.564.492-1.068 1.116-1.068.588 0 1.068.504 1.068 1.068 0 .612-.48 1.116-1.068 1.116zM31.18 93l3.276-6.648h-4.08v-1.596h6.132v1.332L33.184 93H31.18zm10.104 0v-8.244h1.764v3.78l3.336-3.78h2.148l-3.216 3.576L48.76 93h-2.148l-2.532-3.408-1.032 1.104V93h-1.764zm8.4 0v-8.244h1.764l3.972 5.328v-5.328h1.776V93H55.42l-3.972-5.328V93h-1.764z"/></g></svg>