<svg width="62" height="62" viewBox="0 0 62 62" xmlns="http://www.w3.org/2000/svg"><g fill="#FFF" fill-rule="nonzero"><path d="M61 52h-1v-5c0-1.654-1.346-3-3-3h-3v-3a1 1 0 0 0-1-1h-1V28h3a1 1 0 0 0 1-1v-6a1 1 0 0 0-1-1h-9V1a1 1 0 0 0-1-1H1a1 1 0 0 0-1 1v50a1 1 0 0 0 1 1h29v-2H2V2h42v18h-5a1 1 0 0 0-1 1v6a1 1 0 0 0 1 1h3v12h-1a1 1 0 0 0-1 1v3h-3c-1.654 0-3 1.346-3 3v5h-1a1 1 0 0 0-1 1v4a1 1 0 0 0 1 1h3v3a1 1 0 0 0 1 1h20a1 1 0 0 0 1-1v-3h3a1 1 0 0 0 1-1v-4a1 1 0 0 0-1-1zM40 22h14v4H40v-4zm4 6h6v12h-6V28zm-2 14h10v2H42v-2zm-6 5c0-.552.449-1 1-1h20c.551 0 1 .448 1 1v5H36v-5zm20 13H38v-2h18v2zm4-4H34v-2h26v2z"/><path d="M40 11V5a1 1 0 0 0-1-1H7a1 1 0 0 0-1 1v6a1 1 0 0 0 1 1h32a1 1 0 0 0 1-1zm-2-1H8V6h30v4zM10 14h26v2H10zM12 18h22v2H12zM10 22h26v2H10zM12 26h22v2H12zM4 37v4a1 1 0 0 0 1 1h1.513A8.996 8.996 0 0 0 15 48a8.995 8.995 0 0 0 8.487-6H25a1 1 0 0 0 1-1v-4a1 1 0 0 0-1-1h-1.513A8.995 8.995 0 0 0 15 30c-3.81 0-7.221 2.444-8.481 6H5a1 1 0 0 0-1 1zm11 9a6.991 6.991 0 0 1-6.316-4h12.632A6.991 6.991 0 0 1 15 46zm0-14a6.991 6.991 0 0 1 6.316 4H8.675A7.04 7.04 0 0 1 15 32zm-9 6h18v2H6v-2z"/></g></svg>