<svg width="74" height="98" viewBox="0 0 74 98" xmlns="http://www.w3.org/2000/svg"><g fill="#FFF" fill-rule="nonzero"><path d="M15.503 37.696h43.638v-4.285H15.503zM15.503 46.254h18.838v-4.28H15.503zM15.503 28.809h43.638v-4.277H15.503zM59.142 15.977H15.503v4.281h43.638v-4.281zM29.439 97.499l7.026-3.714 7.027 3.714V79.163h-8.9z"/><path d="M.388.834v89.257h26.604l1.09-3.881H5.42V5.491h63.173v80.867l-5.008-.026 1.056 3.76h8.625l.066-25.884V.834z"/><path d="M45.818 56.238a7.092 7.092 0 0 0-7.089 7.092c0 3.91 3.174 7.09 7.089 7.09a7.095 7.095 0 0 0 7.091-7.09 7.094 7.094 0 0 0-7.091-7.092zM48.85 79.163v18.336l7.026-3.714 7.024 3.714-5.15-18.336z"/><path d="M53.552 76.727l.923-4.74 4.74-.922-1.571-4.566 3.645-3.168-3.645-3.17 1.571-4.564-4.74-.924-.923-4.738-4.564 1.57-3.169-3.644-3.168 3.644-4.565-1.57-.923 4.738-4.74.924 1.571 4.564-3.644 3.17 3.644 3.168-1.571 4.566 4.74.922.923 4.74 4.565-1.572 3.168 3.645 3.169-3.645z"/><path d="M36.169 63.33c0-5.33 4.322-9.648 9.649-9.648a9.646 9.646 0 0 1 9.649 9.648c0 5.326-4.318 9.646-9.649 9.646-5.327.001-9.649-4.32-9.649-9.646z"/></g></svg>