<svg width="66" height="90" viewBox="0 0 66 90" xmlns="http://www.w3.org/2000/svg"><g fill="#FFF" fill-rule="nonzero"><circle transform="matrix(0 1 1 0 -18.645 18.645)" cx="53.233" cy="71.878" r="4.728"/><circle transform="matrix(0 1 1 0 -19.885 19.885)" cx="21.321" cy="41.206" r="3.506"/><circle transform="matrix(0 1 1 0 44.952 -44.952)" cx="53.233" cy="8.281" r="4.728"/><path d="M40.126 76.885c0-2.695.836-5.199 2.259-7.27l-8.098-8.099a20.738 20.738 0 01-12.812 4.41c-11.51 0-20.84-9.332-20.84-20.84 0-11.51 9.33-20.84 20.84-20.84a20.74 20.74 0 0112.81 4.408l8.1-8.1a12.798 12.798 0 01-2.26-7.27c0-7.099 5.774-12.87 12.87-12.87 7.1 0 12.872 5.771 12.872 12.87 0 7.098-5.771 12.87-12.871 12.87a12.808 12.808 0 01-8.191-2.952l-7.888 7.888a20.758 20.758 0 015.396 13.993 20.765 20.765 0 01-5.396 13.993l7.888 7.887a12.812 12.812 0 018.19-2.952c7.1 0 12.872 5.773 12.872 12.87 0 7.098-5.771 12.872-12.871 12.872-7.097.003-12.87-5.77-12.87-12.868zm1.35-63.81c0 3.168 1.266 6.041 3.313 8.154.645-4.075 4.16-7.193 8.418-7.193 4.256 0 7.774 3.118 8.419 7.193a11.679 11.679 0 003.315-8.155c0-6.47-5.264-11.73-11.733-11.73-6.47 0-11.732 5.261-11.732 11.73zM21.45 55.285c.022.001 6.238-9.266 6.238-14.476a6.238 6.238 0 00-12.477 0c0 5.127 6.212 14.475 6.239 14.476zm23.341 29.545c.645-4.075 4.163-7.193 8.418-7.193 4.258 0 7.774 3.118 8.419 7.193a11.676 11.676 0 003.312-8.155c0-6.469-5.263-11.73-11.731-11.73s-11.733 5.262-11.733 11.73c0 3.169 1.267 6.042 3.315 8.155z"/></g></svg>