<svg width="90" height="66" viewBox="0 0 90 66" xmlns="http://www.w3.org/2000/svg"><g fill="#FFF" fill-rule="nonzero"><circle cx="13.456" cy="48.065" r="4.728"/><circle cx="77.053" cy="48.065" r="4.728"/><path d="M77.053 39.958c-2.695 0-5.199.836-7.27 2.259l-8.099-8.098a20.738 20.738 0 004.409-12.812c0-11.509-9.331-20.84-20.84-20.84-11.51 0-20.84 9.331-20.84 20.84a20.74 20.74 0 004.409 12.811l-8.1 8.099a12.798 12.798 0 00-7.27-2.259c-7.099 0-12.871 5.773-12.871 12.87 0 7.1 5.772 12.871 12.871 12.871 7.098 0 12.87-5.771 12.87-12.871 0-3.108-1.109-5.965-2.952-8.191l7.888-7.888a20.758 20.758 0 0013.993 5.396 20.765 20.765 0 0013.993-5.396l7.887 7.888a12.812 12.812 0 00-2.952 8.191c0 7.1 5.773 12.871 12.87 12.871 7.098 0 12.871-5.771 12.871-12.871.004-7.097-5.77-12.87-12.867-12.87zm-51.866 12.87c0 3.169-1.266 6.042-3.313 8.155-.645-4.075-4.161-7.193-8.418-7.193-4.256 0-7.774 3.118-8.419 7.193a11.679 11.679 0 01-3.315-8.155c0-6.47 5.264-11.73 11.733-11.73s11.732 5.261 11.732 11.73zm19.909-21.189c-.022.001-6.238-9.266-6.238-14.476a6.238 6.238 0 0112.477 0c0 5.127-6.212 14.475-6.239 14.476zm40.377 29.344c-.645-4.075-4.163-7.193-8.418-7.193-4.258 0-7.774 3.118-8.419 7.193a11.676 11.676 0 01-3.312-8.155c0-6.469 5.263-11.73 11.731-11.73s11.733 5.262 11.733 11.73c0 3.169-1.267 6.042-3.315 8.155z"/><circle cx="45.128" cy="17.153" r="3.506"/></g></svg>