<svg width="94" height="94" viewBox="0 0 94 94" xmlns="http://www.w3.org/2000/svg"><g fill="#FFF" fill-rule="nonzero"><path d="M47.216 73.375c.727 0 1.407-.353 1.827-.946.966-1.364 23.636-33.575 23.636-46.963C72.679 11.425 61.256.003 47.216.003c-14.041 0-25.464 11.423-25.464 25.463 0 13.388 22.672 45.599 23.637 46.963.419.593 1.1.946 1.827.946zm0-68.897c11.572 0 20.987 9.415 20.987 20.987 0 9.09-13.78 31.175-20.987 41.745-7.207-10.568-20.988-32.65-20.988-41.745 0-11.572 9.416-20.987 20.988-20.987z"/><path d="M58.633 25.465c0-6.298-5.121-11.421-11.417-11.421-6.296 0-11.418 5.123-11.418 11.421 0 6.297 5.122 11.42 11.418 11.42 6.296 0 11.417-5.122 11.417-11.42zm-18.359 0c0-3.83 3.114-6.945 6.942-6.945 3.827 0 6.94 3.115 6.94 6.945 0 3.829-3.113 6.944-6.94 6.944-3.828.001-6.942-3.115-6.942-6.944zM93.688 91.16L82.234 49.92a2.237 2.237 0 0 0-2.156-1.639h-7.864a2.239 2.239 0 0 0 0 4.476h6.163l10.209 36.764H5.414l10.212-36.764h6.593a2.239 2.239 0 0 0 0-4.476h-8.294c-1.005 0-1.887.67-2.156 1.639L.313 91.16a2.237 2.237 0 0 0 2.156 2.838H91.53a2.24 2.24 0 0 0 2.158-2.838z"/></g></svg>