<svg width="68" height="72" viewBox="0 0 68 72" xmlns="http://www.w3.org/2000/svg"><path d="M3.14 0A1.156 1.156 0 0 0 2 1.152l.002 20.02c0 .638.52 1.154 1.16 1.154.64 0 1.158-.516 1.158-1.154V3.147l19.485 11.21c.358.205.799.205 1.157 0L45.61 2.482 65.68 14.023v15.57h.002v12.814h-.002v26.446l-19.485-11.21a1.162 1.162 0 0 0-1.157 0L24.39 69.518 4.32 57.976v-8.54c0-.636-.519-1.153-1.159-1.153s-1.159.517-1.159 1.154L2 58.648c.002.412.223.791.582.996l21.226 12.2c.36.208.803.208 1.163 0l20.642-11.866 20.649 11.866c.771.443 1.735-.11 1.738-.996V13.352a1.153 1.153 0 0 0-.582-.996L46.192.156a1.168 1.168 0 0 0-1.163 0L24.387 12.022 3.738.156A1.16 1.16 0 0 0 3.141 0zm49.11 15c-.507-.014-.971.26-1.162.69-.19.427-.066.918.31 1.229l3.398 3.088-3.398 3.087a1.034 1.034 0 0 0-.314 1.063c.112.38.439.677.857.779.418.102.864-.007 1.17-.285l3.395-3.089 3.403 3.093c.302.291.755.41 1.182.31.427-.1.76-.402.87-.79.11-.388-.02-.8-.34-1.075l-3.402-3.095 3.403-3.093c.235-.206.369-.49.37-.788 0-.298-.131-.583-.366-.79a1.18 1.18 0 0 0-.092-.076 1.3 1.3 0 0 0-1.623.1l-3.402 3.092-3.398-3.089a1.28 1.28 0 0 0-.86-.36zM12.5 22.002C5.609 22.002 0 27.631 0 34.548c.002 2.863 1.185 5.207 1.887 6.431l.026.035 9.623 15.449a1.136 1.136 0 0 0 1.928 0l9.665-15.525.024-.045c.737-1.293 1.842-3.51 1.847-6.346C25 27.63 19.39 21.999 12.499 22v.001zm0 1.999v.002c5.813 0 10.501 4.67 10.501 10.463-.004 2.283-.91 4.128-1.595 5.32L12.499 54 3.62 39.838l-.009-.018c-.638-1.11-1.61-3.114-1.611-5.355 0-5.793 4.685-10.464 10.499-10.464V24zm0 4C8.92 28 6 30.924 6 34.501 6 38.08 8.921 41 12.499 41 16.076 41 19 38.079 19 34.501 19 30.924 16.076 28 12.499 28zm36.2.209c-.272.008-.53.122-.72.316l-1.48 1.48a1.059 1.059 0 0 0 1.496 1.497l1.48-1.48a1.058 1.058 0 0 0-.775-1.813zM12.005 30A3.979 3.979 0 0 1 16 34c0 2.224-1.774 4-3.996 4A3.986 3.986 0 0 1 8 34c0-2.224 1.782-4 4.004-4zm29.693 4.21c-.272.01-.53.123-.721.317L39.5 36.003a1.059 1.059 0 0 0 1.496 1.496l1.476-1.473a1.058 1.058 0 0 0-.775-1.815zm-6 7c-.272.01-.53.123-.72.317L33.5 43.003a1.059 1.059 0 0 0 1.497 1.496l1.476-1.476a1.058 1.058 0 0 0-.775-1.812zM28.7 47.209c-.275.009-.535.125-.726.322l-1.476 1.476a1.059 1.059 0 0 0 1.497 1.496l1.476-1.475a1.058 1.058 0 0 0-.771-1.82zm-6 7c-.275.009-.535.125-.726.322l-1.476 1.476a1.059 1.059 0 0 0 1.497 1.496l1.476-1.475a1.058 1.058 0 0 0-.771-1.82z" fill="#FFF" fill-rule="nonzero"/></svg>