<svg width="66" height="80" viewBox="0 0 66 80" xmlns="http://www.w3.org/2000/svg"><g fill="#FFF" fill-rule="nonzero"><path d="M57.956 32.44C57.316 19.114 46.354 8.677 33 8.677S8.684 19.115 8.048 32.393c-.02.209-.03.42-.025.63a9.28 9.28 0 0 0-.015.638c0 .232 0 .473.017.643C8.36 47.958 19.331 58.654 33 58.654c13.669 0 24.64-10.696 24.97-24.289.021-.231.022-.472.022-.704 0-.209 0-.427-.015-.638a4.735 4.735 0 0 0-.02-.584zm-1.981 1.815c-.308 12.56-10.4 22.398-22.975 22.398-12.575 0-22.667-9.839-22.979-22.46-.014-.174-.013-.357-.013-.532 0-.175-.001-.357.013-.532.004-.044.005-.089.003-.133a3.258 3.258 0 0 1 .018-.46C10.63 20.277 20.715 10.677 33 10.677c12.285 0 22.37 9.6 22.962 21.904.013.138.02.275.014.414-.002.044-.001.089.003.133.014.175.013.357.013.532 0 .175.001.358-.017.594z"/><path d="M52.217 37.558a.996.996 0 0 0-1.213.726 18.41 18.41 0 0 1-9.357 11.86 1.001 1.001 0 0 0 .922 1.776 20.415 20.415 0 0 0 10.374-13.15 1 1 0 0 0-.726-1.212zM34.257 52.197c-.415.028-.834.041-1.257.041a1 1 0 1 0 0 2 21.7 21.7 0 0 0 1.386-.045 1 1 0 0 0 .933-1.062c-.035-.55-.522-.95-1.062-.934zM42.048 41.479l-1.108-3.41a1.44 1.44 0 0 1 .525-1.615l2.9-2.106a3.392 3.392 0 0 0 1.25-3.85 3.393 3.393 0 0 0-3.275-2.38h-3.584c-.628 0-1.18-.4-1.373-.997l-1.108-3.41A3.392 3.392 0 0 0 33 21.333c-1.52 0-2.806.934-3.275 2.38l-1.108 3.41a1.439 1.439 0 0 1-1.373.996H23.66c-1.52 0-2.806.934-3.275 2.38a3.392 3.392 0 0 0 1.25 3.85l2.9 2.107c.508.368.719 1.017.525 1.614l-1.108 3.41a3.392 3.392 0 0 0 1.251 3.85c.615.445 1.32.669 2.025.669.705 0 1.409-.224 2.024-.67l2.9-2.106a1.442 1.442 0 0 1 1.697-.001l2.899 2.106a3.393 3.393 0 0 0 4.049.001 3.392 3.392 0 0 0 1.25-3.85z"/><path d="M61.9 20.423a9.734 9.734 0 0 1-3.02-5.222 11.616 11.616 0 0 0-3.64-6.285 11.658 11.658 0 0 0-6.638-2.952 9.76 9.76 0 0 1-5.52-2.451A11.728 11.728 0 0 0 35.226.5c-2.064 0-4.1.547-5.887 1.582a9.894 9.894 0 0 1-5.913 1.267 12.56 12.56 0 0 0-1.217-.068 11.764 11.764 0 0 0-10.732 6.986 9.741 9.741 0 0 1-4.04 4.488c-3.619 2.1-5.867 6-5.867 10.18 0 .807.087 1.631.26 2.45.146.688.217 1.36.217 2.054a9.576 9.576 0 0 1-.84 3.947 11.618 11.618 0 0 0-1.014 4.77c0 3.323 1.424 6.514 3.908 8.751a9.727 9.727 0 0 1 3.02 5.223 11.668 11.668 0 0 0 3.639 6.284 11.707 11.707 0 0 0 5.752 2.823v14.518c0 1.406.777 2.68 2.028 3.324a3.717 3.717 0 0 0 3.876-.273l9.288-6.578a3.236 3.236 0 0 1 3.862.079l7.886 6.11a3.723 3.723 0 0 0 3.944.402 3.714 3.714 0 0 0 2.092-3.356V62.556a11.812 11.812 0 0 0 5.035-5.493 9.734 9.734 0 0 1 4.04-4.487 11.81 11.81 0 0 0 5.867-10.181c0-.807-.087-1.631-.26-2.452a9.911 9.911 0 0 1-.217-2.052c0-1.376.282-2.704.839-3.944l.001-.002a11.618 11.618 0 0 0 1.014-4.77c0-3.324-1.424-6.515-3.908-8.752zm1.067 12.706a11.556 11.556 0 0 0-1.014 4.762c0 .825.088 1.655.26 2.466.143.683.217 1.369.217 2.038a9.803 9.803 0 0 1-4.87 8.45 11.716 11.716 0 0 0-4.863 5.403 9.817 9.817 0 0 1-4.65 4.817c-1.615.793-3.467 1.094-5.277.927a11.76 11.76 0 0 0-7.11 1.525 9.764 9.764 0 0 1-4.886 1.313 9.734 9.734 0 0 1-6.52-2.5 11.73 11.73 0 0 0-6.675-2.954 9.748 9.748 0 0 1-5.483-2.45 9.678 9.678 0 0 1-3.02-5.213 11.72 11.72 0 0 0-3.637-6.291 9.798 9.798 0 0 1-3.246-7.266c0-1.376.283-2.706.84-3.953a11.545 11.545 0 0 0 1.014-4.763c0-.824-.088-1.654-.26-2.466a9.926 9.926 0 0 1-.217-2.037 9.8 9.8 0 0 1 4.87-8.45 11.732 11.732 0 0 0 4.864-5.405c1.706-3.835 5.675-6.14 9.93-5.742a11.967 11.967 0 0 0 7.106-1.526 9.764 9.764 0 0 1 4.886-1.313c2.413 0 4.727.888 6.52 2.5a11.748 11.748 0 0 0 6.649 2.952 9.67 9.67 0 0 1 5.511 2.453 9.623 9.623 0 0 1 3.018 5.213 11.722 11.722 0 0 0 3.637 6.29 9.799 9.799 0 0 1 3.246 7.267 9.625 9.625 0 0 1-.84 3.953z"/></g></svg>