<svg width="76" height="97" viewBox="0 0 76 97" xmlns="http://www.w3.org/2000/svg"><g fill="#FFF" fill-rule="nonzero"><path d="M47.6 86.1H5.4V5.3h65.2v80.8h-7.2v4.7h11.9V.6H.7v90.2h46.9"/><path d="M62.6 17.2H13.4c-1.4 0-2.6-1.2-2.6-2.6 0-1.4 1.2-2.6 2.6-2.6h49.2c1.4 0 2.6 1.2 2.6 2.6 0 1.4-1.2 2.6-2.6 2.6zM62.6 30.8H13.4c-1.4 0-2.6-1.2-2.6-2.6 0-1.4 1.2-2.6 2.6-2.6h49.2c1.4 0 2.6 1.2 2.6 2.6 0 1.4-1.2 2.6-2.6 2.6zM62.6 44.4H13.4c-1.4 0-2.6-1.2-2.6-2.6 0-1.4 1.2-2.6 2.6-2.6h49.2c1.4 0 2.6 1.2 2.6 2.6 0 1.4-1.2 2.6-2.6 2.6zM55.5 78.9c-2.1 0-4.1-.5-5.8-1.4v18.7l5.8-3.3 5.8 3.3V77.5c-1.7.8-3.7 1.4-5.8 1.4z"/><circle cx="55.5" cy="67" r="9.7"/></g></svg>