<svg width="64" height="80" viewBox="0 0 64 80" xmlns="http://www.w3.org/2000/svg"><g fill="#FFF" fill-rule="nonzero"><path d="M40.386 5H19.614c-.34 0-.614.224-.614.5s.275.5.614.5h20.772c.34 0 .614-.224.614-.5s-.275-.5-.614-.5zM39.976 10h.357c.369 0 .667-.224.667-.5s-.298-.5-.667-.5H37c1.182 0 2.242.388 2.976 1zM30.386 15H9.614c-.34 0-.614.224-.614.5s.275.5.614.5h20.772c.34 0 .614-.224.614-.5s-.275-.5-.614-.5zM31 19.5c0-.276-.275-.5-.614-.5H9.614c-.34 0-.614.224-.614.5s.275.5.614.5h20.772c.34 0 .614-.224.614-.5zM9 26.5c0 .276.278.5.621.5h9.752A21.424 21.424 0 0 1 21 26H9.621c-.343 0-.621.224-.621.5zM30.684 23H9.623c-.345 0-.623.224-.623.5s.278.5.623.5h16.244A25.463 25.463 0 0 1 31 23.08a.711.711 0 0 0-.316-.08z"/><path d="M11.256 2.504c0-.69.564-1.252 1.256-1.252h34.976c.692 0 1.256.562 1.256 1.252v26.99c.441.482.86.985 1.256 1.506V2.504A2.515 2.515 0 0 0 47.488 0H12.512A2.515 2.515 0 0 0 10 2.504v6.26h1.256v-6.26zM33.002 30v1.273c7.003 0 12.712 5.7 12.725 12.706.011 7.017-5.689 12.736-12.73 12.748-7.004 0-12.712-5.7-12.724-12.705a12.64 12.64 0 0 1 3.712-9.006 12.647 12.647 0 0 1 8.995-3.743L33.002 30h-.024c-7.734.013-13.993 6.293-13.978 14.024C19.014 51.748 25.277 58 32.997 58h.027c7.73-.013 13.988-6.29 13.976-14.024C46.985 36.252 40.721 30 33.002 30z"/><path d="M63.82 68.977L52.097 57.163a.628.628 0 0 0-.441-.185.592.592 0 0 0-.444.18l-1.337 1.314-1.63-1.633a19.768 19.768 0 0 0 4.804-12.961C53.028 32.893 44.069 24 33.024 24h-.035C21.933 24.02 12.98 32.95 13 43.945c.021 10.986 8.982 19.877 20.022 19.877h.036a20.008 20.008 0 0 0 10.158-2.775l2.002 2.002-1.587 1.56a.62.62 0 0 0-.01.875L57.534 79.81a.626.626 0 0 0 .884.015.62.62 0 0 0 .016-.88L44.951 65.062l6.695-6.582L62.93 69.85c.242.245.64.248.885.006a.62.62 0 0 0 .006-.88zm-30.764-6.4h-.034c-10.33 0-18.75-8.359-18.77-18.634-.018-10.292 8.388-18.68 18.739-18.699h.033c10.332 0 18.753 8.36 18.773 18.636.014 10.292-8.393 18.68-18.741 18.698zm11.243-2.212a20.12 20.12 0 0 0 3.103-2.604l1.583 1.586-2.877 2.827-1.809-1.809z"/><circle cx="60.5" cy="76.5" r="1"/><path d="M49.49 65.063l2.002-1.964a.653.653 0 0 0 .024-.9.6.6 0 0 0-.868-.025l-2.456 2.41a.65.65 0 0 0-.016.908l9.772 10.318a.6.6 0 0 0 .868.008.653.653 0 0 0 .008-.9l-9.334-9.855zM32 35.65v11.7c0 .359.224.65.5.65s.5-.291.5-.65v-11.7c0-.359-.224-.65-.5-.65s-.5.291-.5.65z"/><circle cx="32.5" cy="50.5" r="1"/><path d="M9 30.5c0 .276.282.5.63.5h6.373c.317-.344.65-.677.997-1H9.63c-.348 0-.63.224-.63.5zM9 34.5c0 .276.26.5.582.5h3.847A16.2 16.2 0 0 1 14 34H9.582c-.322 0-.582.224-.582.5zM13 38H9.658c-.364 0-.658.224-.658.5s.294.5.658.5h2.985c.108-.337.224-.671.357-1zM12 41H9.623c-.345 0-.623.224-.623.5s.278.5.623.5h2.266c.024-.336.063-.67.111-1zM9.622 45c-.344 0-.622.224-.622.5s.278.5.622.5H12c-.049-.33-.088-.664-.112-1H9.622zM9.658 49c-.364 0-.658.224-.658.5s.294.5.658.5H13c-.134-.329-.25-.663-.358-1H9.658zM9.582 53c-.322 0-.582.224-.582.5s.26.5.582.5H14c-.204-.327-.393-.66-.572-1H9.582zM9.63 56c-.348 0-.63.224-.63.5s.282.5.63.5H17a18.473 18.473 0 0 1-.995-1H9.63z"/><path d="M2.512 61.738a1.26 1.26 0 0 1-1.256-1.262V12.524a1.26 1.26 0 0 1 1.256-1.262h34.976a1.26 1.26 0 0 1 1.256 1.262v10.904c.424.12.843.252 1.256.397V12.524A2.525 2.525 0 0 0 37.488 10H2.512A2.525 2.525 0 0 0 0 12.524v47.952A2.525 2.525 0 0 0 2.512 63h20.432a21.307 21.307 0 0 1-2.057-1.262H2.512z"/></g></svg>