<svg width="80" height="80" viewBox="0 0 80 80" xmlns="http://www.w3.org/2000/svg"><g fill="#FFF" fill-rule="nonzero"><path d="M77.5 75.5h-73V2.63a2 2 0 1 0-4 0V77.5a2 2 0 0 0 2 2h75a2 2 0 1 0 0-4z"/><path d="M13.438 35.879a3.552 3.552 0 0 0 2.518-1.042h.001a3.567 3.567 0 1 0-2.52 1.042zm-.31-3.87l.619.618-.619-.618zM25.938 67.129a3.552 3.552 0 0 0 2.518-1.042h.001a3.567 3.567 0 1 0-2.52 1.042zm-.31-3.87l.619.618-.619-.618zM69.688 20.253a3.56 3.56 0 1 0-.005-7.121 3.56 3.56 0 0 0 .004 7.121zm-.31-3.87a.437.437 0 1 1 .619.619.437.437 0 0 1-.619-.619zM44.688 42.129a3.552 3.552 0 0 0 2.518-1.042h.001a3.567 3.567 0 1 0-2.52 1.042zm-.31-3.87l.619.618-.619-.618zM35.918 48.549a3.563 3.563 0 0 0 5.039 5.038 3.563 3.563 0 0 0-5.039-5.038zm2.829 2.828a.437.437 0 1 1-.62-.618l.62.618-.619-.618a.437.437 0 1 1 .619.618zM14.043 42.299a3.563 3.563 0 0 0 5.039 5.038 3.563 3.563 0 0 0-5.039-5.038zm2.829 2.828a.437.437 0 1 1-.62-.618l.62.618-.619-.618a.437.437 0 1 1 .619.618zM60.313 32.754a3.552 3.552 0 0 0 2.518-1.042h.001a3.567 3.567 0 1 0-2.52 1.042zm-.31-3.87l.619.618-.619-.618zM43.125 7.755h1.125V8.88a2 2 0 1 0 4 0V7.755h1.125a2 2 0 1 0 0-4H48.25V2.63a2 2 0 1 0-4 0v1.125h-1.125a2 2 0 1 0 0 4zM77.5 30.896h-1.125v-1.125a2 2 0 1 0-4 0v1.125H71.25a2 2 0 1 0 0 4h1.125v1.125a2 2 0 1 0 4 0v-1.125H77.5a2 2 0 1 0 0-4zM36.875 26.505H38v1.125a2 2 0 1 0 4 0v-1.125h1.125a2 2 0 1 0 0-4H42V21.38a2 2 0 1 0-4 0v1.125h-1.125a2 2 0 1 0 0 4z"/></g></svg>