<svg width="99" height="100" viewBox="0 0 99 100" xmlns="http://www.w3.org/2000/svg"><g fill="#FFF" fill-rule="nonzero"><path d="M20.54 71.151c-.025 0-.05.025-.075.025a6.685 6.685 0 0 0-3.402 1.872c-.937.936-1.504 2.069-1.825 3.251-.05.074-.05.148-.074.222a6.95 6.95 0 0 0 1.874 6.428 7.015 7.015 0 0 0 9.912 0c.962-.96 1.578-2.167 1.874-3.399 0-.024.025-.049.025-.074.468-2.241-.148-4.68-1.899-6.428-1.75-1.75-4.167-2.365-6.41-1.897zm-1.825 7.365l3.896-3.892 2.564 2.562-3.896 3.891-2.564-2.561zm1.824-5.96l1.11 1.107-3.896 3.892-1.159-1.157A5.477 5.477 0 0 1 18 73.984a5.702 5.702 0 0 1 2.54-1.429zM18 82.012a5.673 5.673 0 0 1-1.651-3.916l5.572 5.567a5.684 5.684 0 0 1-3.92-1.65zm5.598 1.38l-1.356-1.355 3.895-3.892 1.332 1.33a5.693 5.693 0 0 1-1.43 2.537 5.651 5.651 0 0 1-2.441 1.38zm4.044-5.64l-5.376-5.37a5.585 5.585 0 0 1 3.748 1.625 5.526 5.526 0 0 1 1.628 3.744z"/><path d="M85.719.212L49.564 36.707c-.026.026-.051.077-.077.103-.025.051-.05.077-.076.129l-1.045 2.805c-.102.257-.025.54.153.746l.051.052-8.892 9.008-.051-.052a.666.666 0 0 0-.74-.154l-2.776 1.055c-.051.026-.077.051-.128.077-.025.026-.076.052-.102.077L.211 86.56a.704.704 0 0 0 0 1.004l3.21 3.243 5.681 5.739 3.21 3.243c.281.283.714.283.995 0L98.79 13.44a.704.704 0 0 0 0-1.004l-3.21-3.243-5.682-5.739-3.21-3.243a.658.658 0 0 0-.97 0zm2.7 3.732l-1.987 2.008-2.216-2.24 1.987-2.007 2.217 2.24zm5.683 5.74l-1.988 2.007-4.688-4.736 1.987-2.007 4.689 4.735zM4.898 90.29l1.988-2.008 4.688 4.762-1.987 2.007-4.689-4.761zm8.154 2.239L7.37 86.79l-2.7-2.727 31.695-32.017 4.077 4.118c.28.283.714.283.994 0l13.708-13.846a.704.704 0 0 0 0-1.004l-4.077-4.118 32.18-32.505 2.701 2.728 5.682 5.739 2.7 2.728-78.577 79.398-2.701-2.754zm32.97-43.006l-2.191-2.213 2.522-2.548 2.192 2.213-2.523 2.548zm3.796-9.677l.51-1.364 3.312 3.346-.917.926-2.905-2.908zm1.911 3.912l-2.19 2.213-2.192-2.213 2.191-2.214 2.191 2.214zm-8.866 4.555l2.19 2.214-2.19 2.213-2.192-2.213 2.192-2.214zm-1.02 5.43l-.917.927-3.312-3.346 1.35-.514 2.88 2.934zM3.675 85.067l2.217 2.24-1.987 2.007-2.217-2.24 1.987-2.007zM10.58 96.03l1.988-2.007 2.216 2.239-1.987 2.007-2.217-2.239zm84.745-81.122l-2.217-2.24 1.987-2.007 2.217 2.24-1.987 2.007z"/><path d="M75.52 15.151a.397.397 0 0 0-.221.074 6.944 6.944 0 0 0-3.251 1.823c-.96.96-1.577 2.168-1.872 3.4 0 .025-.025.05-.025.074-.468 2.242.148 4.68 1.897 6.43s4.162 2.365 6.428 1.897c.025 0 .05-.025.074-.025a6.675 6.675 0 0 0 3.4-1.872 7.004 7.004 0 0 0 0-9.904c-1.75-1.75-4.188-2.365-6.43-1.897zm-1.92 7.44L77.49 18.7l2.562 2.562-3.867 3.892-2.587-2.562zm1.798-5.986l1.157 1.158-3.892 3.892-1.108-1.109a5.696 5.696 0 0 1 1.429-2.537c.69-.715 1.527-1.158 2.414-1.404zm-2.414 9.386a5.578 5.578 0 0 1-1.626-3.745l5.37 5.371c-1.355-.05-2.71-.567-3.744-1.626zm5.468 1.454l-1.33-1.33 3.891-3.893 1.355 1.355a5.48 5.48 0 0 1-1.404 2.414c-.69.74-1.576 1.207-2.512 1.454zm4.187-5.519l-5.567-5.568a5.633 5.633 0 0 1 5.567 5.568z"/></g></svg>