<svg width="32" height="100" viewBox="0 0 32 100" xmlns="http://www.w3.org/2000/svg"><path d="M17.269 14.167v-3.134c2.342-.681 4.062-2.845 4.062-5.404A5.635 5.635 0 0 0 15.702 0a5.633 5.633 0 0 0-5.628 5.628c0 2.635 1.836 4.827 4.285 5.437v3.102H0v41.094h3.678v26.543h10.617v4.029c-3.407.538-6.012 3.446-6.012 7.004 0 3.939 3.192 7.163 7.132 7.163 3.886 0 7.046-3.137 7.131-7.004h-2.143c-.085 2.685-2.285 4.861-4.988 4.861-2.757 0-4.989-2.263-4.989-5.021a4.986 4.986 0 0 1 4.989-4.989c.563 0 1.093.116 1.599.288V81.803h10.138V55.261h3.869V14.167H17.269zm-5.148-8.539a3.58 3.58 0 0 1 3.582-3.582 3.58 3.58 0 0 1 3.582 3.582 3.58 3.58 0 0 1-3.583 3.582 3.578 3.578 0 0 1-3.581-3.582zm12.887 68.02H6.204v-5.82h18.804v5.82zm0-12.599H6.204v-5.788h18.804v5.788z" fill="#FFF" fill-rule="nonzero"/></svg>