<svg width="90" height="90" viewBox="0 0 90 90" xmlns="http://www.w3.org/2000/svg"><path d="M82.588 52.346c-4.63-4.372-10.8-6.818-18.578-7.563l.468-.436c3.664-3.616 4.946-9.136 3.138-13.444-1.626-3.871-5.06-5.711-8.514-7.137a73.374 73.374 0 0 0-7.653-2.69 5.5 5.5 0 0 0 2.382-1.48c.239-.222.526-.51.956-.871 1.712-1.295 2.731-3.453 2.717-5.754-.027-2.18-1.004-4.211-2.62-5.446a17.314 17.314 0 0 0-3.828-1.883 11.848 11.848 0 0 1-3.884-2.531C45.26 1.45 43.088-.41 39.232.08c-2.401.308-5.74 2.786-9.863 7.36-2.564 2.829-3.425 7.998-.622 11.189.932 1.02 2.096 1.737 3.368 2.074-7.768 2.649-15.565 10.52-15.555 20.89 0 .723.086 4.446 1.731 6.839 1.518 2.033 3.692 3.324 6.056 3.595-9.117 3.935-17.45 9.434-22.54 16.613-2.993 4.255-2.209 10.413 1.914 15.019 3.358 3.744 8.304 4.19 12.666 4.595 1.52.101 3.034.297 4.535.585a52.824 52.824 0 0 0 11.48 1.159c4.209 0 8.323-.372 12.37-.745 6.466-.585 12.57-1.148 18.817-.234 10.341 1.5 18.721-1.69 23.505-8.934 5.74-8.711 2.315-21.368-4.506-27.74zm-24.242-1.721h.182c9.021 0 15.62 2.17 20.111 6.512 4.492 4.341 7.001 12.59 3.956 18.331-6.311 6.24-15.17 1.574-23.943 1.52-9.72-.066-18.196 9.105-26.384 3.093-6.618-4.884-15.716-3.701-17.67-5.633-2.681-2.779-4.137-5.177-3.18-7.337 8.112-7.206 20.361-12.134 31.605-14.608a36.94 36.94 0 0 0 8.437-1.227c.326-.087.67-.195 1.025-.325 2.03-.228 4.06-.326 5.86-.326zM39.889 5.636c.24-.015.48-.015.72 0 1.64 0 2.608.82 4.099 2.063a16.562 16.562 0 0 0 5.451 3.296c.966.327 1.9.758 2.785 1.287.407.32.648.829.652 1.372a1.81 1.81 0 0 1-.415 1.17c-5.392 1.445-9.214.86-14.97.488a7.68 7.68 0 0 1-3.23-.723c-1.003-.502-1.634-1.595-1.61-2.786.049-.493.125-.983.228-1.467a39.733 39.733 0 0 1 2.419-2.265l.188.415a1.008 1.008 0 0 0-.139-.457c1.807-1.52 3.15-2.308 3.822-2.393zm-5.247 19.799c7.725-1.991 15.906.738 22.17 3.34 2.392.995 4.746 2.14 5.552 4.174.95 2.205-.275 5.084-1.898 6.679a26.978 26.978 0 0 1-5.163 3.639c-1.2.029-2.396.161-3.578.396-4.157.963-9.33-1.648-13.562-1.98-3.644-.29-8.542 2.087-12.12-.418-1.803-1.252-3.283-2.643-3.796-4.281 1.832-5.77 7.185-10.211 12.395-11.55z" fill="#FFF" fill-rule="nonzero"/></svg>