<svg width="86" height="80" viewBox="0 0 86 80" xmlns="http://www.w3.org/2000/svg"><g fill="#FFF" fill-rule="nonzero"><path d="M85.87 70.09c0-.03.001-.062-.002-.093-.003-.035-.013-.068-.018-.103a1.788 1.788 0 0 0-.03-.154c-.006-.026-.01-.054-.018-.081-.01-.033-.026-.064-.038-.097-.019-.05-.036-.1-.059-.148-.012-.026-.021-.054-.036-.079-.015-.03-.036-.056-.054-.084a1.39 1.39 0 0 0-.088-.135c-.02-.025-.035-.053-.057-.077l-.012-.02c-.018-.019-.037-.033-.055-.052a1.428 1.428 0 0 0-.117-.116c-.019-.018-.032-.038-.053-.055l-9.643-8.044a1.798 1.798 0 0 0-2.527.222 1.783 1.783 0 0 0 .223 2.518l5.858 4.887h-66.6V6.707l4.903 5.836c.355.423.864.641 1.377.641.406 0 .815-.136 1.15-.416.76-.634.86-1.762.225-2.518L12.125.64c-.017-.019-.038-.033-.055-.052a1.784 1.784 0 0 0-.116-.116c-.02-.018-.034-.038-.054-.055L11.88.405c-.024-.02-.051-.037-.075-.055-.043-.032-.09-.06-.135-.088-.03-.018-.058-.04-.089-.056-.025-.013-.05-.021-.076-.033a1.696 1.696 0 0 0-.145-.059c-.035-.012-.07-.03-.105-.039-.026-.008-.053-.01-.08-.018a1.992 1.992 0 0 0-.148-.028c-.038-.006-.074-.016-.111-.02-.032-.002-.064 0-.096 0C10.797.006 10.774 0 10.749 0c-.024 0-.048.006-.072.007-.034.002-.067 0-.1.002-.037.004-.072.013-.109.019-.05.008-.097.017-.144.028-.029.007-.057.011-.085.02-.036.01-.07.026-.104.038a2.403 2.403 0 0 0-.14.057c-.027.012-.055.022-.081.036-.03.016-.058.038-.089.057a1.82 1.82 0 0 0-.13.085c-.028.018-.055.036-.08.057l-.018.011c-.02.017-.034.038-.054.055-.04.037-.079.075-.115.115-.018.019-.038.033-.055.054L1.299 10.25a1.783 1.783 0 0 0 .225 2.518 1.796 1.796 0 0 0 2.528-.223l4.903-5.837v63.46c0 .986.804 1.787 1.794 1.787h68.398l-5.858 4.887c-.76.634-.86 1.76-.224 2.518.356.423.864.64 1.377.64a1.79 1.79 0 0 0 1.15-.417l9.644-8.045c.02-.017.034-.037.053-.055.043-.038.083-.078.122-.121.015-.018.034-.03.05-.048l.012-.018c.02-.024.037-.052.056-.078.033-.043.06-.089.09-.134.017-.029.038-.056.053-.085.014-.025.023-.053.036-.079a1.65 1.65 0 0 0 .059-.148c.012-.032.028-.064.038-.097.008-.027.011-.054.018-.081a1.5 1.5 0 0 0 .03-.154c.005-.035.014-.068.018-.103.003-.03.001-.062.002-.093 0-.026.008-.051.008-.077 0-.026-.01-.05-.01-.076z"/><path d="M22.662 60C57.52 60 85.88 37.908 85.88 10.751c0-.967-.798-1.751-1.78-1.751-.984 0-1.782.784-1.782 1.751 0 25.225-26.762 45.747-59.657 45.747-.983 0-1.781.784-1.781 1.75 0 .968.798 1.752 1.78 1.752z"/></g></svg>