<svg width="87" height="93" viewBox="0 0 87 93" xmlns="http://www.w3.org/2000/svg"><g fill="#FFF" fill-rule="nonzero"><path d="M36.635 2.16h-7.387a2.854 2.854 0 0 0-2.854 2.854v1.271h-3.321v5.357h3.321v1.272a2.854 2.854 0 0 0 2.854 2.854h7.387a2.855 2.855 0 0 0 2.854-2.854v-7.9a2.854 2.854 0 0 0-2.854-2.854zM48.284 16.494c-4.421-.886-7.295-5.237-6.401-9.705C42.78 2.31 47.105-.586 51.526.3c4.43.888 7.292 5.222 6.396 9.7-.894 4.468-5.21 7.379-9.638 6.494"/><path d="M84.127 31.929L67.17 15.224c-1.153-1.228-3.212-1.847-4.856-1.847-2.305 0-5.938 1.371-7.034 5.144l.005.013c-.045.119-.103.231-.137.357L51.802 31.17l-5.396-7.739a4.046 4.046 0 0 0-5.635-1.006 3.974 3.974 0 0 0-.834.807l-1.267-3.184a2.022 2.022 0 0 0-1.813-1.272l-6.881.008a2.003 2.003 0 0 0-.679.133 2.017 2.017 0 0 0-1.235 1.501L.481 89.544a2.022 2.022 0 0 0 1.879 2.773c.804 0 1.564-.48 1.88-1.273L15.49 62.85h3.618L30.27 34.81v55.475a2.024 2.024 0 1 0 4.047 0V37.001l10.289 25.848h3.372l11.22 28.183a2.024 2.024 0 1 0 3.76-1.497L52.336 62.848h3.371L44.646 35.061l5.465 7.84a4.045 4.045 0 0 0 7.225-1.25l2.587-9.501 12.788 12.884v40.622c0 1.89.658 3.467 1.972 4.746 1.312 1.269 2.91 1.905 4.8 1.905 1.809 0 3.367-.637 4.681-1.905 1.313-1.279 1.97-2.856 1.97-4.746V37.101c.016-1.911-.883-3.823-2.007-5.172zM44.755 52.281l-8.952-22.49h2.388l8.952 22.49h-2.388z"/></g></svg>