<svg width="112" height="98" viewBox="0 0 112 98" xmlns="http://www.w3.org/2000/svg"><path d="M39.29 12.274a.782.782 0 1 1-1.564 0c0-3.36.309-6.004 1.495-7.87 1.237-1.948 3.333-2.977 6.851-2.977h57.568c3.512 0 5.608.972 6.853 2.865 1.194 1.816 1.507 4.41 1.507 7.777V30.15h-.004l-.014 17.875h.004c0 3.37-.31 5.914-1.507 7.684-1.243 1.837-3.332 2.751-6.839 2.751H46.072c-3.507 0-5.596-.914-6.84-2.751-1.196-1.768-1.506-4.312-1.506-7.684a.782.782 0 1 1 1.563 0c0 3.08.255 5.363 1.232 6.809.93 1.376 2.623 2.06 5.55 2.06h57.567c2.928 0 4.619-.684 5.55-2.06.977-1.445 1.23-3.726 1.23-6.809h.005l.013-17.875h-.004V12.07c0-3.086-.258-5.421-1.245-6.92-.936-1.425-2.629-2.155-5.55-2.155H46.067c-2.914 0-4.603.777-5.537 2.249-.987 1.554-1.244 3.943-1.244 7.033l.002-.002zM14.771 90.456v5.978h1.07v-5.978h-1.07zm-.586 5.978v-5.978h-1.421v5.978h1.421zm2.242-5.978v5.978h1.07v-5.978h-1.07zm1.656 0v5.978h1.069v-5.978h-1.07zm1.655 0v5.978h1.07v-5.978h-1.07zm1.656 0v5.978h1.069v-5.978h-1.07zm1.655 0v5.978h1.07v-5.978h-1.07zm1.656 0v5.978h1.07v-5.978h-1.07zm1.655 0v5.978h1.07v-5.978h-1.07zm1.656 0v5.978h1.07v-5.978h-1.07zm1.656 0v5.978h1.069v-5.978h-1.07zm1.655 0v5.978h1.07v-5.978h-1.07zm1.656 0v5.978h1.069v-5.978h-1.07zm1.655 0v5.978h1.07v-5.978h-1.07zm1.656 0v5.978h1.07v-5.978h-1.07zm1.655 0v5.978h1.07v-5.978h-1.07zm1.656 0v5.978h1.07v-5.978h-1.07zm1.656 0v5.978h1.069v-5.978h-1.07zm1.655 0v5.978h1.07v-5.978h-1.07zm1.656 0v5.978h1.069v-5.978h-1.07zm1.655 0v5.978h1.07v-5.978h-1.07zm1.656 0v5.978h1.07v-5.978h-1.07zm1.656 0v5.978h1.069v-5.978h-1.07zm1.655 0v5.978h1.07v-5.978h-1.07zm1.656 0v5.978h1.069v-5.978h-1.07zm1.655 0v5.978h1.07v-5.978h-1.07zm1.656 0v5.978h1.069v-5.978h-1.07zm1.655 0v5.978h1.07v-5.978h-1.07zm1.656 0v5.978h1.07v-5.978h-1.07zm1.656 0v5.978h1.069v-5.978h-1.07zm1.655 0v5.978h1.07v-5.978h-1.07zm1.656 0v5.978h1.069v-5.978h-1.07zm1.655 0v5.978h1.07v-5.978h-1.07zm1.656 0v5.978h1.07v-5.978h-1.07zm1.655 0v5.978h1.07v-5.978h-1.07zm1.656 0v5.978h32.023v-5.978H71.062zm28.159-72.207l-8.519-4.609v9.22l8.519-4.61v-.001zm-3.761-3.145l5.012 2.712a.488.488 0 0 1 .004.863l-10.004 5.413a.49.49 0 0 1-.749-.415V12.82a.488.488 0 0 1 .72-.43l5.015 2.714h.002zM90.593 8.3a.49.49 0 0 1 0-.979h8.336c2.778 0 4.43.761 5.405 2.245.944 1.434 1.19 3.503 1.19 6.19v8.423a.49.49 0 1 1-.977 0v-8.423c0-2.513-.213-4.417-1.026-5.656-.782-1.19-2.184-1.8-4.592-1.8h-8.336zM80.728 98H11.954a.782.782 0 0 1-.782-.783v-7.544c0-.432.35-.783.782-.783h91.913c.432 0 .782.35.782.783v7.544c0 .433-.35.783-.782.783h-23.14zM34.587 34.337l-.018-.062c-.309-1.15-.61-2.237-.893-3.22-.477-1.653-.905-3.017-1.232-3.869-.782-2.043-2.29-3.614-4.447-4.714-2.267-1.157-5.242-1.798-8.836-1.93-3.544.13-6.435.775-8.665 1.912-2.192 1.118-3.74 2.715-4.635 4.764-1.233 2.822-2.449 10.695-3.36 16.581-.209 1.355-.402 2.609-.553 3.525-.041.25-.096.518-.15.787-.235 1.14-.483 2.344.719 2.747 1.276.43 1.843-.515 2.195-1.563.127-.378.236-.793.338-1.179l.09-.342 2.844-10.527c.328-1.217.94-1.902 1.593-2.168a1.76 1.76 0 0 1 1.061-.09c.335.074.641.245.9.495.53.513.861 1.38.725 2.425L9.327 78.385a.781.781 0 1 1-1.558-.111l2.936-40.49c.002-.028.006-.055.01-.083.066-.51-.057-.894-.26-1.092a.359.359 0 0 0-.16-.098.233.233 0 0 0-.134.016c-.238.098-.486.442-.67 1.123L6.647 48.177c-.063.23-.076.282-.09.337-.105.4-.219.831-.367 1.276-.604 1.8-1.636 3.4-4.168 2.548-2.511-.846-2.12-2.742-1.751-4.54.05-.243.1-.486.139-.727.185-1.142.361-2.283.553-3.512.922-5.975 2.158-13.965 3.47-16.967 1.045-2.394 2.834-4.25 5.355-5.535 2.434-1.24 5.553-1.943 9.345-2.078h.063c3.839.137 7.038.835 9.511 2.096 2.508 1.278 4.27 3.127 5.2 5.552.324.85.768 2.262 1.266 3.998.203.708.416 1.468.635 2.264l5.383-3.323-.002-.002c.82-.546 1.963-.618 2.923-.284.334.118.648.284.926.496l13.374-10.048a.779.779 0 1 1 .934 1.249L45.951 31.04c.043.129.076.264.098.407.138.88-.157 1.955-1.171 3.156a.62.62 0 0 1-.096.094l-8.088 6.768a.788.788 0 0 1-.125.086c-2.025 1.262-3.66 1.211-4.98.34-1.24-.816-2.118-2.358-2.743-4.184-.008-.025-.016-.05-.022-.076-.183-.664-.428-1.002-.664-1.098a.217.217 0 0 0-.133-.016.349.349 0 0 0-.16.098c-.21.202-.33.597-.257 1.124l.006.052 2.936 40.49a.782.782 0 1 1-1.558.112l-2.936-40.476c-.136-1.045.196-1.912.726-2.425.258-.249.566-.419.899-.495.346-.078.71-.055 1.061.09.647.264 1.251.937 1.583 2.131.524 1.524 1.21 2.779 2.115 3.376.808.532 1.875.52 3.284-.352l8-6.693c.65-.785.85-1.402.778-1.858a1 1 0 0 0-.28-.544 1.63 1.63 0 0 0-.63-.387c-.528-.184-1.132-.16-1.54.113l-.003-.002-.023.016-5.8 3.581c.227.852.456 1.728.683 2.615a.778.778 0 1 1-1.51.384c-.273-1.067-.549-2.12-.818-3.126l.004-.004zM18.832 0a8.945 8.945 0 0 1 6.35 2.634 8.967 8.967 0 0 1 2.632 6.358 8.967 8.967 0 0 1-2.631 6.359 8.942 8.942 0 0 1-6.35 2.634 8.945 8.945 0 0 1-6.351-2.634A8.971 8.971 0 0 1 9.85 8.992a8.967 8.967 0 0 1 2.63-6.358A8.945 8.945 0 0 1 18.833 0zm5.244 3.74a7.386 7.386 0 0 0-5.244-2.174 7.39 7.39 0 0 0-5.244 2.174 7.404 7.404 0 0 0-2.172 5.25c0 2.051.831 3.908 2.172 5.251a7.386 7.386 0 0 0 5.244 2.174 7.39 7.39 0 0 0 5.244-2.174 7.404 7.404 0 0 0 2.172-5.25c0-2.052-.83-3.909-2.172-5.251z" fill="#FFF" fill-rule="nonzero"/></svg>