<svg width="66" height="72" viewBox="0 0 66 72" xmlns="http://www.w3.org/2000/svg"><g fill="#FFF" fill-rule="nonzero"><path d="M33 .76a6.656 6.656 0 016.648 6.648V25.19h10.198a1 1 0 01.824 1.567L33.824 51.244a1.001 1.001 0 01-1.648 0L15.33 26.757a1.001 1.001 0 01.824-1.567h10.198V7.408A6.656 6.656 0 0133 .759zM7.223 71.24h51.554a6.502 6.502 0 006.494-6.494v-2.454a6.502 6.502 0 00-6.494-6.495H7.223a6.502 6.502 0 00-6.494 6.495v2.454a6.502 6.502 0 006.494 6.495zm-4.494-8.948a4.5 4.5 0 014.494-4.495h51.554a4.5 4.5 0 014.494 4.495v2.454a4.5 4.5 0 01-4.494 4.495H7.223a4.5 4.5 0 01-4.494-4.495v-2.454z"/></g></svg>