<svg width="197" height="191" viewBox="0 0 197 191" xmlns="http://www.w3.org/2000/svg" xmlns:xlink="http://www.w3.org/1999/xlink"><defs><path d="M136.375 43h-79.75C51.355 43 47 47.385 47 52.692v172.616c0 5.307 4.354 9.692 9.625 9.692h79.75c5.27 0 9.625-4.385 9.625-9.692V52.692c0-5.307-4.354-9.692-9.625-9.692zM96.5 46.23c.688 0 1.146.462 1.146 1.155 0 .692-.459 1.153-1.146 1.153-.688 0-1.146-.461-1.146-1.153 0-.462.459-1.154 1.146-1.154zm-7.104 4.847h14.208c.688 0 1.375.692 1.375 1.385 0 .692-.687 1.384-1.375 1.384H89.396c-.688 0-1.375-.692-1.375-1.384 0-.693.687-1.385 1.375-1.385zm-6.188 0c.917 0 1.375.692 1.375 1.385 0 .923-.687 1.384-1.375 1.384-.916 0-1.375-.692-1.375-1.384 0-.924.688-1.385 1.375-1.385zM96.5 230.847c-4.354 0-7.792-3.462-7.792-7.847s3.438-7.846 7.792-7.846c4.354 0 7.792 3.461 7.792 7.846s-3.438 7.846-7.792 7.846zM141.875 211h-90.75V61.462h90.52V211h.23z" id="b"/><filter x="-4%" y="-1%" width="108.1%" height="104.2%" filterUnits="objectBoundingBox" id="a"><feOffset dy="2" in="SourceAlpha" result="shadowOffsetOuter1"/><feGaussianBlur stdDeviation="1" in="shadowOffsetOuter1" result="shadowBlurOuter1"/><feColorMatrix values="0 0 0 0 0.956493433 0 0 0 0 0.919713636 0 0 0 0 0.919713636 0 0 0 0.5 0" in="shadowBlurOuter1"/></filter><path d="M181.375 0h-79.75C96.355 0 92 2.124 92 4.695v83.61C92 90.876 96.354 93 101.625 93h79.75c5.27 0 9.625-2.124 9.625-4.695V4.695C191 2.124 186.646 0 181.375 0zM141.5 3.23c.688 0 1.146.462 1.146 1.155 0 .692-.458 1.153-1.146 1.153s-1.146-.461-1.146-1.153c0-.462.458-1.154 1.146-1.154zm-7.104 4.847h14.208c.688 0 1.375.692 1.375 1.385 0 .692-.687 1.384-1.375 1.384h-14.208c-.688 0-1.375-.692-1.375-1.384 0-.693.687-1.385 1.375-1.385zm-6.188 0c.917 0 1.375.692 1.375 1.385 0 .923-.687 1.384-1.375 1.384-.916 0-1.375-.692-1.375-1.384 0-.924.688-1.385 1.375-1.385zm58.667 85.385h-90.75v-75h90.52v75h.23z" id="d"/><filter x="-4%" y="-2.1%" width="108.1%" height="108.6%" filterUnits="objectBoundingBox" id="c"><feOffset dy="2" in="SourceAlpha" result="shadowOffsetOuter1"/><feGaussianBlur stdDeviation="1" in="shadowOffsetOuter1" result="shadowBlurOuter1"/><feColorMatrix values="0 0 0 0 0.956493433 0 0 0 0 0.919713636 0 0 0 0 0.919713636 0 0 0 0.5 0" in="shadowBlurOuter1"/></filter></defs><g fill="none" fill-rule="evenodd"><path d="M37.375 77.75l-7.016-4.677M36.625 77.75l7.016-4.677" stroke="#FFF" stroke-width="4" stroke-linecap="round" stroke-linejoin="round"/><path d="M76.5 30.799c-10.448-1.338-19.972 1.817-28.57 9.465C35.032 51.737 36.556 69.88 36.556 73.5" stroke="#F9F3F3" stroke-width="3" stroke-linecap="square"/><g fill-rule="nonzero" transform="rotate(-90 96.5 139)"><use fill="#000" filter="url(#a)" xlink:href="#b"/><use fill="#FFF" xlink:href="#b"/></g><g fill-rule="nonzero"><use fill="#000" filter="url(#c)" xlink:href="#d"/><use fill="#FFF" xlink:href="#d"/></g></g></svg>